<svg width="16" height="16" viewBox="0 0 16 16" fill="none" xmlns="http://www.w3.org/2000/svg">
<g id="icon/&#229;&#133;&#179;&#233;&#151;&#173;">
<g id="&#229;&#133;&#179;&#233;&#151;&#173;&#229;&#164;&#135;&#228;&#187;&#189;">
<path id="&#232;&#183;&#175;&#229;&#190;&#132;" d="M13.7421 3.49719L3.49896 13.7435C3.15707 14.0855 2.60027 14.0855 2.25642 13.7435C1.91453 13.4016 1.91453 12.8447 2.25642 12.5009L12.4996 2.25645C12.8415 1.91452 13.3983 1.91452 13.7421 2.25645C14.086 2.59839 14.086 3.15526 13.7421 3.49719Z" fill="#333333"/>
<path id="&#232;&#183;&#175;&#229;&#190;&#132;_2" d="M13.7421 13.7436C13.4002 14.0855 12.8434 14.0855 12.4996 13.7436L2.25642 3.49954C1.91453 3.15768 1.91453 2.60094 2.25642 2.25713C2.59831 1.91331 3.15511 1.91527 3.49896 2.25713L13.7421 12.4992C14.086 12.845 14.086 13.3998 13.7421 13.7436Z" fill="#333333"/>
</g>
</g>
</svg>
