<svg width="19" height="40" viewBox="0 0 19 40" fill="none" xmlns="http://www.w3.org/2000/svg">
<g id="&#231;&#172;&#166;&#229;&#143;&#183;/&#230;&#174;&#181;&#232;&#144;&#189;&#229;&#143;&#141;&#229;&#164;&#141;&#232;&#174;&#176;&#229;&#143;&#183;1/hover">
<path id="&#229;&#189;&#162;&#231;&#138;&#182;&#231;&#187;&#147;&#229;&#144;&#136;&#229;&#164;&#135;&#228;&#187;&#189;" d="M8.62399 38C8.55199 38 8.52799 37.952 8.52799 37.88V2.12C8.52799 2.048 8.55199 2.024 8.62399 2H9.63199C9.67999 2 9.70399 2.048 9.72799 2.12V37.88C9.72799 37.952 9.70399 38 9.63199 38H8.62399ZM2.11999 38C2.04799 38 1.99999 37.952 1.99999 37.88V2.12C1.99999 2.048 2.04799 2.024 2.11999 2H6.03199C6.10399 2 6.12799 2.048 6.15199 2.12V37.88C6.15199 37.952 6.10399 38 6.03199 38H2.11999ZM14.648 16.52C13.568 16.52 12.728 15.68 12.728 14.6C12.728 13.496 13.616 12.68 14.648 12.68C15.68 12.68 16.568 13.544 16.568 14.6C16.568 15.632 15.752 16.52 14.648 16.52ZM14.648 27.32C13.568 27.32 12.728 26.48 12.728 25.4C12.728 24.296 13.616 23.48 14.648 23.48C15.68 23.48 16.568 24.344 16.568 25.4C16.568 26.432 15.752 27.32 14.648 27.32Z" fill="#333333"/>
</g>
</svg>
