<svg width="72" height="12" viewBox="0 0 72 12" fill="none" xmlns="http://www.w3.org/2000/svg">
<g id="&#229;&#143;&#141;&#229;&#164;&#141;&#232;&#174;&#176;&#229;&#143;&#183;/&#232;&#191;&#148;&#229;&#167;&#139;&#229;&#165;&#143;&#232;&#135;&#179;&#231;&#187;&#147;&#230;&#157;&#159;&#232;&#174;&#176;&#229;&#143;&#183;">
<path id="D.C.alFine" d="M4.69774 10.8189C6.02074 10.8189 7.01536 10.6936 7.68162 10.4429C8.66198 10.0715 9.40914 9.48189 9.92311 8.67409C10.418 7.90343 10.6655 6.98886 10.6655 5.93036C10.6655 4.3519 10.0897 3.12628 8.938 2.25348C8.01475 1.55711 6.68699 1.20891 4.95472 1.20891C4.53593 1.20891 3.94582 1.20427 3.18438 1.19499C2.65137 1.1857 2.09933 1.18106 1.52825 1.18106H1.27126C1.13801 1.18106 1.07138 1.22284 1.07138 1.30641C1.07138 1.40854 1.17608 1.45497 1.38548 1.44568C1.77572 1.4364 2.01842 1.51532 2.1136 1.68245C2.17071 1.7753 2.19927 2.026 2.19927 2.43454V9.52368C2.19927 10.0251 2.18023 10.3083 2.14216 10.3733C2.0565 10.5218 1.80903 10.5915 1.39976 10.5822C1.13325 10.5729 1 10.6147 1 10.7075C1 10.7818 1.07138 10.8189 1.21415 10.8189L2.1136 10.805C2.71324 10.7957 3.02257 10.7911 3.04161 10.7911H3.55558C3.91726 10.7911 4.19328 10.7957 4.38364 10.805C4.574 10.8143 4.6787 10.8189 4.69774 10.8189ZM5.22598 10.5682C4.83575 10.5682 4.58352 10.5172 4.4693 10.415C4.39316 10.35 4.35509 10.0111 4.35509 9.39833V2.26741C4.35509 1.92386 4.43123 1.70566 4.58352 1.61281C4.69774 1.53853 4.93569 1.50139 5.29737 1.50139C6.29676 1.50139 7.02964 1.85655 7.49602 2.56685C7.9624 3.27716 8.19559 4.39833 8.19559 5.93036C8.19559 9.02229 7.20572 10.5682 5.22598 10.5682ZM13.1212 10.9304C13.4162 10.9304 13.6589 10.8375 13.8493 10.6518C14.0396 10.4661 14.1348 10.2293 14.1348 9.9415C14.1348 9.65367 14.0349 9.41226 13.835 9.21727C13.6351 9.02229 13.3972 8.92479 13.1212 8.92479C12.8261 8.92479 12.5786 9.02229 12.3787 9.21727C12.1789 9.41226 12.0789 9.65367 12.0789 9.9415C12.0789 10.2201 12.1789 10.4545 12.3787 10.6448C12.5786 10.8352 12.8261 10.9304 13.1212 10.9304ZM20.3453 11C21.1638 11 21.93 10.7029 22.6439 10.1086C22.8818 10.2108 23.1055 10.429 23.3149 10.7632C23.372 10.8561 23.4244 10.9025 23.472 10.9025C23.5195 10.9025 23.5433 10.8514 23.5433 10.7493C23.5433 10.6565 23.5386 10.5775 23.5291 10.5125C23.5195 10.3268 23.5148 10.0947 23.5148 9.81616C23.5148 9.59332 23.5338 9.27762 23.5719 8.86908C23.6195 8.33055 23.6433 8.03807 23.6433 7.99164L23.6576 7.75487C23.6671 7.63417 23.6242 7.57382 23.5291 7.57382C23.4434 7.57382 23.3673 7.71773 23.3006 8.00557C22.8818 9.75116 22.0014 10.624 20.6594 10.624C20.0407 10.624 19.541 10.4104 19.1603 9.98329C18.4369 9.17549 18.0753 7.90344 18.0753 6.16713C18.0753 4.99722 18.2275 3.99443 18.5321 3.15878C18.9699 1.93315 19.6743 1.32034 20.6451 1.32034C21.8729 1.32034 22.6582 2.15599 23.0008 3.8273C23.077 4.18941 23.1531 4.37047 23.2292 4.37047C23.3244 4.37047 23.372 4.28691 23.372 4.11978V3.15878C23.3625 2.82451 23.3577 2.63417 23.3577 2.58775C23.3577 2.12349 23.3863 1.73352 23.4434 1.41783C23.4529 1.36212 23.4577 1.32034 23.4577 1.29248C23.4577 1.22749 23.4386 1.19499 23.4006 1.19499C23.372 1.19499 23.2959 1.25998 23.1721 1.38997C23.0008 1.56639 22.8152 1.6546 22.6153 1.6546C22.4821 1.6546 22.2727 1.57567 21.9871 1.41783C21.4922 1.13928 20.9307 1 20.3025 1C18.9414 1 17.8064 1.47586 16.8974 2.42758C15.9884 3.3793 15.534 4.56546 15.534 5.98607C15.534 7.45311 16.0384 8.66945 17.0473 9.6351C17.9991 10.545 19.0984 11 20.3453 11ZM26.1703 10.9304C26.4654 10.9304 26.7081 10.8375 26.8984 10.6518C27.0888 10.4661 27.184 10.2293 27.184 9.9415C27.184 9.65367 27.084 9.41226 26.8842 9.21727C26.6843 9.02229 26.4463 8.92479 26.1703 8.92479C25.8752 8.92479 25.6278 9.02229 25.4279 9.21727C25.228 9.41226 25.1281 9.65367 25.1281 9.9415C25.1281 10.2201 25.228 10.4545 25.4279 10.6448C25.6278 10.8352 25.8752 10.9304 26.1703 10.9304ZM32.2095 10.9721C32.9519 10.9721 33.5372 10.5915 33.9655 9.83009C34.0226 10.2386 34.1392 10.5218 34.3153 10.6797C34.4914 10.8375 34.7746 10.9164 35.1648 10.9164C35.7644 10.9164 36.2689 10.7354 36.6782 10.3733C36.8304 10.2433 36.9066 10.1411 36.9066 10.0669C36.9066 10.0204 36.8828 9.99722 36.8352 9.99722C36.8066 9.99722 36.7686 10.0204 36.721 10.0669C36.483 10.2897 36.2832 10.4011 36.1214 10.4011C35.8929 10.4011 35.7549 10.2061 35.7073 9.81616C35.7005 9.7631 35.6961 9.61056 35.6942 9.35854L35.693 6.62674C35.693 5.91179 35.536 5.4104 35.2219 5.12256C34.8317 4.77902 34.1416 4.60724 33.1517 4.60724C32.4855 4.60724 31.9477 4.76973 31.5384 5.09471C31.1292 5.41968 30.9245 5.7818 30.9245 6.18106C30.9245 6.43175 31.0126 6.63835 31.1887 6.80084C31.3647 6.96333 31.5908 7.04457 31.8668 7.04457C32.0857 7.04457 32.2642 6.97725 32.4022 6.84262C32.5402 6.70799 32.6092 6.53853 32.6092 6.33426C32.6092 5.95358 32.4379 5.7493 32.0952 5.72145C31.8668 5.70288 31.7526 5.64717 31.7526 5.55432C31.7526 5.38719 31.8478 5.21541 32.0381 5.039C32.2285 4.86258 32.4807 4.77437 32.7948 4.77437C33.3373 4.77437 33.6752 5.0065 33.8085 5.47075L33.8228 5.54039C33.8894 5.75395 33.9227 6.32498 33.9227 7.25348V7.54596C31.8668 7.75952 30.8389 8.45125 30.8389 9.62117C30.8389 10.0204 30.965 10.3454 31.2172 10.5961C31.4694 10.8468 31.8002 10.9721 32.2095 10.9721ZM33.2231 10.234C32.7663 10.234 32.5378 9.90901 32.5378 9.25905C32.5378 8.41411 32.9995 7.90344 33.9227 7.72702V8.40947C33.9227 9.06871 33.8703 9.53761 33.7657 9.81616C33.661 10.0947 33.4801 10.234 33.2231 10.234ZM36.9648 10.8195L37.0779 10.8189L37.5062 10.805C38.0773 10.7864 38.4675 10.7772 38.6769 10.7772C38.8958 10.7772 39.1195 10.7818 39.3479 10.7911C39.7953 10.8097 40.0618 10.8189 40.1475 10.8189C40.5091 10.8189 40.69 10.7818 40.69 10.7075C40.69 10.6332 40.6281 10.5961 40.5044 10.5961L40.0761 10.61C39.8762 10.6193 39.7596 10.5706 39.7263 10.4638C39.693 10.357 39.6763 9.98793 39.6763 9.35655L39.6775 3.66472C39.6776 3.55955 39.6778 3.45744 39.6779 3.3584L39.6789 2.80092C39.6791 2.71413 39.6793 2.63041 39.6796 2.54975L39.681 2.10255C39.6833 1.4869 39.6865 1.11938 39.6906 1C39.0148 1.27855 38.1439 1.4364 37.0779 1.47354C36.8304 1.48282 36.7067 1.52461 36.7067 1.59889C36.7067 1.66388 36.8257 1.69638 37.0636 1.69638C37.3872 1.69638 37.5824 1.72656 37.649 1.78691C37.7156 1.84726 37.7489 2.03528 37.7489 2.35098V9.69081C37.7489 10.1736 37.7228 10.4522 37.6704 10.5265C37.6181 10.6007 37.4253 10.6332 37.0922 10.624C36.8733 10.6147 36.7638 10.6472 36.7638 10.7214C36.7638 10.7957 36.8685 10.8282 37.0779 10.8189L36.9648 10.8195ZM51.2764 3.84732C51.2621 3.76898 51.2264 3.7298 51.1693 3.7298C51.0931 3.7298 51.0456 3.79016 51.0265 3.91086C50.9123 4.7558 50.7434 5.27113 50.5197 5.45683C50.296 5.64253 49.7368 5.73538 48.8421 5.73538H48.4281V1.47354C48.923 1.44568 49.3609 1.43176 49.7416 1.43176C50.5696 1.43176 51.1455 1.50604 51.4691 1.6546C52.0116 1.90529 52.3781 2.40204 52.5684 3.14485C52.6351 3.41411 52.6803 3.57196 52.7041 3.61839C52.7279 3.66481 52.7683 3.68802 52.8254 3.68802C52.892 3.68802 52.9254 3.65088 52.9254 3.5766C52.9254 3.52089 52.9206 3.46518 52.9111 3.40947C52.8349 2.98236 52.7588 2.2117 52.6826 1.09749C52.3781 1.12535 52.1496 1.13928 51.9974 1.13928L51.0122 1.12535C50.4126 1.11607 49.6797 1.11607 48.8136 1.12535C48.233 1.12535 47.562 1.13463 46.8005 1.1532C46.2675 1.16043 45.9303 1.16484 45.7888 1.16644L45.4442 1.16713C45.2539 1.16713 45.1587 1.21356 45.1587 1.30641C45.1587 1.3714 45.2943 1.41319 45.5656 1.43176C45.8368 1.45033 46.0177 1.48282 46.1081 1.52925C46.1985 1.57567 46.2532 1.66388 46.2723 1.79387L46.2866 9.87187C46.2866 10.0576 46.2675 10.1876 46.2294 10.2618C46.1819 10.4475 45.9344 10.5497 45.487 10.5682C45.1825 10.5775 45.0302 10.624 45.0302 10.7075C45.0302 10.7911 45.0873 10.8329 45.2015 10.8329C45.2777 10.8329 45.3443 10.8282 45.4014 10.8189C45.8011 10.7911 46.2628 10.7772 46.7862 10.7772C47.5287 10.7772 48.1949 10.7864 48.785 10.805C49.0801 10.8143 49.3323 10.8189 49.5417 10.8189C49.7225 10.8189 49.813 10.7772 49.813 10.6936C49.813 10.6193 49.7273 10.5822 49.556 10.5822C48.9944 10.5822 48.6661 10.5311 48.5709 10.429C48.4757 10.3268 48.4281 9.97865 48.4281 9.3844V6.01393C48.7707 6.00464 49.1848 6 49.6702 6C50.0319 6 50.2841 6.05107 50.4269 6.1532C50.7219 6.35747 50.8933 6.79852 50.9409 7.47633C50.9599 7.77345 51.0313 7.922 51.155 7.922C51.2407 7.922 51.2835 7.84773 51.2835 7.69916C51.2835 7.5506 51.2787 7.37187 51.2692 7.16295C51.2624 7.01373 51.2581 6.752 51.2561 6.37775L51.2555 4.74847C51.257 4.4714 51.2616 4.26416 51.2692 4.12674C51.2787 3.95497 51.2835 3.89229 51.2835 3.93872L51.2764 3.84732ZM55.1811 2.83844C55.4381 2.83844 55.657 2.74559 55.8379 2.55989C56.0187 2.37419 56.1091 2.15135 56.1091 1.89137C56.1091 1.64067 56.0235 1.43175 55.8521 1.26462C55.6808 1.09749 55.4667 1.01393 55.2097 1.01393C54.9241 1.01393 54.6909 1.09749 54.5101 1.26462C54.3293 1.43175 54.2388 1.64531 54.2388 1.90529C54.2388 2.17456 54.3293 2.3974 54.5101 2.57382C54.6909 2.75023 54.9146 2.83844 55.1811 2.83844ZM53.525 10.8329C53.6106 10.8236 53.682 10.8189 53.7391 10.8189L55.1097 10.7911L57.0086 10.8189C57.0942 10.8189 57.1371 10.7864 57.1371 10.7214C57.1371 10.6565 57.0847 10.624 56.98 10.624C56.5612 10.624 56.3161 10.5915 56.2447 10.5265C56.1734 10.4615 56.1377 10.2386 56.1377 9.85794V7.23955L56.1234 5.47075C56.0948 4.96936 56.071 4.66295 56.052 4.55153C55.3096 4.85794 54.4149 5.01578 53.3679 5.02507C53.2252 5.02507 53.1538 5.05757 53.1538 5.12256C53.1538 5.17827 53.1704 5.21077 53.2038 5.22006C53.2371 5.22934 53.3537 5.23398 53.5535 5.23398C53.8676 5.23398 54.0556 5.2688 54.1175 5.33844C54.1793 5.40808 54.2103 5.61931 54.2103 5.97215V9.96936C54.2103 10.2758 54.1817 10.4591 54.1246 10.5195C54.0675 10.5799 53.8772 10.6147 53.5535 10.624C53.3346 10.6332 53.2252 10.6657 53.2252 10.7214C53.2252 10.7957 53.2823 10.8329 53.3965 10.8329H53.525ZM57.5511 10.8468C58.0936 10.8468 58.6266 10.8375 59.1501 10.8189C59.4166 10.8097 59.7545 10.805 60.1638 10.805C60.5731 10.805 60.811 10.8004 60.8776 10.7911C60.9443 10.7818 60.9776 10.7493 60.9776 10.6936C60.9776 10.6379 60.9395 10.61 60.8633 10.61C60.6159 10.6007 60.4612 10.5799 60.3993 10.5474C60.3375 10.5149 60.297 10.4429 60.278 10.3315L60.2637 6.11142C60.2637 5.84215 60.3589 5.61931 60.5493 5.4429C60.7396 5.26648 60.9823 5.17827 61.2774 5.17827C61.5724 5.17827 61.7771 5.26184 61.8913 5.42897C62.0245 5.62395 62.0912 6.2182 62.0912 7.2117V9.89972C62.0912 10.2526 62.0698 10.4591 62.0269 10.5195C61.9841 10.5799 61.8389 10.61 61.5915 10.61H61.4773C61.363 10.61 61.3059 10.6425 61.3059 10.7075C61.3059 10.7818 61.3726 10.8189 61.5058 10.8189L62.7336 10.805H63.1905C63.6283 10.805 63.9614 10.8097 64.1899 10.8189C64.4183 10.8282 64.542 10.8329 64.5611 10.8329C64.799 10.8329 64.918 10.7957 64.918 10.7214C64.918 10.6472 64.7871 10.61 64.5254 10.61C64.2636 10.61 64.109 10.5845 64.0614 10.5334C64.0138 10.4824 63.99 10.3129 63.99 10.0251V8.00557C63.99 7.10492 63.9781 6.51068 63.9543 6.22284C63.9305 5.935 63.8663 5.67502 63.7616 5.4429C63.5141 4.88579 62.9811 4.60724 62.1626 4.60724C61.3726 4.60724 60.7253 4.92758 60.2209 5.56824C60.2304 5.44754 60.2352 5.18292 60.2352 4.77437C60.2352 4.62581 60.1971 4.55153 60.1209 4.55153C60.0924 4.55153 60.04 4.5701 59.9639 4.60724C59.3262 4.99722 58.4743 5.21541 57.4083 5.26184C57.2941 5.27112 57.237 5.30826 57.237 5.37326C57.237 5.43825 57.3131 5.47075 57.4654 5.47075H57.6225C57.7177 5.46147 57.8271 5.45683 57.9508 5.45683C58.1793 5.45683 58.3078 5.52646 58.3363 5.66574C58.3554 5.70288 58.3649 6.17177 58.3649 7.07242V10.2758L58.322 10.4708C58.2745 10.5822 58.1055 10.6379 57.8152 10.6379C57.5249 10.6379 57.3798 10.675 57.3798 10.7493C57.3798 10.8143 57.4369 10.8468 57.5511 10.8468ZM68.5444 10.9861C69.401 10.9861 70.0958 10.6286 70.6288 9.91365C70.8763 9.57939 71 9.31012 71 9.10585C71 9.05014 70.981 9.02228 70.9429 9.02228C70.8953 9.02228 70.8334 9.11049 70.7573 9.28691C70.5955 9.63974 70.3599 9.92758 70.0506 10.1504C69.7412 10.3733 69.42 10.4847 69.0869 10.4847C68.6871 10.4847 68.3492 10.35 68.0732 10.0808C67.6068 9.62581 67.3736 8.85515 67.3736 7.7688C67.3736 7.53668 67.3879 7.25348 67.4165 6.91922C67.7782 6.90065 68.078 6.89137 68.3159 6.89137C69.8578 6.88208 70.7383 6.86815 70.9572 6.84958C70.9381 6.61746 70.9096 6.41783 70.8715 6.2507C70.7287 5.71216 70.4194 5.29898 69.9435 5.01114C69.5152 4.75116 68.9965 4.62117 68.3873 4.62117C67.4926 4.62117 66.7455 4.92526 66.1458 5.53343C65.5462 6.1416 65.2464 6.90065 65.2464 7.81059C65.2464 8.73909 65.5557 9.50047 66.1744 10.0947C66.7931 10.689 67.583 10.9861 68.5444 10.9861ZM69.2011 6.68245C69.0583 6.67317 68.8918 6.66852 68.7014 6.66852C68.0637 6.66852 67.6449 6.67317 67.445 6.68245C67.5307 5.4104 67.8638 4.77437 68.4444 4.77437C68.73 4.77437 68.9298 4.91365 69.0441 5.1922C69.1583 5.47075 69.2106 5.9675 69.2011 6.68245Z" fill="#333333"/>
</g>
</svg>
