<svg width="72" height="12" viewBox="0 0 72 12" fill="none" xmlns="http://www.w3.org/2000/svg">
<g id="&#229;&#143;&#141;&#229;&#164;&#141;&#232;&#174;&#176;&#229;&#143;&#183;/&#232;&#191;&#148;&#229;&#155;&#158;&#232;&#174;&#176;&#229;&#143;&#183;&#229;&#164;&#132;&#229;&#165;&#143;&#232;&#135;&#179;&#229;&#176;&#190;&#229;&#163;&#176;">
<path id="D.S.alCoda" d="M4.57523 10.7922C5.8544 10.7922 6.81608 10.6676 7.46026 10.4183C8.40814 10.0489 9.13055 9.4626 9.62749 8.65928C10.106 7.89289 10.3453 6.98338 10.3453 5.93075C10.3453 4.36104 9.78854 3.1422 8.67502 2.27424C7.78236 1.58172 6.49859 1.23546 4.8237 1.23546C4.41879 1.23546 3.84822 1.23084 3.11201 1.22161C2.59666 1.21237 2.06291 1.20776 1.51075 1.20776H1.26228C1.13344 1.20776 1.06902 1.24931 1.06902 1.33241C1.06902 1.43398 1.17025 1.48015 1.37271 1.47091C1.75002 1.46168 1.98468 1.54017 2.07671 1.70637C2.13193 1.79871 2.15953 2.04801 2.15953 2.45429V9.50416C2.15953 10.0028 2.14113 10.2844 2.10432 10.349C2.02149 10.4968 1.78223 10.566 1.38651 10.5568C1.12884 10.5476 1 10.5891 1 10.6814C1 10.7553 1.06902 10.7922 1.20706 10.7922L2.07671 10.7784C2.65648 10.7692 2.95556 10.7645 2.97397 10.7645H3.47091C3.82061 10.7645 4.08749 10.7692 4.27154 10.7784C4.4556 10.7876 4.55683 10.7922 4.57523 10.7922ZM5.08598 10.5429C4.70867 10.5429 4.4648 10.4922 4.35437 10.3906C4.28075 10.3259 4.24394 9.98892 4.24394 9.3795V2.28809C4.24394 1.94645 4.31756 1.72945 4.4648 1.63712C4.57523 1.56325 4.8053 1.52632 5.155 1.52632C6.12128 1.52632 6.82988 1.8795 7.28081 2.58587C7.73174 3.29224 7.95721 4.4072 7.95721 5.93075C7.95721 9.00554 7.00013 10.5429 5.08598 10.5429ZM12.7196 10.903C13.0049 10.903 13.2395 10.8107 13.4236 10.626C13.6076 10.4414 13.6997 10.2059 13.6997 9.91967C13.6997 9.63343 13.603 9.39335 13.4098 9.19945C13.2165 9.00554 12.9865 8.90859 12.7196 8.90859C12.4343 8.90859 12.195 9.00554 12.0018 9.19945C11.8085 9.39335 11.7119 9.63343 11.7119 9.91967C11.7119 10.1967 11.8085 10.4298 12.0018 10.6191C12.195 10.8084 12.4343 10.903 12.7196 10.903ZM14.9696 11C15.0156 11 15.0525 10.9492 15.0801 10.8476C15.1629 10.5152 15.2825 10.349 15.439 10.349C15.4942 10.349 15.5586 10.3629 15.6322 10.3906C16.6169 10.7692 17.3899 10.9585 17.9513 10.9585C18.8716 10.9585 19.6285 10.6837 20.222 10.1343C20.8156 9.58495 21.1124 8.89012 21.1124 8.04986C21.1124 7.30194 20.8777 6.68329 20.4084 6.19391C20.0863 5.8615 19.4283 5.41828 18.4344 4.86427C17.6246 4.41182 17.077 4.04017 16.7918 3.74931C16.5065 3.45845 16.3638 3.12373 16.3638 2.74515C16.3638 2.31117 16.5157 1.96953 16.8194 1.72022C17.1231 1.47091 17.5326 1.34626 18.0479 1.34626C18.416 1.34626 18.7381 1.42936 19.0142 1.59557C19.2259 1.72484 19.4352 1.9349 19.6423 2.22576C19.8493 2.51662 19.9943 2.80979 20.0771 3.10526C20.1599 3.40074 20.2428 3.54848 20.3256 3.54848C20.3992 3.54848 20.436 3.50693 20.436 3.42382C20.436 3.37766 20.4314 3.34072 20.4222 3.31302C20.3854 2.98061 20.367 2.57433 20.367 2.09418C20.367 1.95568 20.3762 1.78024 20.3946 1.56787C20.413 1.35549 20.4222 1.22622 20.4222 1.18006C20.4222 1.06002 20.3762 1 20.2842 1C20.2197 1 20.1783 1.04155 20.1599 1.12465C20.1139 1.36473 20.0219 1.48477 19.8838 1.48477C19.8102 1.48477 19.686 1.44783 19.5111 1.37396C18.9866 1.15235 18.4942 1.04155 18.0341 1.04155C17.1783 1.04155 16.4697 1.3024 15.9083 1.8241C15.3469 2.3458 15.0663 3.0037 15.0663 3.79779C15.0663 4.47184 15.2319 5.05356 15.5632 5.54294C15.9221 6.07849 16.6031 6.61404 17.6062 7.14959C18.5081 7.63897 19.0418 7.96676 19.2075 8.13297C19.4283 8.36381 19.5387 8.67313 19.5387 9.06094C19.5387 9.51339 19.3685 9.89659 19.028 10.2105C18.6875 10.5245 18.2688 10.6814 17.7718 10.6814C17.2105 10.6814 16.6859 10.4783 16.1982 10.072C15.7473 9.69345 15.4574 9.16251 15.3285 8.47923C15.2549 8.08218 15.1721 7.88366 15.0801 7.88366C14.988 7.88366 14.942 7.95753 14.942 8.10527C14.942 8.16067 14.9512 8.34534 14.9696 8.65928C14.9788 8.81625 14.9834 9.02863 14.9834 9.2964C14.9834 9.62881 14.965 9.91967 14.9282 10.169C14.8822 10.4737 14.8592 10.6861 14.8592 10.8061C14.8592 10.9354 14.896 11 14.9696 11ZM23.4039 10.903C23.6891 10.903 23.9238 10.8107 24.1079 10.626C24.2919 10.4414 24.3839 10.2059 24.3839 9.91967C24.3839 9.63343 24.2873 9.39335 24.0941 9.19945C23.9008 9.00554 23.6707 8.90859 23.4039 8.90859C23.1186 8.90859 22.8793 9.00554 22.6861 9.19945C22.4928 9.39335 22.3962 9.63343 22.3962 9.91967C22.3962 10.1967 22.4928 10.4298 22.6861 10.6191C22.8793 10.8084 23.1186 10.903 23.4039 10.903ZM29.2429 10.9446C29.9608 10.9446 30.5267 10.566 30.9408 9.80887C30.9961 10.2151 31.1088 10.4968 31.279 10.6537C31.4493 10.8107 31.7231 10.8892 32.1004 10.8892C32.6801 10.8892 33.1679 10.7091 33.5636 10.349C33.7108 10.2198 33.7845 10.1182 33.7845 10.0443C33.7845 9.99816 33.7615 9.97507 33.7154 9.97507C33.6878 9.97507 33.651 9.99816 33.605 10.0443C33.3749 10.2659 33.1817 10.3767 33.0252 10.3767C32.8044 10.3767 32.6709 10.1828 32.6249 9.79502C32.6184 9.74225 32.6141 9.59056 32.6122 9.33993L32.6111 6.62327C32.6111 5.91228 32.4593 5.41367 32.1556 5.12742C31.7783 4.78578 31.1111 4.61496 30.154 4.61496C29.5098 4.61496 28.9899 4.77655 28.5942 5.09972C28.1984 5.4229 28.0006 5.78301 28.0006 6.18006C28.0006 6.42936 28.0857 6.63481 28.256 6.7964C28.4262 6.95799 28.6448 7.03878 28.9117 7.03878C29.1233 7.03878 29.2959 6.97184 29.4293 6.83795C29.5627 6.70407 29.6295 6.53555 29.6295 6.33241C29.6295 5.95383 29.4638 5.75069 29.1325 5.72299C28.9117 5.70453 28.8012 5.64912 28.8012 5.55679C28.8012 5.39058 28.8932 5.21976 29.0773 5.04432C29.2614 4.86888 29.5052 4.78117 29.8089 4.78117C30.3335 4.78117 30.6602 5.012 30.789 5.47368L30.8028 5.54294C30.8672 5.75531 30.8994 6.32318 30.8994 7.24654V7.5374C28.9117 7.74977 27.9178 8.43768 27.9178 9.60111C27.9178 9.99816 28.0397 10.3213 28.2836 10.5706C28.5274 10.8199 28.8472 10.9446 29.2429 10.9446ZM30.223 10.2105C29.7813 10.2105 29.5604 9.88735 29.5604 9.241C29.5604 8.40074 30.0068 7.89289 30.8994 7.71745V8.39612C30.8994 9.05171 30.8488 9.51801 30.7476 9.79502C30.6464 10.072 30.4715 10.2105 30.223 10.2105ZM33.8408 10.7928L33.9501 10.7922L34.3642 10.7784C34.9164 10.7599 35.2937 10.7507 35.4962 10.7507C35.7078 10.7507 35.9241 10.7553 36.1449 10.7645C36.5775 10.783 36.8351 10.7922 36.918 10.7922C37.2677 10.7922 37.4425 10.7553 37.4425 10.6814C37.4425 10.6076 37.3827 10.5706 37.2631 10.5706L36.8489 10.5845C36.6557 10.5937 36.543 10.5452 36.5107 10.4391C36.4785 10.3329 36.4624 9.96584 36.4624 9.33795L36.4636 3.67765C36.4637 3.57307 36.4638 3.47153 36.464 3.37304L36.465 2.81864C36.4652 2.73234 36.4654 2.64908 36.4656 2.56887L36.4669 2.12414C36.4692 1.5119 36.4723 1.14642 36.4762 1.0277C35.8228 1.30471 34.9808 1.46168 33.9501 1.49861C33.7108 1.50785 33.5912 1.5494 33.5912 1.62327C33.5912 1.68791 33.7062 1.72022 33.9363 1.72022C34.2492 1.72022 34.4378 1.75023 34.5023 1.81025C34.5667 1.87027 34.5989 2.05725 34.5989 2.37119V9.67036C34.5989 10.1505 34.5736 10.4275 34.523 10.5014C34.4724 10.5753 34.286 10.6076 33.9639 10.5983C33.7522 10.5891 33.6464 10.6214 33.6464 10.6953C33.6464 10.7692 33.7476 10.8015 33.9501 10.7922L33.8408 10.7928ZM46.6774 10.9723C47.4688 10.9723 48.2096 10.6768 48.8998 10.0859C49.1299 10.1874 49.3461 10.4044 49.5486 10.7368C49.6038 10.8292 49.6544 10.8753 49.7005 10.8753C49.7465 10.8753 49.7695 10.8246 49.7695 10.723C49.7695 10.6307 49.7649 10.5522 49.7557 10.4875C49.7465 10.3029 49.7419 10.072 49.7419 9.79502C49.7419 9.57341 49.7603 9.25947 49.7971 8.85319C49.8431 8.31764 49.8661 8.02678 49.8661 7.98061L49.8799 7.74515C49.8891 7.62512 49.8477 7.5651 49.7557 7.5651C49.6728 7.5651 49.5992 7.70822 49.5348 7.99446C49.1299 9.73038 48.2786 10.5983 46.9811 10.5983C46.3829 10.5983 45.8998 10.386 45.5317 9.96122C44.8322 9.1579 44.4825 7.89289 44.4825 6.16621C44.4825 5.00277 44.6298 4.00554 44.9243 3.17452C45.3476 1.95568 46.0286 1.34626 46.9673 1.34626C48.1544 1.34626 48.9136 2.17728 49.2449 3.83933C49.3185 4.19945 49.3922 4.3795 49.4658 4.3795C49.5578 4.3795 49.6038 4.2964 49.6038 4.1302V3.17452C49.5946 2.84211 49.59 2.65282 49.59 2.60665C49.59 2.14497 49.6176 1.75716 49.6728 1.44321C49.682 1.38781 49.6866 1.34626 49.6866 1.31856C49.6866 1.25393 49.6682 1.22161 49.6314 1.22161C49.6038 1.22161 49.5302 1.28624 49.4106 1.41551C49.2449 1.59095 49.0655 1.67867 48.8722 1.67867C48.7434 1.67867 48.5409 1.60018 48.2648 1.44321C47.7863 1.16621 47.2433 1.0277 46.636 1.0277C45.32 1.0277 44.2226 1.50092 43.3437 2.44737C42.4649 3.39381 42.0254 4.57341 42.0254 5.98615C42.0254 7.44506 42.5132 8.65466 43.4887 9.61496C44.4089 10.5199 45.4718 10.9723 46.6774 10.9723ZM53.8831 10.9585C54.6101 10.9585 55.2773 10.7184 55.8846 10.2382C56.6577 9.62881 57.0442 8.8301 57.0442 7.84211C57.0442 6.95568 56.7382 6.19621 56.1262 5.56371C55.5142 4.93121 54.7803 4.61496 53.9245 4.61496C53.0318 4.61496 52.2703 4.92659 51.6399 5.54986C51.0095 6.17313 50.6943 6.92798 50.6943 7.8144C50.6943 8.6639 51.0095 9.40028 51.6399 10.0235C52.2703 10.6468 53.018 10.9585 53.8831 10.9585ZM53.9107 10.7645C53.561 10.7645 53.2895 10.5614 53.0962 10.1551C52.857 9.64728 52.7373 8.78855 52.7373 7.57895C52.7373 6.71099 52.8386 6.03001 53.041 5.53601C53.2435 5.04201 53.5242 4.79501 53.8831 4.79501C54.2696 4.79501 54.5503 5.03047 54.7251 5.50138C54.8815 5.92613 54.9598 6.71099 54.9598 7.85596C54.9598 8.78855 54.8954 9.49954 54.7665 9.98892C54.6285 10.506 54.3432 10.7645 53.9107 10.7645ZM62.1378 10.9585C62.147 10.9585 62.1793 10.9492 62.2345 10.9308C62.7314 10.6999 63.2054 10.5891 63.6563 10.5983L64.2775 10.6122C64.4615 10.6122 64.5535 10.5799 64.5535 10.5152C64.5535 10.4321 64.4845 10.3952 64.3465 10.4044H64.2035C64.0283 10.397 63.9149 10.3601 63.8633 10.2936C63.8173 10.2382 63.7943 10.132 63.7943 9.97507V3.36842L63.7805 2.03878L63.7667 1.34626C63.7667 1.12465 63.7161 1.01385 63.6149 1.01385C63.5689 1.01385 63.4906 1.03232 63.3802 1.06925C62.6164 1.31856 61.8157 1.44321 60.9783 1.44321C60.8679 1.44321 60.8127 1.47553 60.8127 1.54017C60.8127 1.6048 60.9323 1.63712 61.1716 1.63712C61.5857 1.62788 61.8296 1.69944 61.9032 1.8518C61.9768 2.00415 62.0136 2.49585 62.0136 3.32687V5.26593C61.6547 4.84118 61.19 4.62881 60.6194 4.62881C59.7452 4.62881 59.0412 4.91736 58.5074 5.49446C57.9736 6.07156 57.7068 6.83103 57.7068 7.77286C57.7068 8.69622 57.969 9.45799 58.4936 10.0582C59.0181 10.6584 59.6853 10.9585 60.4952 10.9585C61.1025 10.9585 61.5903 10.7599 61.9584 10.3629C61.986 10.5106 61.9998 10.626 61.9998 10.7091C62.009 10.8753 62.055 10.9585 62.1378 10.9585ZM61.0197 10.6399C60.6148 10.6399 60.2996 10.3998 60.0742 9.91967C59.8487 9.43952 59.736 8.76085 59.736 7.88366C59.736 5.9169 60.1777 4.93352 61.0611 4.93352C61.374 4.93352 61.6179 5.06279 61.7927 5.32133C61.9308 5.52447 61.9998 5.83379 61.9998 6.24931V9.2687C61.9998 9.74885 61.8963 10.0974 61.6892 10.3144C61.4822 10.5314 61.259 10.6399 61.0197 10.6399ZM66.4585 10.9446C67.1763 10.9446 67.7423 10.566 68.1564 9.80887C68.2116 10.2151 68.3243 10.4968 68.4946 10.6537C68.6648 10.8107 68.9386 10.8892 69.3159 10.8892C69.8957 10.8892 70.3834 10.7091 70.7791 10.349C70.9264 10.2198 71 10.1182 71 10.0443C71 9.99816 70.977 9.97507 70.931 9.97507C70.9034 9.97507 70.8666 9.99816 70.8206 10.0443C70.5905 10.2659 70.3972 10.3767 70.2408 10.3767C70.0199 10.3767 69.8865 10.1828 69.8405 9.79502C69.8339 9.74225 69.8297 9.59056 69.8278 9.33993L69.8267 6.62327C69.8267 5.91228 69.6748 5.41367 69.3711 5.12742C68.9938 4.78578 68.3266 4.61496 67.3696 4.61496C66.7254 4.61496 66.2054 4.77655 65.8097 5.09972C65.414 5.4229 65.2161 5.78301 65.2161 6.18006C65.2161 6.42936 65.3013 6.63481 65.4715 6.7964C65.6418 6.95799 65.8603 7.03878 66.1272 7.03878C66.3389 7.03878 66.5114 6.97184 66.6448 6.83795C66.7783 6.70407 66.845 6.53555 66.845 6.33241C66.845 5.95383 66.6794 5.75069 66.3481 5.72299C66.1272 5.70453 66.0168 5.64912 66.0168 5.55679C66.0168 5.39058 66.1088 5.21976 66.2928 5.04432C66.4769 4.86888 66.7208 4.78117 67.0245 4.78117C67.549 4.78117 67.8757 5.012 68.0045 5.47368L68.0183 5.54294C68.0828 5.75531 68.115 6.32318 68.115 7.24654V7.5374C66.1272 7.74977 65.1333 8.43768 65.1333 9.60111C65.1333 9.99816 65.2552 10.3213 65.4991 10.5706C65.743 10.8199 66.0628 10.9446 66.4585 10.9446ZM67.4386 10.2105C66.9968 10.2105 66.776 9.88735 66.776 9.241C66.776 8.40074 67.2223 7.89289 68.115 7.71745V8.39612C68.115 9.05171 68.0644 9.51801 67.9631 9.79502C67.8619 10.072 67.687 10.2105 67.4386 10.2105Z" fill="#006FD5"/>
</g>
</svg>
