<svg width="72" height="12" viewBox="0 0 72 12" fill="none" xmlns="http://www.w3.org/2000/svg">
<g id="&#229;&#143;&#141;&#229;&#164;&#141;&#232;&#174;&#176;&#229;&#143;&#183;/&#232;&#191;&#148;&#229;&#155;&#158;&#232;&#174;&#176;&#229;&#143;&#183;&#229;&#164;&#132;&#229;&#165;&#143;&#232;&#135;&#179;&#231;&#187;&#147;&#230;&#157;&#159;&#232;&#174;&#176;&#229;&#143;&#183;">
<path id="D.S.alFine" d="M4.80642 10.7922C6.16831 10.7922 7.19218 10.6676 7.87802 10.4183C8.88719 10.0489 9.65631 9.4626 10.1854 8.65928C10.6949 7.89289 10.9496 6.98338 10.9496 5.93075C10.9496 4.36104 10.3568 3.1422 9.17132 2.27424C8.22094 1.58172 6.85415 1.23546 5.07096 1.23546C4.63986 1.23546 4.0324 1.23084 3.24858 1.22161C2.69991 1.21237 2.13164 1.20776 1.54377 1.20776H1.27924C1.14207 1.20776 1.07348 1.24931 1.07348 1.33241C1.07348 1.43398 1.18126 1.48015 1.39681 1.47091C1.79852 1.46168 2.04836 1.54017 2.14634 1.70637C2.20512 1.79871 2.23452 2.04801 2.23452 2.45429V9.50416C2.23452 10.0028 2.21492 10.2844 2.17573 10.349C2.08755 10.4968 1.83281 10.566 1.41151 10.5568C1.13717 10.5476 1 10.5891 1 10.6814C1 10.7553 1.07348 10.7922 1.22045 10.7922L2.14634 10.7784C2.76359 10.7692 3.08202 10.7645 3.10162 10.7645H3.63069C4.00301 10.7645 4.28714 10.7692 4.4831 10.7784C4.67905 10.7876 4.78683 10.7922 4.80642 10.7922ZM5.3502 10.5429C4.94849 10.5429 4.68885 10.4922 4.57128 10.3906C4.4929 10.3259 4.45371 9.98892 4.45371 9.3795V2.28809C4.45371 1.94645 4.53209 1.72945 4.68885 1.63712C4.80642 1.56325 5.05137 1.52632 5.42368 1.52632C6.45245 1.52632 7.20687 1.8795 7.68696 2.58587C8.16705 3.29224 8.4071 4.4072 8.4071 5.93075C8.4071 9.00554 7.38813 10.5429 5.3502 10.5429ZM13.4774 10.903C13.7812 10.903 14.031 10.8107 14.227 10.626C14.4229 10.4414 14.5209 10.2059 14.5209 9.91967C14.5209 9.63343 14.418 9.39335 14.2123 9.19945C14.0065 9.00554 13.7616 8.90859 13.4774 8.90859C13.1737 8.90859 12.919 9.00554 12.7132 9.19945C12.5075 9.39335 12.4046 9.63343 12.4046 9.91967C12.4046 10.1967 12.5075 10.4298 12.7132 10.6191C12.919 10.8084 13.1737 10.903 13.4774 10.903ZM15.873 11C15.922 11 15.9612 10.9492 15.9906 10.8476C16.0787 10.5152 16.2061 10.349 16.3727 10.349C16.4314 10.349 16.5 10.3629 16.5784 10.3906C17.6268 10.7692 18.4498 10.9585 19.0474 10.9585C20.0272 10.9585 20.8331 10.6837 21.465 10.1343C22.097 9.58495 22.413 8.89012 22.413 8.04986C22.413 7.30194 22.1631 6.68329 21.6634 6.19391C21.3205 5.8615 20.62 5.41828 19.5618 4.86427C18.6996 4.41182 18.1167 4.04017 17.8129 3.74931C17.5092 3.45845 17.3573 3.12373 17.3573 2.74515C17.3573 2.31117 17.519 1.96953 17.8423 1.72022C18.1656 1.47091 18.6017 1.34626 19.1503 1.34626C19.5422 1.34626 19.8852 1.42936 20.1791 1.59557C20.4044 1.72484 20.6273 1.9349 20.8478 2.22576C21.0682 2.51662 21.2225 2.80979 21.3107 3.10526C21.3989 3.40074 21.4871 3.54848 21.5753 3.54848C21.6536 3.54848 21.6928 3.50693 21.6928 3.42382C21.6928 3.37766 21.6879 3.34072 21.6781 3.31302C21.639 2.98061 21.6194 2.57433 21.6194 2.09418C21.6194 1.95568 21.6292 1.78024 21.6488 1.56787C21.6683 1.35549 21.6781 1.22622 21.6781 1.18006C21.6781 1.06002 21.6292 1 21.5312 1C21.4626 1 21.4185 1.04155 21.3989 1.12465C21.3499 1.36473 21.2519 1.48477 21.105 1.48477C21.0266 1.48477 20.8943 1.44783 20.7082 1.37396C20.1497 1.15235 19.6255 1.04155 19.1356 1.04155C18.2244 1.04155 17.47 1.3024 16.8723 1.8241C16.2747 2.3458 15.9759 3.0037 15.9759 3.79779C15.9759 4.47184 16.1522 5.05356 16.5049 5.54294C16.887 6.07849 17.6121 6.61404 18.68 7.14959C19.6402 7.63897 20.2085 7.96676 20.3848 8.13297C20.62 8.36381 20.7376 8.67313 20.7376 9.06094C20.7376 9.51339 20.5563 9.89659 20.1938 10.2105C19.8313 10.5245 19.3855 10.6814 18.8564 10.6814C18.2587 10.6814 17.7003 10.4783 17.181 10.072C16.7009 9.69345 16.3923 9.16251 16.2551 8.47923C16.1767 8.08218 16.0885 7.88366 15.9906 7.88366C15.8926 7.88366 15.8436 7.95753 15.8436 8.10527C15.8436 8.16067 15.8534 8.34534 15.873 8.65928C15.8828 8.81625 15.8877 9.02863 15.8877 9.2964C15.8877 9.62881 15.8681 9.91967 15.8289 10.169C15.7799 10.4737 15.7554 10.6861 15.7554 10.8061C15.7554 10.9354 15.7946 11 15.873 11ZM24.8526 10.903C25.1563 10.903 25.4062 10.8107 25.6021 10.626C25.7981 10.4414 25.8961 10.2059 25.8961 9.91967C25.8961 9.63343 25.7932 9.39335 25.5874 9.19945C25.3817 9.00554 25.1367 8.90859 24.8526 8.90859C24.5489 8.90859 24.2941 9.00554 24.0884 9.19945C23.8826 9.39335 23.7798 9.63343 23.7798 9.91967C23.7798 10.1967 23.8826 10.4298 24.0884 10.6191C24.2941 10.8084 24.5489 10.903 24.8526 10.903ZM31.0693 10.9446C31.8335 10.9446 32.4361 10.566 32.877 9.80887C32.9358 10.2151 33.0558 10.4968 33.237 10.6537C33.4183 10.8107 33.7098 10.8892 34.1115 10.8892C34.7287 10.8892 35.248 10.7091 35.6693 10.349C35.8261 10.2198 35.9045 10.1182 35.9045 10.0443C35.9045 9.99816 35.88 9.97507 35.831 9.97507C35.8016 9.97507 35.7624 9.99816 35.7134 10.0443C35.4685 10.2659 35.2627 10.3767 35.0962 10.3767C34.861 10.3767 34.7189 10.1828 34.67 9.79502C34.663 9.74225 34.6585 9.59056 34.6565 9.33993L34.6553 6.62327C34.6553 5.91228 34.4936 5.41367 34.1703 5.12742C33.7686 4.78578 33.0582 4.61496 32.0393 4.61496C31.3534 4.61496 30.7998 4.77655 30.3785 5.09972C29.9572 5.4229 29.7466 5.78301 29.7466 6.18006C29.7466 6.42936 29.8372 6.63481 30.0185 6.7964C30.1997 6.95799 30.4324 7.03878 30.7166 7.03878C30.9419 7.03878 31.1256 6.97184 31.2677 6.83795C31.4098 6.70407 31.4808 6.53555 31.4808 6.33241C31.4808 5.95383 31.3044 5.75069 30.9517 5.72299C30.7166 5.70453 30.599 5.64912 30.599 5.55679C30.599 5.39058 30.697 5.21976 30.8929 5.04432C31.0889 4.86888 31.3485 4.78117 31.6718 4.78117C32.2303 4.78117 32.5781 5.012 32.7153 5.47368L32.73 5.54294C32.7986 5.75531 32.8329 6.32318 32.8329 7.24654V7.5374C30.7166 7.74977 29.6584 8.43768 29.6584 9.60111C29.6584 9.99816 29.7882 10.3213 30.0479 10.5706C30.3075 10.8199 30.648 10.9446 31.0693 10.9446ZM32.1127 10.2105C31.6425 10.2105 31.4073 9.88735 31.4073 9.241C31.4073 8.40074 31.8825 7.89289 32.8329 7.71745V8.39612C32.8329 9.05171 32.779 9.51801 32.6712 9.79502C32.5634 10.072 32.3773 10.2105 32.1127 10.2105ZM35.9644 10.7928L36.0808 10.7922L36.5217 10.7784C37.1096 10.7599 37.5113 10.7507 37.7269 10.7507C37.9522 10.7507 38.1824 10.7553 38.4176 10.7645C38.8781 10.783 39.1524 10.7922 39.2406 10.7922C39.6129 10.7922 39.7991 10.7553 39.7991 10.6814C39.7991 10.6076 39.7354 10.5706 39.608 10.5706L39.1671 10.5845C38.9614 10.5937 38.8413 10.5452 38.8071 10.4391C38.7728 10.3329 38.7556 9.96584 38.7556 9.33795L38.7568 3.67765C38.7569 3.57307 38.7571 3.47153 38.7572 3.37304L38.7583 2.81864C38.7585 2.73234 38.7587 2.64908 38.7589 2.56887L38.7604 2.12414C38.7628 1.5119 38.7661 1.14642 38.7703 1.0277C38.0747 1.30471 37.1782 1.46168 36.0808 1.49861C35.8261 1.50785 35.6987 1.5494 35.6987 1.62327C35.6987 1.68791 35.8212 1.72022 36.0661 1.72022C36.3993 1.72022 36.6001 1.75023 36.6687 1.81025C36.7373 1.87027 36.7716 2.05725 36.7716 2.37119V9.67036C36.7716 10.1505 36.7446 10.4275 36.6907 10.5014C36.6369 10.5753 36.4384 10.6076 36.0955 10.5983C35.8702 10.5891 35.7575 10.6214 35.7575 10.6953C35.7575 10.7692 35.8653 10.8015 36.0808 10.7922L35.9644 10.7928ZM50.6966 3.85924C50.6819 3.78134 50.6452 3.74238 50.5864 3.74238C50.508 3.74238 50.459 3.8024 50.4394 3.92244C50.3219 4.7627 50.1479 5.27516 49.9177 5.45984C49.6874 5.64451 49.1118 5.73684 48.1908 5.73684H47.7646V1.49861C48.2741 1.47091 48.7248 1.45707 49.1167 1.45707C49.9691 1.45707 50.5619 1.53093 50.895 1.67867C51.4535 1.92798 51.8307 2.42198 52.0267 3.16066C52.0952 3.42844 52.1418 3.58541 52.1663 3.63158C52.1908 3.67775 52.2324 3.70083 52.2912 3.70083C52.3598 3.70083 52.3941 3.6639 52.3941 3.59003C52.3941 3.53463 52.3892 3.47923 52.3794 3.42382C52.301 2.99908 52.2226 2.23269 52.1442 1.12465C51.8307 1.15235 51.5956 1.1662 51.4388 1.1662L50.4247 1.15236C49.8075 1.14312 49.053 1.14312 48.1614 1.15236C47.5638 1.15236 46.873 1.16159 46.0892 1.18006C45.5406 1.18724 45.1934 1.19163 45.0478 1.19322L44.693 1.19391C44.4971 1.19391 44.3991 1.24007 44.3991 1.33241C44.3991 1.39704 44.5387 1.4386 44.818 1.45707C45.0972 1.47553 45.2834 1.50785 45.3764 1.55402C45.4695 1.60019 45.5259 1.6879 45.5455 1.81717L45.5601 9.85042C45.5601 10.0351 45.5406 10.1644 45.5014 10.2382C45.4524 10.4229 45.1976 10.5245 44.7371 10.5429C44.4236 10.5522 44.2668 10.5983 44.2668 10.6814C44.2668 10.7645 44.3256 10.8061 44.4432 10.8061C44.5216 10.8061 44.5902 10.8015 44.649 10.7922C45.0605 10.7645 45.5357 10.7507 46.0745 10.7507C46.8388 10.7507 47.5246 10.7599 48.1321 10.7784C48.4358 10.7876 48.6954 10.7922 48.911 10.7922C49.0971 10.7922 49.1902 10.7507 49.1902 10.6676C49.1902 10.5937 49.102 10.5568 48.9257 10.5568C48.3476 10.5568 48.0096 10.506 47.9116 10.4044C47.8136 10.3029 47.7646 9.9566 47.7646 9.36565V6.01385C48.1174 6.00462 48.5436 6 49.0432 6C49.4156 6 49.6752 6.05079 49.8222 6.15235C50.1259 6.35549 50.3023 6.79409 50.3512 7.46815C50.3708 7.76362 50.4443 7.91136 50.5717 7.91136C50.6599 7.91136 50.704 7.83749 50.704 7.68975C50.704 7.54201 50.6991 7.36427 50.6893 7.15651C50.6823 7.00811 50.6778 6.74783 50.6758 6.37566L50.6752 4.7554C50.6767 4.47987 50.6814 4.27378 50.6893 4.13712C50.6991 3.9663 50.704 3.90397 50.704 3.95014L50.6966 3.85924ZM54.7161 2.85596C54.9807 2.85596 55.206 2.76362 55.3922 2.57895C55.5783 2.39428 55.6714 2.17267 55.6714 1.91413C55.6714 1.66482 55.5832 1.45706 55.4069 1.29086C55.2305 1.12465 55.0101 1.04155 54.7455 1.04155C54.4516 1.04155 54.2116 1.12465 54.0254 1.29086C53.8392 1.45706 53.7462 1.66944 53.7462 1.92798C53.7462 2.19575 53.8392 2.41736 54.0254 2.5928C54.2116 2.76824 54.4418 2.85596 54.7161 2.85596ZM53.0113 10.8061C53.0995 10.7969 53.173 10.7922 53.2318 10.7922L54.6427 10.7645L56.5973 10.7922C56.6855 10.7922 56.7296 10.7599 56.7296 10.6953C56.7296 10.6307 56.6757 10.5983 56.5679 10.5983C56.1368 10.5983 55.8845 10.566 55.811 10.5014C55.7376 10.4368 55.7008 10.2151 55.7008 9.83657V7.23269L55.6861 5.47368C55.6567 4.97507 55.6322 4.67036 55.6126 4.55956C54.8484 4.86427 53.9274 5.02124 52.8497 5.03047C52.7027 5.03047 52.6292 5.06279 52.6292 5.12742C52.6292 5.18282 52.6464 5.21515 52.6807 5.22438C52.715 5.23361 52.835 5.23823 53.0407 5.23823C53.3641 5.23823 53.5576 5.27286 53.6212 5.34211C53.6849 5.41136 53.7168 5.62142 53.7168 5.9723V9.94737C53.7168 10.2521 53.6874 10.4344 53.6286 10.4945C53.5698 10.5545 53.3739 10.5891 53.0407 10.5983C52.8154 10.6076 52.7027 10.6399 52.7027 10.6953C52.7027 10.7692 52.7615 10.8061 52.8791 10.8061H53.0113ZM57.1558 10.8199C57.7143 10.8199 58.2629 10.8107 58.8018 10.7922C59.0761 10.783 59.424 10.7784 59.8453 10.7784C60.2666 10.7784 60.5115 10.7738 60.5801 10.7645C60.6487 10.7553 60.683 10.723 60.683 10.6676C60.683 10.6122 60.6438 10.5845 60.5654 10.5845C60.3107 10.5753 60.1514 10.5545 60.0878 10.5222C60.0241 10.4898 59.9824 10.4183 59.9628 10.3075L59.9481 6.1108C59.9481 5.84303 60.0461 5.62142 60.2421 5.44598C60.438 5.27055 60.6879 5.18283 60.9916 5.18283C61.2953 5.18283 61.506 5.26593 61.6236 5.43213C61.7607 5.62604 61.8293 6.21699 61.8293 7.20499V9.87812C61.8293 10.229 61.8073 10.4344 61.7632 10.4945C61.7191 10.5545 61.5697 10.5845 61.3149 10.5845H61.1974C61.0798 10.5845 61.021 10.6168 61.021 10.6814C61.021 10.7553 61.0896 10.7922 61.2267 10.7922L62.4907 10.7784H62.9609C63.4116 10.7784 63.7546 10.783 63.9897 10.7922C64.2249 10.8015 64.3522 10.8061 64.3718 10.8061C64.6168 10.8061 64.7392 10.7692 64.7392 10.6953C64.7392 10.6214 64.6045 10.5845 64.3351 10.5845C64.0656 10.5845 63.9064 10.5591 63.8574 10.5083C63.8085 10.4575 63.784 10.289 63.784 10.0028V7.99446C63.784 7.0988 63.7717 6.50785 63.7472 6.22161C63.7227 5.93536 63.6566 5.67682 63.5488 5.44598C63.2941 4.89197 62.7454 4.61496 61.9028 4.61496C61.0896 4.61496 60.4233 4.93352 59.9041 5.57064C59.9139 5.4506 59.9187 5.18744 59.9187 4.78117C59.9187 4.63343 59.8796 4.55956 59.8012 4.55956C59.7718 4.55956 59.7179 4.57803 59.6395 4.61496C58.9831 5.00277 58.1062 5.21976 57.0088 5.26593C56.8912 5.27516 56.8325 5.3121 56.8325 5.37673C56.8325 5.44137 56.9108 5.47368 57.0676 5.47368H57.2293C57.3272 5.46445 57.4399 5.45984 57.5673 5.45984C57.8024 5.45984 57.9347 5.52909 57.9641 5.66759C57.9837 5.70453 57.9935 6.17082 57.9935 7.06648V10.2521L57.9494 10.446C57.9004 10.5568 57.7265 10.6122 57.4277 10.6122C57.1288 10.6122 56.9794 10.6491 56.9794 10.723C56.9794 10.7876 57.0382 10.8199 57.1558 10.8199ZM68.4722 10.9585C69.354 10.9585 70.0692 10.603 70.6179 9.89197C70.8726 9.55956 71 9.29178 71 9.08864C71 9.03324 70.9804 9.00554 70.9412 9.00554C70.8922 9.00554 70.8285 9.09326 70.7502 9.2687C70.5836 9.61958 70.3411 9.90582 70.0227 10.1274C69.7042 10.349 69.3736 10.4598 69.0307 10.4598C68.6192 10.4598 68.2713 10.3259 67.9872 10.0582C67.5071 9.60573 67.2671 8.83934 67.2671 7.759C67.2671 7.52816 67.2818 7.24654 67.3111 6.91413C67.6835 6.89566 67.9921 6.88643 68.237 6.88643C69.8243 6.8772 70.7306 6.86334 70.9559 6.84488C70.9363 6.61404 70.9069 6.41551 70.8677 6.24931C70.7208 5.71376 70.4023 5.30286 69.9124 5.01662C69.4715 4.75808 68.9376 4.62881 68.3105 4.62881C67.3895 4.62881 66.6204 4.93121 66.0032 5.53601C65.3859 6.14081 65.0773 6.89566 65.0773 7.80056C65.0773 8.72392 65.3957 9.48107 66.0325 10.072C66.6694 10.663 67.4826 10.9585 68.4722 10.9585ZM69.1482 6.67867C69.0013 6.66944 68.8298 6.66482 68.6338 6.66482C67.9774 6.66482 67.5463 6.66944 67.3405 6.67867C67.4287 5.41367 67.7716 4.78117 68.3693 4.78117C68.6632 4.78117 68.869 4.91967 68.9866 5.19668C69.1041 5.47368 69.158 5.96768 69.1482 6.67867Z" fill="#006FD5"/>
</g>
</svg>
