<svg width="29" height="40" viewBox="0 0 29 40" fill="none" xmlns="http://www.w3.org/2000/svg">
<g id="&#231;&#172;&#166;&#229;&#143;&#183;/&#230;&#174;&#181;&#232;&#144;&#189;&#229;&#143;&#141;&#229;&#164;&#141;&#232;&#174;&#176;&#229;&#143;&#183;3/hover">
<path id="9" d="M3.92 27.32C5 27.32 5.84 26.48 5.84 25.4C5.84 24.296 4.952 23.48 3.92 23.48C2.888 23.48 2 24.344 2 25.4C2 26.432 2.816 27.32 3.92 27.32ZM3.92 16.52C5 16.52 5.84 15.68 5.84 14.6C5.84 13.496 4.952 12.68 3.92 12.68C2.888 12.68 2 13.544 2 14.6C2 15.632 2.816 16.52 3.92 16.52ZM9.944 38C10.016 38 10.04 37.952 10.04 37.88V2.12C10.04 2.048 10.016 2.024 9.944 2H8.936C8.888 2 8.864 2.048 8.84 2.12V37.88C8.84 37.952 8.864 38 8.936 38H9.944ZM16.448 38C16.52 38 16.568 37.952 16.568 37.88V2.12C16.568 2.048 16.52 2.024 16.448 2H12.536C12.464 2 12.44 2.048 12.416 2.12V37.88C12.416 37.952 12.464 38 12.536 38H16.448ZM25.064 27.32C26.144 27.32 26.984 26.48 26.984 25.4C26.984 24.296 26.096 23.48 25.064 23.48C24.032 23.48 23.144 24.344 23.144 25.4C23.144 26.432 23.96 27.32 25.064 27.32ZM25.064 16.52C26.144 16.52 26.984 15.68 26.984 14.6C26.984 13.496 26.096 12.68 25.064 12.68C24.032 12.68 23.144 13.544 23.144 14.6C23.144 15.632 23.96 16.52 25.064 16.52ZM20.048 38C20.12 38 20.144 37.952 20.144 37.88V2.12C20.12 2.048 20.096 2 20.048 2H19.04C18.968 2.024 18.944 2.048 18.944 2.12V37.88C18.944 37.952 18.968 38 19.04 38H20.048Z" fill="#006FD5"/>
</g>
</svg>
