<svg width="19" height="40" viewBox="0 0 19 40" fill="none" xmlns="http://www.w3.org/2000/svg">
<g id="&#231;&#172;&#166;&#229;&#143;&#183;/&#230;&#174;&#181;&#232;&#144;&#189;&#229;&#143;&#141;&#229;&#164;&#141;&#232;&#174;&#176;&#229;&#143;&#183;2/hover">
<path id="&#229;&#189;&#162;&#231;&#138;&#182;&#231;&#187;&#147;&#229;&#144;&#136;&#229;&#164;&#135;&#228;&#187;&#189;" d="M9.944 38C10.016 38 10.04 37.952 10.04 37.88V2.12C10.04 2.048 10.016 2.024 9.944 2H8.936C8.888 2 8.864 2.048 8.84 2.12V37.88C8.84 37.952 8.864 38 8.936 38H9.944ZM16.448 38C16.52 38 16.568 37.952 16.568 37.88V2.12C16.568 2.048 16.52 2.024 16.448 2H12.536C12.464 2 12.44 2.048 12.416 2.12V37.88C12.416 37.952 12.464 38 12.536 38H16.448ZM3.92 16.52C5 16.52 5.84 15.68 5.84 14.6C5.84 13.496 4.952 12.68 3.92 12.68C2.888 12.68 2 13.544 2 14.6C2 15.632 2.816 16.52 3.92 16.52ZM3.92 27.32C5 27.32 5.84 26.48 5.84 25.4C5.84 24.296 4.952 23.48 3.92 23.48C2.888 23.48 2 24.344 2 25.4C2 26.432 2.816 27.32 3.92 27.32Z" fill="#EA3323"/>
</g>
</svg>
