<svg width="12" height="40" viewBox="0 0 12 40" fill="none" xmlns="http://www.w3.org/2000/svg">
<g id="&#231;&#172;&#166;&#229;&#143;&#183;/&#231;&#187;&#136;&#230;&#173;&#162;&#231;&#186;&#191;/hover">
<path id="+" d="M3.104 38C3.176 38 3.2 37.952 3.2 37.88V2.12C3.2 2.048 3.176 2.024 3.104 2H2.096C2.048 2 2.024 2.048 2 2.12V37.88C2 37.952 2.024 38 2.096 38H3.104ZM9.608 38C9.68 38 9.728 37.952 9.728 37.88V2.12C9.728 2.048 9.68 2.024 9.608 2H5.696C5.624 2 5.6 2.048 5.576 2.12V37.88C5.576 37.952 5.624 38 5.696 38H9.608Z" fill="#EA3323"/>
</g>
</svg>
