<svg width="9" height="40" viewBox="0 0 9 40" fill="none" xmlns="http://www.w3.org/2000/svg">
<g id="&#229;&#143;&#141;&#229;&#164;&#141;&#232;&#174;&#176;&#229;&#143;&#183;/&#229;&#143;&#140;&#229;&#176;&#143;&#232;&#138;&#130;&#231;&#186;&#191;">
<path id="&#229;&#189;&#162;&#231;&#138;&#182;&#231;&#187;&#147;&#229;&#144;&#136;" d="M3.104 2C3.176 2.024 3.2 2.048 3.2 2.12V37.88C3.2 37.952 3.176 38 3.104 38H2.096C2.024 38 2 37.952 2 37.88V2.12C2.024 2.048 2.048 2 2.096 2H3.104ZM6.104 2C6.176 2.024 6.2 2.048 6.2 2.12V37.88C6.2 37.952 6.176 38 6.104 38H5.096C5.024 38 5 37.952 5 37.88V2.12C5.024 2.048 5.048 2 5.096 2H6.104Z" fill="#333333"/>
</g>
</svg>
