<svg width="21" height="21" viewBox="0 0 21 21" fill="none" xmlns="http://www.w3.org/2000/svg">
<g id="yinfuSVG-_15">
<path id="&#229;&#189;&#162;&#231;&#138;&#182;" d="M19.7517 9.71528H16.8617C16.7387 5.71849 13.9102 2.52105 10.3438 2.33659V0.307446C10.3438 0.122978 10.2209 0 10.0364 0C9.85193 0 9.72895 0.122978 9.72895 0.307446V2.33659C6.16259 2.52105 3.33408 5.71849 3.21111 9.71528H0.321117C0.13665 9.71528 0.0136719 9.83826 0.0136719 10.0227C0.0136719 10.2072 0.13665 10.3302 0.321117 10.3302H3.21111C3.33408 14.327 6.16259 17.5244 9.72895 17.7089V19.738C9.72895 19.9225 9.85193 20.0455 10.0364 20.0455C10.2209 20.0455 10.3438 19.9225 10.3438 19.738V17.7089C13.9102 17.5244 16.7387 14.327 16.8617 10.3302H19.7517C19.9361 10.3302 20.0591 10.2072 20.0591 10.0227C20.0591 9.83826 19.9361 9.71528 19.7517 9.71528ZM14.2177 9.71528H10.3438V3.19743C12.4345 3.3819 14.0947 6.2104 14.2177 9.71528ZM9.72895 3.19743V9.71528H5.97812C6.03961 6.27189 7.69981 3.44339 9.72895 3.19743ZM5.97812 10.3302H9.72895V16.7865C7.69981 16.5406 6.1011 13.7736 5.97812 10.3302ZM10.3438 16.848V10.3917H14.1562C14.0947 13.8351 12.4345 16.6021 10.3438 16.848Z" fill="#006FD5"/>
</g>
</svg>
