<svg width="44" height="20" viewBox="0 0 44 20" fill="none" xmlns="http://www.w3.org/2000/svg">
<g id="Frame 200">
<path id="toCoda" d="M3.53987 14.8972C4.33128 14.8972 4.95244 14.6809 5.40336 14.2484C5.5782 14.0828 5.66563 13.9494 5.66563 13.8481C5.66563 13.8021 5.65182 13.7791 5.62422 13.7791C5.58741 13.7791 5.49538 13.8435 5.34814 13.9724C5.04446 14.2484 4.796 14.3865 4.60275 14.3865C4.17023 14.3865 3.91257 14.1196 3.82974 13.5859C3.77392 13.219 3.74228 12.0849 3.73484 10.1835L3.73312 8.96164C3.82514 8.97084 3.88956 8.97544 3.92637 8.97544L4.37269 8.97391C4.66103 8.97187 4.93097 8.96778 5.1825 8.96164C5.30213 8.96164 5.36195 8.89722 5.36195 8.76839C5.36195 8.71318 5.34354 8.68557 5.30673 8.68557C5.28833 8.68557 5.26992 8.69017 5.25152 8.69937C5.09508 8.73618 4.8236 8.75459 4.4371 8.75459C4.0598 8.75459 3.83434 8.71778 3.76073 8.64416C3.68711 8.57054 3.6549 8.13802 3.6641 7.34662C3.6641 7.21778 3.63649 7.15337 3.58128 7.15337C3.53527 7.15337 3.47085 7.21778 3.38803 7.34662C2.76226 8.25766 2.01687 8.72698 1.15184 8.75459C1.05061 8.77299 1 8.8098 1 8.86502C1 8.93863 1.13804 8.97544 1.41411 8.97544C1.64417 8.97544 1.78221 8.98925 1.82822 9.01686C1.87423 9.04446 1.89724 9.14109 1.89724 9.30673L1.91104 10.3006L1.9119 11.561C1.91363 11.5973 1.91794 11.6879 1.92484 11.8328L1.92542 13.2803C1.92734 13.642 1.93405 13.8727 1.94555 13.9724C1.95935 14.092 2.01227 14.2208 2.10429 14.3589C2.33435 14.7178 2.81288 14.8972 3.53987 14.8972ZM8.77144 14.911C9.49843 14.911 10.1656 14.6717 10.773 14.1932C11.546 13.5859 11.9325 12.7898 11.9325 11.8052C11.9325 10.9218 11.6265 10.1649 11.0145 9.53449C10.4026 8.90413 9.66868 8.58894 8.81285 8.58894C7.92022 8.58894 7.15872 8.89952 6.52835 9.52069C5.89799 10.1419 5.5828 10.8941 5.5828 11.7776C5.5828 12.6242 5.89799 13.3581 6.52835 13.9793C7.15872 14.6004 7.90641 14.911 8.77144 14.911ZM8.79905 14.7178C8.44936 14.7178 8.17789 14.5153 7.98464 14.1104C7.74537 13.6043 7.62574 12.7484 7.62574 11.5429C7.62574 10.6779 7.72697 9.99921 7.92942 9.50688C8.13187 9.01455 8.41255 8.76839 8.77144 8.76839C9.15794 8.76839 9.43862 9.00305 9.61346 9.47238C9.7699 9.89569 9.84813 10.6779 9.84813 11.819C9.84813 12.7484 9.78371 13.457 9.65487 13.9447C9.51684 14.4601 9.23156 14.7178 8.79905 14.7178ZM19.4416 14.9248C20.2331 14.9248 20.9738 14.6303 21.664 14.0414C21.8941 14.1426 22.1103 14.3589 22.3128 14.6901C22.368 14.7822 22.4186 14.8282 22.4646 14.8282C22.5107 14.8282 22.5337 14.7776 22.5337 14.6763C22.5337 14.5843 22.5291 14.5061 22.5199 14.4417C22.5107 14.2576 22.5061 14.0276 22.5061 13.7515C22.5061 13.5306 22.5245 13.2178 22.5613 12.8129C22.6073 12.2791 22.6303 11.9892 22.6303 11.9432L22.6441 11.7086C22.6533 11.5889 22.6119 11.5291 22.5199 11.5291C22.437 11.5291 22.3634 11.6718 22.299 11.957C21.8941 13.6871 21.0429 14.5521 19.7453 14.5521C19.1472 14.5521 18.664 14.3405 18.2959 13.9171C17.5966 13.1165 17.2469 11.8558 17.2469 10.1349C17.2469 8.97544 17.3941 7.98158 17.6886 7.15337C18.1119 5.93865 18.7929 5.33129 19.7315 5.33129C20.9186 5.33129 21.6778 6.1595 22.0091 7.81594C22.0827 8.17483 22.1564 8.35428 22.23 8.35428C22.322 8.35428 22.368 8.27146 22.368 8.10582V7.15337C22.3588 6.82208 22.3542 6.63343 22.3542 6.58742C22.3542 6.1273 22.3818 5.74079 22.437 5.42791C22.4462 5.3727 22.4508 5.33129 22.4508 5.30368C22.4508 5.23926 22.4324 5.20705 22.3956 5.20705C22.368 5.20705 22.2944 5.27147 22.1748 5.40031C22.0091 5.57515 21.8297 5.66257 21.6364 5.66257C21.5076 5.66257 21.3051 5.58435 21.0291 5.42791C20.5505 5.15184 20.0076 5.0138 19.4002 5.0138C18.0843 5.0138 16.9869 5.48543 16.1081 6.42868C15.2292 7.37192 14.7898 8.54753 14.7898 9.9555C14.7898 11.4095 15.2776 12.615 16.253 13.5721C17.1732 14.4739 18.2361 14.9248 19.4416 14.9248ZM26.6471 14.911C27.3741 14.911 28.0413 14.6717 28.6487 14.1932C29.4217 13.5859 29.8082 12.7898 29.8082 11.8052C29.8082 10.9218 29.5022 10.1649 28.8902 9.53449C28.2783 8.90413 27.5444 8.58894 26.6886 8.58894C25.7959 8.58894 25.0344 8.89952 24.4041 9.52069C23.7737 10.1419 23.4585 10.8941 23.4585 11.7776C23.4585 12.6242 23.7737 13.3581 24.4041 13.9793C25.0344 14.6004 25.7821 14.911 26.6471 14.911ZM26.6747 14.7178C26.3251 14.7178 26.0536 14.5153 25.8603 14.1104C25.6211 13.6043 25.5014 12.7484 25.5014 11.5429C25.5014 10.6779 25.6027 9.99921 25.8051 9.50688C26.0076 9.01455 26.2882 8.76839 26.6471 8.76839C27.0336 8.76839 27.3143 9.00305 27.4892 9.47238C27.6456 9.89569 27.7238 10.6779 27.7238 11.819C27.7238 12.7484 27.6594 13.457 27.5306 13.9447C27.3925 14.4601 27.1073 14.7178 26.6747 14.7178ZM34.9017 14.911C34.9109 14.911 34.9431 14.9018 34.9983 14.8834C35.4953 14.6533 35.9692 14.5429 36.4201 14.5521L37.0413 14.5659C37.2253 14.5659 37.3173 14.5337 37.3173 14.4693C37.3173 14.3865 37.2483 14.3497 37.1103 14.3589C36.8526 14.3681 36.6916 14.3313 36.6272 14.2484C36.5812 14.1932 36.5581 14.0874 36.5581 13.9309V7.34662L36.5443 6.02147L36.5305 5.33129C36.5305 5.11043 36.4799 5 36.3787 5C36.3327 5 36.2545 5.0184 36.144 5.05521C35.3802 5.30368 34.5796 5.42791 33.7422 5.42791C33.6318 5.42791 33.5766 5.46012 33.5766 5.52454C33.5766 5.58895 33.6962 5.62116 33.9355 5.62116C34.3496 5.61196 34.5934 5.68328 34.667 5.83512C34.7407 5.98696 34.7775 6.47699 34.7775 7.30521V9.23771C34.4186 8.8144 33.9539 8.60275 33.3833 8.60275C32.5091 8.60275 31.8051 8.89032 31.2714 9.46547C30.7376 10.0406 30.4707 10.7975 30.4707 11.7362C30.4707 12.6564 30.733 13.4156 31.2576 14.0138C31.7821 14.6119 32.4493 14.911 33.2591 14.911C33.8664 14.911 34.3542 14.7132 34.7223 14.3174C34.7499 14.4647 34.7637 14.5797 34.7637 14.6625C34.7729 14.8282 34.8189 14.911 34.9017 14.911ZM33.7836 14.5935C33.3787 14.5935 33.0635 14.3543 32.8381 13.8757C32.6126 13.3972 32.4999 12.7208 32.4999 11.8466C32.4999 9.88648 32.9416 8.90643 33.825 8.90643C34.1379 8.90643 34.3818 9.03526 34.5566 9.29293C34.6947 9.49538 34.7637 9.80366 34.7637 10.2178V13.227C34.7637 13.7055 34.6601 14.0529 34.4531 14.2691C34.246 14.4854 34.0229 14.5935 33.7836 14.5935ZM39.2222 14.8972C39.94 14.8972 40.506 14.5199 40.9201 13.7653C40.9753 14.1702 41.088 14.4509 41.2583 14.6073C41.4285 14.7638 41.7023 14.842 42.0796 14.842C42.6593 14.842 43.1471 14.6625 43.5428 14.3036C43.69 14.1748 43.7636 14.0736 43.7636 14C43.7636 13.954 43.7406 13.9309 43.6946 13.9309C43.667 13.9309 43.6302 13.954 43.5842 14C43.3541 14.2208 43.1609 14.3313 43.0044 14.3313C42.7836 14.3313 42.6501 14.138 42.6041 13.7515C42.598 13.7024 42.5939 13.5675 42.5919 13.3466L42.5903 10.5905C42.5903 9.88188 42.4385 9.38495 42.1348 9.09968C41.7575 8.75919 41.0903 8.58894 40.1333 8.58894C39.4891 8.58894 38.9692 8.74999 38.5735 9.07207C38.1778 9.39415 37.9799 9.75305 37.9799 10.1488C37.9799 10.3972 38.065 10.602 38.2353 10.763C38.4055 10.9241 38.6241 11.0046 38.891 11.0046C39.1026 11.0046 39.2752 10.9379 39.4086 10.8044C39.542 10.671 39.6087 10.503 39.6087 10.3006C39.6087 9.92329 39.4431 9.72084 39.1118 9.69323C38.891 9.67483 38.7805 9.61961 38.7805 9.52759C38.7805 9.36195 38.8726 9.1917 39.0566 9.01686C39.2406 8.84201 39.4845 8.75459 39.7882 8.75459C40.3127 8.75459 40.6394 8.98465 40.7682 9.44477L40.7821 9.51379C40.8465 9.72544 40.8787 10.2914 40.8787 11.2116V11.5015C38.891 11.7132 37.8971 12.3987 37.8971 13.5582C37.8971 13.954 38.019 14.276 38.2629 14.5245C38.5068 14.773 38.8265 14.8972 39.2222 14.8972ZM40.2023 14.1656C39.7606 14.1656 39.5397 13.8435 39.5397 13.1994C39.5397 12.3619 39.986 11.8558 40.8787 11.681V12.3573C40.8787 13.0107 40.8281 13.4754 40.7268 13.7515C40.6256 14.0276 40.4508 14.1656 40.2023 14.1656Z" fill="#333333"/>
</g>
</svg>
