<svg width="24" height="23" viewBox="0 0 24 23" fill="none" xmlns="http://www.w3.org/2000/svg">
<g id="yinfuSVG-_15">
<path id="&#229;&#189;&#162;&#231;&#138;&#182;" d="M23.6319 11.0503H20.1718C20.0245 6.50429 16.638 2.86748 12.3681 2.65767V0.349693C12.3681 0.139877 12.2209 0 12 0C11.7791 0 11.6319 0.139877 11.6319 0.349693V2.65767C7.36196 2.86748 3.97546 6.50429 3.82822 11.0503H0.368098C0.147239 11.0503 0 11.1902 0 11.4C0 11.6098 0.147239 11.7497 0.368098 11.7497H3.82822C3.97546 16.2957 7.36196 19.9325 11.6319 20.1423V22.4503C11.6319 22.6601 11.7791 22.8 12 22.8C12.2209 22.8 12.3681 22.6601 12.3681 22.4503V20.1423C16.638 19.9325 20.0245 16.2957 20.1718 11.7497H23.6319C23.8528 11.7497 24 11.6098 24 11.4C24 11.1902 23.8528 11.0503 23.6319 11.0503ZM17.0061 11.0503H12.3681V3.63681C14.8712 3.84663 16.8589 7.0638 17.0061 11.0503ZM11.6319 3.63681V11.0503H7.1411C7.21472 7.13374 9.20245 3.91656 11.6319 3.63681ZM7.1411 11.7497H11.6319V19.0933C9.20245 18.8135 7.28834 15.6663 7.1411 11.7497ZM12.3681 19.1632V11.8196H16.9325C16.8589 15.7362 14.8712 18.8834 12.3681 19.1632Z" fill="#333333"/>
</g>
</svg>
