<svg width="29" height="20" viewBox="0 0 29 20" fill="none" xmlns="http://www.w3.org/2000/svg">
<g id="Frame 201">
<path id="Coda" d="M5.15586 14.4094C5.90617 14.4094 6.60849 14.1302 7.26283 13.5719C7.48095 13.6678 7.68597 13.8729 7.87791 14.1869C7.93026 14.2742 7.97825 14.3178 8.02187 14.3178C8.06549 14.3178 8.0873 14.2698 8.0873 14.1738C8.0873 14.0866 8.08294 14.0124 8.07421 13.9514C8.06549 13.7769 8.06113 13.5588 8.06113 13.297C8.06113 13.0876 8.07858 12.791 8.11348 12.4071C8.1571 11.9011 8.17891 11.6263 8.17891 11.5827L8.192 11.3602C8.20072 11.2468 8.16146 11.1901 8.07421 11.1901C7.99569 11.1901 7.9259 11.3253 7.86483 11.5957C7.48095 13.236 6.67393 14.0561 5.44377 14.0561C4.87667 14.0561 4.41863 13.8554 4.06965 13.4541C3.40659 12.695 3.07506 11.4998 3.07506 9.86829C3.07506 8.769 3.21465 7.82675 3.49383 7.04154C3.89516 5.8899 4.54078 5.31408 5.43068 5.31408C6.55614 5.31408 7.27592 6.09929 7.59 7.66971C7.6598 8.00996 7.7296 8.18009 7.79939 8.18009C7.88664 8.18009 7.93026 8.10157 7.93026 7.94453V7.04154C7.92154 6.72746 7.91718 6.54861 7.91718 6.50498C7.91718 6.06876 7.94335 5.70233 7.99569 5.40569C8.00442 5.35334 8.00878 5.31408 8.00878 5.28791C8.00878 5.22684 7.99133 5.1963 7.95643 5.1963C7.93026 5.1963 7.86046 5.25737 7.74704 5.37952C7.59 5.54528 7.41988 5.62817 7.23666 5.62817C7.11452 5.62817 6.92258 5.55401 6.66084 5.40569C6.20716 5.14396 5.69242 5.01309 5.1166 5.01309C3.86899 5.01309 2.82859 5.46022 1.9954 6.35448C1.1622 7.24875 0.745605 8.36331 0.745605 9.69816C0.745605 11.0766 1.20801 12.2196 2.13281 13.1269C3.00526 13.9819 4.01294 14.4094 5.15586 14.4094ZM11.9872 14.3963C12.6764 14.3963 13.3089 14.1695 13.8848 13.7158C14.6176 13.14 14.984 12.3853 14.984 11.4518C14.984 10.6142 14.694 9.89665 14.1138 9.29902C13.5336 8.70138 12.8378 8.40257 12.0264 8.40257C11.1801 8.40257 10.4582 8.69702 9.86057 9.28593C9.26293 9.87483 8.96412 10.5881 8.96412 11.4256C8.96412 12.2283 9.26293 12.9241 9.86057 13.513C10.4582 14.1019 11.1671 14.3963 11.9872 14.3963ZM12.0133 14.2131C11.6818 14.2131 11.4244 14.0212 11.2412 13.6373C11.0144 13.1574 10.901 12.3461 10.901 11.2031C10.901 10.383 10.9969 9.7396 11.1889 9.27284C11.3808 8.80608 11.6469 8.5727 11.9872 8.5727C12.3536 8.5727 12.6197 8.79517 12.7855 9.24012C12.9338 9.64145 13.0079 10.383 13.0079 11.4649C13.0079 12.3461 12.9469 13.0178 12.8247 13.4802C12.6939 13.9688 12.4234 14.2131 12.0133 14.2131ZM19.8131 14.3963C19.8218 14.3963 19.8523 14.3876 19.9047 14.3702C20.3758 14.152 20.8251 14.0473 21.2526 14.0561L21.8415 14.0692C22.016 14.0692 22.1033 14.0386 22.1033 13.9775C22.1033 13.899 22.0378 13.8641 21.907 13.8729H21.7714C21.6053 13.8659 21.4978 13.831 21.4489 13.7682C21.4053 13.7158 21.3835 13.6155 21.3835 13.4672V7.22476L21.3704 5.96842L21.3573 5.31408C21.3573 5.10469 21.3093 5 21.2134 5C21.1697 5 21.0956 5.01745 20.9909 5.05235C20.2668 5.28791 19.5077 5.40569 18.7138 5.40569C18.6091 5.40569 18.5567 5.43623 18.5567 5.4973C18.5567 5.55837 18.6702 5.58891 18.897 5.58891C19.2896 5.58018 19.5208 5.6478 19.5906 5.79175C19.6604 5.93571 19.6953 6.40029 19.6953 7.1855V9.01765C19.355 8.61632 18.9144 8.41566 18.3735 8.41566C17.5447 8.41566 16.8773 8.6883 16.3713 9.23358C15.8652 9.77886 15.6122 10.4965 15.6122 11.3864C15.6122 12.2588 15.8609 12.9786 16.3582 13.5457C16.8555 14.1128 17.488 14.3963 18.2557 14.3963C18.8316 14.3963 19.294 14.2087 19.6429 13.8336C19.6691 13.9732 19.6822 14.0822 19.6822 14.1608C19.6909 14.3178 19.7346 14.3963 19.8131 14.3963ZM18.753 14.0953C18.3692 14.0953 18.0704 13.8685 17.8566 13.4148C17.6429 12.9611 17.536 12.3199 17.536 11.4911C17.536 9.63273 17.9548 8.70357 18.7923 8.70357C19.0889 8.70357 19.3201 8.82571 19.4859 9.07C19.6168 9.26194 19.6822 9.55421 19.6822 9.94681V12.7997C19.6822 13.2534 19.5841 13.5828 19.3878 13.7878C19.1915 13.9928 18.9799 14.0953 18.753 14.0953ZM23.9092 14.3832C24.5898 14.3832 25.1263 14.0255 25.5189 13.3101C25.5713 13.694 25.6781 13.9601 25.8396 14.1084C26.001 14.2567 26.2605 14.3309 26.6182 14.3309C27.1679 14.3309 27.6303 14.1608 28.0054 13.8205C28.145 13.6984 28.2148 13.6024 28.2148 13.5326C28.2148 13.489 28.193 13.4672 28.1494 13.4672C28.1232 13.4672 28.0883 13.489 28.0447 13.5326C27.8266 13.742 27.6433 13.8467 27.495 13.8467C27.2856 13.8467 27.1591 13.6635 27.1155 13.297C27.1093 13.2472 27.1053 13.1038 27.1035 12.867L27.1024 10.3002C27.1024 9.62837 26.9585 9.15724 26.6706 8.88678C26.3129 8.56397 25.6803 8.40257 24.773 8.40257C24.1623 8.40257 23.6693 8.55525 23.2942 8.86061C22.919 9.16597 22.7314 9.50622 22.7314 9.88138C22.7314 10.1169 22.8121 10.3111 22.9735 10.4637C23.1349 10.6164 23.3422 10.6928 23.5952 10.6928C23.7958 10.6928 23.9594 10.6295 24.0859 10.503C24.2124 10.3765 24.2757 10.2173 24.2757 10.0253C24.2757 9.66763 24.1186 9.47569 23.8046 9.44951C23.5952 9.43206 23.4905 9.37972 23.4905 9.29247C23.4905 9.13543 23.5777 8.97403 23.7522 8.80826C23.9267 8.64249 24.1579 8.55961 24.4458 8.55961C24.9431 8.55961 25.2528 8.77772 25.375 9.21395L25.3881 9.27939C25.4491 9.48005 25.4797 10.0166 25.4797 10.8891V11.1639C23.5952 11.3645 22.6529 12.0145 22.6529 13.1138C22.6529 13.489 22.7685 13.7943 22.9997 14.0299C23.2309 14.2655 23.5341 14.3832 23.9092 14.3832ZM24.8384 13.6896C24.4196 13.6896 24.2102 13.3843 24.2102 12.7736C24.2102 11.9796 24.6334 11.4998 25.4797 11.334V11.9753C25.4797 12.5947 25.4317 13.0353 25.3357 13.297C25.2397 13.5588 25.074 13.6896 24.8384 13.6896Z" fill="#006FD5"/>
</g>
</svg>
