<svg width="16" height="18" viewBox="0 0 16 18" fill="none" xmlns="http://www.w3.org/2000/svg">
<g id="&#229;&#143;&#141;&#229;&#164;&#141;&#232;&#174;&#176;&#229;&#143;&#183;/&#232;&#191;&#148;&#229;&#155;&#158;&#232;&#174;&#176;&#229;&#143;&#183;/hover">
<g id="yinfuSVG-_4">
<path id="&#229;&#189;&#162;&#231;&#138;&#182;" d="M2.26341 11.1759C2.8439 11.1759 3.3561 10.7178 3.3561 10.1288C3.3561 9.5726 2.8439 9.0818 2.26341 9.0818C1.64878 9.0818 1.17073 9.5726 1.17073 10.1288C1.17073 10.6524 1.68293 11.1759 2.26341 11.1759ZM13.7366 6.75869C13.122 6.75869 12.6439 7.24949 12.6439 7.80573C12.6439 8.36196 13.1561 8.85276 13.7366 8.85276C14.3171 8.85276 14.8293 8.39468 14.8293 7.80573C14.8293 7.21677 14.3171 6.75869 13.7366 6.75869ZM9.80976 7.80573L15 1.88344L14.1805 1.29448L8.92195 7.11861C7.48781 6.20245 6.66829 5.67894 6.42927 5.51534C5.37073 4.69734 4.85854 3.97751 4.85854 3.32311C4.85854 2.47239 5.60976 1.9816 6.6 1.9816C7.21463 1.9816 7.45366 2.24335 7.4878 3.02863C7.62439 4.10838 8.10244 4.50102 8.78537 4.50102C9.60488 4.50102 10.1171 3.91207 10.1171 3.12679C10.1171 1.88344 8.4439 1 6.66829 1C4.6878 1 2.57073 2.73415 2.57073 4.69734C2.57073 6.49693 3.86829 8.23108 6.46341 9.96523L1 16.182L1.81951 16.7382L7.28293 10.5215C10.6293 12.7464 11.3805 13.499 11.3805 14.6769C11.3805 15.593 10.561 16.1493 9.60488 16.1493H9.57073C8.71707 16.1493 8.30732 15.9202 8.30732 15.4622C8.30732 15.2658 8.47805 14.6115 8.47805 14.4151C8.47805 13.9243 8 13.3681 7.4878 13.3681C6.77073 13.3681 6.1561 14.0879 6.1561 14.8078C6.1561 16.1493 7.82927 17 9.9122 17C11.8927 17 13.5659 15.1022 13.5659 13.2699C13.6 11.4703 12.6098 9.96524 9.80976 7.80573Z" fill="#006FD5"/>
</g>
</g>
</svg>
