<svg width="27" height="12" viewBox="0 0 27 12" fill="none" xmlns="http://www.w3.org/2000/svg">
<g id="&#229;&#143;&#141;&#229;&#164;&#141;&#232;&#174;&#176;&#229;&#143;&#183;/&#231;&#187;&#147;&#230;&#157;&#159;&#232;&#174;&#176;&#229;&#143;&#183;/&#233;&#187;&#152;&#232;&#174;&#164;">
<path id="Fine" d="M1.16493 10.6894C1.23823 10.6894 1.30236 10.6848 1.35734 10.6756C1.74217 10.6482 2.18655 10.6344 2.69049 10.6344C3.40517 10.6344 4.04655 10.6436 4.61462 10.6619C4.89866 10.6711 5.14147 10.6756 5.34305 10.6756C5.51713 10.6756 5.60418 10.6344 5.60418 10.552C5.60418 10.4787 5.52171 10.442 5.35679 10.442C4.8162 10.442 4.50009 10.3916 4.40847 10.2908C4.31684 10.19 4.27103 9.84644 4.27103 9.26003V5.93403C4.60088 5.92487 4.99945 5.92029 5.46674 5.92029C5.81492 5.92029 6.05772 5.97068 6.19516 6.07147C6.4792 6.27304 6.64413 6.70826 6.68994 7.37713C6.70826 7.67033 6.77698 7.81693 6.8961 7.81693C6.97856 7.81693 7.01979 7.74363 7.01979 7.59703C7.01979 7.45043 7.01521 7.27405 7.00605 7.06789C6.99689 6.86174 6.9923 6.43797 6.9923 5.79659V4.90324C6.9923 4.51842 6.99689 4.24125 7.00605 4.07174C7.01155 3.97004 7.01539 3.90709 7.01759 3.8829L7.01826 3.87704L7.01292 3.79601C7.00376 3.74447 6.98543 3.71011 6.95794 3.69293L6.90984 3.68004C6.83654 3.68004 6.79073 3.7396 6.7724 3.85871C6.66245 4.6925 6.49982 5.20103 6.2845 5.38428C6.06918 5.56753 5.53088 5.65915 4.6696 5.65915H4.27103V1.45355C4.74748 1.42606 5.16896 1.41232 5.53546 1.41232C6.3326 1.41232 6.88694 1.48561 7.19846 1.63222C7.72073 1.8796 8.07348 2.3698 8.25673 3.1028C8.32087 3.36852 8.36439 3.52428 8.3873 3.57009C8.41021 3.61591 8.44915 3.63881 8.50412 3.63881C8.56826 3.63881 8.60033 3.60216 8.60033 3.52886C8.60033 3.47389 8.59575 3.41891 8.58659 3.36394C8.51329 2.94246 8.43999 2.18197 8.36669 1.08246C8.07348 1.10995 7.85358 1.12369 7.70698 1.12369L6.75866 1.10995C6.18142 1.10079 5.4759 1.10079 4.64211 1.10995C4.0832 1.10995 3.43724 1.11911 2.70423 1.13744C2.19113 1.14456 1.86648 1.14892 1.73029 1.1505L1.39857 1.15118C1.21532 1.15118 1.12369 1.19699 1.12369 1.28862C1.12369 1.35276 1.25426 1.39399 1.51539 1.41232C1.77653 1.43064 1.95061 1.46271 2.03766 1.50852C2.1247 1.55433 2.17739 1.64138 2.19571 1.76965L2.20946 9.74107C2.20946 9.92432 2.19113 10.0526 2.15448 10.1259C2.10867 10.3091 1.87044 10.4099 1.4398 10.4283C1.1466 10.4374 1 10.4832 1 10.5657C1 10.6482 1.05498 10.6894 1.16493 10.6894ZM10.7719 2.80044C11.0192 2.80044 11.23 2.70882 11.4041 2.52556C11.5782 2.34231 11.6652 2.12241 11.6652 1.86586C11.6652 1.61847 11.5827 1.41231 11.4178 1.24739C11.2529 1.08246 11.0467 1 10.7993 1C10.5245 1 10.3 1.08246 10.1259 1.24739C9.9518 1.41231 9.86476 1.62305 9.86476 1.8796C9.86476 2.14532 9.9518 2.36522 10.1259 2.53931C10.3 2.71339 10.5153 2.80044 10.7719 2.80044ZM9.17757 10.6894C9.26003 10.6802 9.32875 10.6756 9.38373 10.6756L10.7031 10.6482L12.5311 10.6756C12.6135 10.6756 12.6548 10.6436 12.6548 10.5794C12.6548 10.5153 12.6044 10.4832 12.5036 10.4832C12.1004 10.4832 11.8645 10.4512 11.7958 10.387C11.727 10.3229 11.6927 10.103 11.6927 9.72732V7.14349L11.6789 5.39802C11.6515 4.90324 11.6286 4.60088 11.6102 4.49093C10.8955 4.79329 10.0343 4.94906 9.02639 4.95822C8.88895 4.95822 8.82023 4.99029 8.82023 5.05443C8.82023 5.1094 8.83626 5.14147 8.86833 5.15063C8.9004 5.1598 9.01264 5.16438 9.20506 5.16438C9.50742 5.16438 9.68838 5.19874 9.74794 5.26745C9.80749 5.33617 9.83727 5.54462 9.83727 5.8928V9.83727C9.83727 10.1396 9.80979 10.3206 9.75481 10.3802C9.69984 10.4397 9.51658 10.4741 9.20506 10.4832C8.99432 10.4924 8.88895 10.5245 8.88895 10.5794C8.88895 10.6527 8.94392 10.6894 9.05387 10.6894H9.17757ZM13.0533 10.7031C13.5756 10.7031 14.0887 10.694 14.5926 10.6756C14.8492 10.6665 15.1745 10.6619 15.5684 10.6619C15.9624 10.6619 16.1915 10.6573 16.2556 10.6482C16.3198 10.639 16.3518 10.6069 16.3518 10.552C16.3518 10.497 16.3152 10.4695 16.2419 10.4695C16.0037 10.4603 15.8548 10.4397 15.7952 10.4076C15.7357 10.3756 15.6967 10.3046 15.6784 10.1946L15.6646 6.03024C15.6646 5.76452 15.7563 5.54462 15.9395 5.37053C16.1228 5.19644 16.3564 5.1094 16.6405 5.1094C16.9245 5.1094 17.1215 5.19186 17.2314 5.35679C17.3597 5.5492 17.4239 6.13561 17.4239 7.116V9.76855C17.4239 10.1167 17.4032 10.3206 17.362 10.3802C17.3208 10.4397 17.1811 10.4695 16.9428 10.4695H16.8329C16.7229 10.4695 16.6679 10.5016 16.6679 10.5657C16.6679 10.639 16.7321 10.6756 16.8604 10.6756L18.0423 10.6619H18.4821C18.9036 10.6619 19.2243 10.6665 19.4442 10.6756C19.6641 10.6848 19.7832 10.6894 19.8015 10.6894C20.0306 10.6894 20.1451 10.6527 20.1451 10.5794C20.1451 10.5061 20.0191 10.4695 19.7672 10.4695C19.5152 10.4695 19.3663 10.4443 19.3205 10.3939C19.2747 10.3435 19.2518 10.1763 19.2518 9.89225V7.89939C19.2518 7.01063 19.2403 6.42423 19.2174 6.14019C19.1945 5.85615 19.1327 5.5996 19.0319 5.37053C18.7937 4.82078 18.2806 4.5459 17.4926 4.5459C16.7321 4.5459 16.109 4.86201 15.6234 5.49423C15.6326 5.37512 15.6372 5.11398 15.6372 4.71083C15.6372 4.56423 15.6005 4.49093 15.5272 4.49093C15.4997 4.49093 15.4493 4.50925 15.376 4.5459C14.7621 4.93073 13.9421 5.14605 12.9159 5.19186C12.8059 5.20103 12.751 5.23768 12.751 5.30182C12.751 5.36595 12.8243 5.39802 12.9709 5.39802H13.122C13.2137 5.38886 13.319 5.38428 13.4382 5.38428C13.6581 5.38428 13.7817 5.453 13.8092 5.59044C13.8276 5.62709 13.8367 6.08979 13.8367 6.97856V10.1396L13.7955 10.3321C13.7497 10.442 13.587 10.497 13.3076 10.497C13.0281 10.497 12.8884 10.5336 12.8884 10.6069C12.8884 10.6711 12.9434 10.7031 13.0533 10.7031ZM23.6361 10.8406C24.4607 10.8406 25.1296 10.4878 25.6427 9.7823C25.8809 9.45245 26 9.18673 26 8.98516C26 8.93018 25.9817 8.90269 25.945 8.90269C25.8992 8.90269 25.8397 8.98974 25.7664 9.16383C25.6106 9.512 25.3838 9.79604 25.086 10.0159C24.7883 10.2358 24.479 10.3458 24.1583 10.3458C23.7735 10.3458 23.4482 10.2129 23.1825 9.94722C22.7336 9.49826 22.5091 8.73777 22.5091 7.66575C22.5091 7.43669 22.5228 7.15723 22.5503 6.82738C22.8985 6.80905 23.1871 6.79989 23.4162 6.79989C24.9005 6.79073 25.748 6.77698 25.9588 6.75866C25.9404 6.5296 25.913 6.3326 25.8763 6.16768C25.7389 5.63625 25.4411 5.22851 24.983 4.94448C24.5706 4.68792 24.0713 4.55965 23.4849 4.55965C22.6236 4.55965 21.9043 4.85972 21.3271 5.45987C20.7499 6.06001 20.4612 6.80905 20.4612 7.70698C20.4612 8.62324 20.759 9.37457 21.3546 9.96097C21.9502 10.5474 22.7106 10.8406 23.6361 10.8406ZM24.2683 6.59373C24.1308 6.58457 23.9705 6.57999 23.7872 6.57999C23.1734 6.57999 22.7702 6.58457 22.5778 6.59373C22.6603 5.33846 22.9809 4.71083 23.5399 4.71083C23.8147 4.71083 24.0071 4.84827 24.1171 5.12314C24.227 5.39802 24.2774 5.88822 24.2683 6.59373Z" fill="#333333"/>
</g>
</svg>
