<svg width="72" height="12" viewBox="0 0 72 12" fill="none" xmlns="http://www.w3.org/2000/svg">
<g id="&#229;&#143;&#141;&#229;&#164;&#141;&#232;&#174;&#176;&#229;&#143;&#183;/&#232;&#191;&#148;&#229;&#167;&#139;&#229;&#165;&#143;&#232;&#135;&#179;&#229;&#176;&#190;&#229;&#163;&#176;">
<path id="D.C.alCoda" d="M4.47918 10.8192C5.72398 10.8192 6.65982 10.694 7.2867 10.4437C8.20911 10.0728 8.91211 9.484 9.3957 8.67733C9.86138 7.90774 10.0942 6.99444 10.0942 5.93741C10.0942 4.36115 9.55242 3.13723 8.46882 2.26565C7.60014 1.57024 6.35086 1.22253 4.72097 1.22253C4.32694 1.22253 3.7717 1.2179 3.05527 1.20862C2.55376 1.19935 2.03435 1.19471 1.49703 1.19471H1.25523C1.12985 1.19471 1.06717 1.23644 1.06717 1.31989C1.06717 1.42188 1.16568 1.46824 1.36269 1.45897C1.72987 1.4497 1.95823 1.52851 2.04778 1.69541C2.10152 1.78813 2.12838 2.03848 2.12838 2.44645V9.52573C2.12838 10.0264 2.11047 10.3092 2.07465 10.3741C1.99405 10.5225 1.76121 10.592 1.37613 10.5828C1.12538 10.5735 1 10.6152 1 10.7079C1 10.7821 1.06717 10.8192 1.2015 10.8192L2.04778 10.8053C2.61197 10.796 2.90303 10.7914 2.92094 10.7914H3.40453C3.74483 10.7914 4.00454 10.796 4.18365 10.8053C4.36276 10.8146 4.46127 10.8192 4.47918 10.8192ZM4.9762 10.5688C4.60903 10.5688 4.37171 10.5178 4.26425 10.4159C4.19261 10.3509 4.15678 10.0125 4.15678 9.40056V2.27955C4.15678 1.93648 4.22843 1.71859 4.37171 1.62587C4.47918 1.55169 4.70306 1.5146 5.04337 1.5146C5.98369 1.5146 6.67325 1.86926 7.11207 2.57858C7.55089 3.2879 7.77029 4.40751 7.77029 5.93741C7.77029 9.02504 6.83893 10.5688 4.9762 10.5688ZM12.4047 10.9305C12.6823 10.9305 12.9107 10.8377 13.0898 10.6523C13.2689 10.4669 13.3585 10.2304 13.3585 9.94298C13.3585 9.65554 13.2644 9.41447 13.0764 9.21975C12.8883 9.02504 12.6644 8.92768 12.4047 8.92768C12.1271 8.92768 11.8943 9.02504 11.7062 9.21975C11.5181 9.41447 11.4241 9.65554 11.4241 9.94298C11.4241 10.2211 11.5181 10.4553 11.7062 10.6453C11.8943 10.8354 12.1271 10.9305 12.4047 10.9305ZM19.2019 11C19.972 11 20.693 10.7033 21.3646 10.1099C21.5885 10.2119 21.7989 10.4298 21.996 10.7636C22.0497 10.8563 22.099 10.9026 22.1437 10.9026C22.1885 10.9026 22.2109 10.8516 22.2109 10.7497C22.2109 10.6569 22.2064 10.5781 22.1975 10.5132C22.1885 10.3278 22.184 10.096 22.184 9.8178C22.184 9.59527 22.2019 9.28002 22.2378 8.87205C22.2825 8.33426 22.3049 8.04219 22.3049 7.99583L22.3184 7.75939C22.3273 7.63885 22.287 7.57858 22.1975 7.57858C22.1169 7.57858 22.0452 7.7223 21.9825 8.00974C21.5885 9.7529 20.7601 10.6245 19.4974 10.6245C18.9153 10.6245 18.4451 10.4112 18.0869 9.9847C17.4063 9.17803 17.066 7.90774 17.066 6.17385C17.066 5.00556 17.2093 4.00417 17.4959 3.16968C17.9078 1.94576 18.5705 1.3338 19.484 1.3338C20.6392 1.3338 21.378 2.16829 21.7004 3.83727C21.7721 4.19889 21.8437 4.37969 21.9154 4.37969C22.0049 4.37969 22.0497 4.29624 22.0497 4.12935V3.16968C22.0407 2.83588 22.0363 2.6458 22.0363 2.59944C22.0363 2.13584 22.0631 1.74641 22.1169 1.43115C22.1258 1.37552 22.1303 1.3338 22.1303 1.30598C22.1303 1.24108 22.1124 1.20862 22.0766 1.20862C22.0497 1.20862 21.9781 1.27353 21.8616 1.40334C21.7004 1.57951 21.5258 1.66759 21.3377 1.66759C21.2124 1.66759 21.0154 1.58878 20.7467 1.43115C20.281 1.15299 19.7526 1.01391 19.1616 1.01391C17.881 1.01391 16.813 1.4891 15.9578 2.4395C15.1025 3.38989 14.6749 4.57441 14.6749 5.99305C14.6749 7.45804 15.1496 8.67269 16.0988 9.637C16.9944 10.5457 18.0287 11 19.2019 11ZM24.6826 10.9305C24.9602 10.9305 25.1886 10.8377 25.3677 10.6523C25.5468 10.4669 25.6363 10.2304 25.6363 9.94298C25.6363 9.65554 25.5423 9.41447 25.3542 9.21975C25.1662 9.02504 24.9423 8.92768 24.6826 8.92768C24.405 8.92768 24.1721 9.02504 23.9841 9.21975C23.796 9.41447 23.702 9.65554 23.702 9.94298C23.702 10.2211 23.796 10.4553 23.9841 10.6453C24.1721 10.8354 24.405 10.9305 24.6826 10.9305ZM30.3648 10.9722C31.0633 10.9722 31.6141 10.592 32.0171 9.83171C32.0708 10.2397 32.1805 10.5225 32.3462 10.6801C32.5119 10.8377 32.7783 10.9166 33.1455 10.9166C33.7096 10.9166 34.1843 10.7357 34.5694 10.3741C34.7127 10.2443 34.7843 10.1423 34.7843 10.0682C34.7843 10.0218 34.7619 9.99861 34.7171 9.99861C34.6903 9.99861 34.6544 10.0218 34.6097 10.0682C34.3858 10.2907 34.1977 10.4019 34.0455 10.4019C33.8305 10.4019 33.7007 10.2072 33.6559 9.8178C33.6495 9.76482 33.6454 9.61249 33.6436 9.36082L33.6425 6.63282C33.6425 5.91887 33.4947 5.41817 33.1992 5.13074C32.832 4.78767 32.1828 4.61613 31.2514 4.61613C30.6245 4.61613 30.1185 4.77839 29.7334 5.10292C29.3484 5.42744 29.1558 5.78906 29.1558 6.18776C29.1558 6.43811 29.2387 6.64441 29.4043 6.80668C29.57 6.96894 29.7827 7.05007 30.0424 7.05007C30.2484 7.05007 30.4163 6.98285 30.5462 6.8484C30.676 6.71396 30.7409 6.54474 30.7409 6.34075C30.7409 5.96059 30.5797 5.75661 30.2573 5.72879C30.0424 5.71025 29.9349 5.65461 29.9349 5.56189C29.9349 5.39499 30.0245 5.22346 30.2036 5.04729C30.3827 4.87112 30.62 4.78303 30.9156 4.78303C31.426 4.78303 31.7439 5.01483 31.8693 5.47844L31.8827 5.54798C31.9454 5.76124 31.9768 6.33148 31.9768 7.25869V7.55076C30.0424 7.76402 29.0752 8.4548 29.0752 9.62309C29.0752 10.0218 29.1939 10.3463 29.4312 10.5967C29.6685 10.847 29.9797 10.9722 30.3648 10.9722ZM31.3186 10.2351C30.8887 10.2351 30.6738 9.91052 30.6738 9.26147C30.6738 8.41771 31.1081 7.90774 31.9768 7.73157V8.41307C31.9768 9.0714 31.9275 9.53964 31.829 9.8178C31.7305 10.096 31.5604 10.2351 31.3186 10.2351ZM34.8391 10.8197L34.9455 10.8192L35.3485 10.8053C35.8858 10.7867 36.253 10.7775 36.45 10.7775C36.656 10.7775 36.8664 10.7821 37.0814 10.7914C37.5023 10.8099 37.753 10.8192 37.8336 10.8192C38.1739 10.8192 38.3441 10.7821 38.3441 10.7079C38.3441 10.6338 38.2859 10.5967 38.1694 10.5967L37.7665 10.6106C37.5784 10.6198 37.4687 10.5712 37.4373 10.4645C37.406 10.3579 37.3903 9.98934 37.3903 9.35883L37.3914 3.67492C37.3915 3.5699 37.3917 3.46793 37.3918 3.36903L37.3928 2.81232C37.393 2.72566 37.3932 2.64205 37.3934 2.5615L37.3947 2.11493C37.3969 1.50013 37.3999 1.13312 37.4038 1.01391C36.7679 1.29207 35.9485 1.4497 34.9455 1.48679C34.7127 1.49606 34.5962 1.53778 34.5962 1.61196C34.5962 1.67687 34.7082 1.70932 34.9321 1.70932C35.2365 1.70932 35.4201 1.73945 35.4828 1.79972C35.5455 1.85999 35.5769 2.04775 35.5769 2.363V9.69263C35.5769 10.1748 35.5522 10.4529 35.503 10.5271C35.4537 10.6013 35.2724 10.6338 34.9589 10.6245C34.753 10.6152 34.65 10.6477 34.65 10.7218C34.65 10.796 34.7485 10.8285 34.9455 10.8192L34.8391 10.8197ZM47.3308 11C48.101 11 48.8219 10.7033 49.4936 10.1099C49.7175 10.2119 49.9279 10.4298 50.1249 10.7636C50.1787 10.8563 50.2279 10.9026 50.2727 10.9026C50.3175 10.9026 50.3399 10.8516 50.3399 10.7497C50.3399 10.6569 50.3354 10.5781 50.3264 10.5132C50.3175 10.3278 50.313 10.096 50.313 9.8178C50.313 9.59527 50.3309 9.28002 50.3667 8.87205C50.4115 8.33426 50.4339 8.04219 50.4339 7.99583L50.4473 7.75939C50.4563 7.63885 50.416 7.57858 50.3264 7.57858C50.2458 7.57858 50.1742 7.7223 50.1115 8.00974C49.7175 9.7529 48.8891 10.6245 47.6264 10.6245C47.0443 10.6245 46.5741 10.4112 46.2159 9.9847C45.5353 9.17803 45.195 7.90774 45.195 6.17385C45.195 5.00556 45.3383 4.00417 45.6248 3.16968C46.0368 1.94576 46.6995 1.3338 47.6129 1.3338C48.7682 1.3338 49.507 2.16829 49.8294 3.83727C49.901 4.19889 49.9727 4.37969 50.0443 4.37969C50.1339 4.37969 50.1787 4.29624 50.1787 4.12935V3.16968C50.1697 2.83588 50.1652 2.6458 50.1652 2.59944C50.1652 2.13584 50.1921 1.74641 50.2458 1.43115C50.2548 1.37552 50.2593 1.3338 50.2593 1.30598C50.2593 1.24108 50.2414 1.20862 50.2055 1.20862C50.1787 1.20862 50.107 1.27353 49.9906 1.40334C49.8294 1.57951 49.6548 1.66759 49.4667 1.66759C49.3413 1.66759 49.1443 1.58878 48.8756 1.43115C48.41 1.15299 47.8816 1.01391 47.2905 1.01391C46.0099 1.01391 44.942 1.4891 44.0867 2.4395C43.2315 3.38989 42.8039 4.57441 42.8039 5.99305C42.8039 7.45804 43.2785 8.67269 44.2278 9.637C45.1233 10.5457 46.1577 11 47.3308 11ZM54.3429 10.9861C55.0504 10.9861 55.6997 10.745 56.2907 10.2629C57.043 9.6509 57.4191 8.84886 57.4191 7.85674C57.4191 6.96662 57.1213 6.20399 56.5258 5.56885C55.9303 4.9337 55.2161 4.61613 54.3832 4.61613C53.5146 4.61613 52.7735 4.92907 52.16 5.55494C51.5466 6.18081 51.2399 6.9388 51.2399 7.82893C51.2399 8.68197 51.5466 9.42142 52.16 10.0473C52.7735 10.6732 53.5011 10.9861 54.3429 10.9861ZM54.3698 10.7914C54.0295 10.7914 53.7653 10.5874 53.5772 10.1794C53.3444 9.66945 53.228 8.80714 53.228 7.59249C53.228 6.72091 53.3265 6.03709 53.5235 5.54103C53.7205 5.04497 53.9937 4.79694 54.3429 4.79694C54.7191 4.79694 54.9922 5.03338 55.1624 5.50626C55.3146 5.93278 55.3907 6.72091 55.3907 7.87065C55.3907 8.80714 55.328 9.52109 55.2027 10.0125C55.0683 10.5318 54.7907 10.7914 54.3698 10.7914ZM62.3759 10.9861C62.3849 10.9861 62.4162 10.9768 62.47 10.9583C62.9536 10.7265 63.4148 10.6152 63.8536 10.6245L64.4581 10.6384C64.6372 10.6384 64.7267 10.6059 64.7267 10.541C64.7267 10.4576 64.6596 10.4205 64.5252 10.4298H64.3861C64.2156 10.4223 64.1052 10.3853 64.0551 10.3185C64.0103 10.2629 63.9879 10.1562 63.9879 9.99861V3.36439L63.9745 2.02921L63.961 1.3338C63.961 1.11127 63.9118 1 63.8133 1C63.7685 1 63.6924 1.01854 63.5849 1.05563C62.8416 1.30598 62.0625 1.43115 61.2476 1.43115C61.1401 1.43115 61.0864 1.46361 61.0864 1.52851C61.0864 1.59342 61.2028 1.62587 61.4356 1.62587C61.8386 1.6166 62.0759 1.68845 62.1476 1.84144C62.2192 1.99443 62.255 2.48818 62.255 3.32267V5.26982C61.9058 4.8433 61.4535 4.63004 60.8983 4.63004C60.0475 4.63004 59.3624 4.9198 58.843 5.4993C58.3236 6.07881 58.0639 6.84145 58.0639 7.78721C58.0639 8.71442 58.3191 9.47937 58.8296 10.0821C59.3401 10.6847 59.9893 10.9861 60.7774 10.9861C61.3685 10.9861 61.8431 10.7867 62.2013 10.388C62.2282 10.5364 62.2416 10.6523 62.2416 10.7357C62.2506 10.9026 62.2953 10.9861 62.3759 10.9861ZM61.2879 10.6662C60.8938 10.6662 60.5871 10.4251 60.3677 9.94298C60.1483 9.46082 60.0386 8.77932 60.0386 7.89847C60.0386 5.9235 60.4684 4.93602 61.3282 4.93602C61.6326 4.93602 61.87 5.06583 62.0401 5.32545C62.1744 5.52944 62.2416 5.84005 62.2416 6.2573V9.28929C62.2416 9.77144 62.1409 10.1215 61.9394 10.3394C61.7379 10.5573 61.5207 10.6662 61.2879 10.6662ZM66.5805 10.9722C67.279 10.9722 67.8298 10.592 68.2328 9.83171C68.2865 10.2397 68.3962 10.5225 68.5619 10.6801C68.7276 10.8377 68.994 10.9166 69.3612 10.9166C69.9254 10.9166 70.4 10.7357 70.7851 10.3741C70.9284 10.2443 71 10.1423 71 10.0682C71 10.0218 70.9776 9.99861 70.9328 9.99861C70.906 9.99861 70.8701 10.0218 70.8254 10.0682C70.6015 10.2907 70.4134 10.4019 70.2612 10.4019C70.0463 10.4019 69.9164 10.2072 69.8716 9.8178C69.8652 9.76482 69.8611 9.61249 69.8593 9.36082L69.8582 6.63282C69.8582 5.91887 69.7104 5.41817 69.4149 5.13074C69.0477 4.78767 68.3985 4.61613 67.4671 4.61613C66.8402 4.61613 66.3342 4.77839 65.9491 5.10292C65.5641 5.42744 65.3715 5.78906 65.3715 6.18776C65.3715 6.43811 65.4544 6.64441 65.62 6.80668C65.7857 6.96894 65.9984 7.05007 66.2581 7.05007C66.4641 7.05007 66.632 6.98285 66.7619 6.8484C66.8917 6.71396 66.9566 6.54474 66.9566 6.34075C66.9566 5.96059 66.7954 5.75661 66.473 5.72879C66.2581 5.71025 66.1506 5.65461 66.1506 5.56189C66.1506 5.39499 66.2402 5.22346 66.4193 5.04729C66.5984 4.87112 66.8357 4.78303 67.1313 4.78303C67.6417 4.78303 67.9596 5.01483 68.085 5.47844L68.0984 5.54798C68.1611 5.76124 68.1925 6.33148 68.1925 7.25869V7.55076C66.2581 7.76402 65.2909 8.4548 65.2909 9.62309C65.2909 10.0218 65.4096 10.3463 65.6469 10.5967C65.8842 10.847 66.1954 10.9722 66.5805 10.9722ZM67.5343 10.2351C67.1044 10.2351 66.8895 9.91052 66.8895 9.26147C66.8895 8.41771 67.3238 7.90774 68.1925 7.73157V8.41307C68.1925 9.0714 68.1432 9.53964 68.0447 9.8178C67.9462 10.096 67.776 10.2351 67.5343 10.2351Z" fill="#006FD5"/>
</g>
</svg>
