<svg width="34" height="34" viewBox="0 0 34 34" fill="none" xmlns="http://www.w3.org/2000/svg">
<g id="&#230;&#151;&#182;&#229;&#128;&#188;/&#229;&#133;&#168;&#233;&#159;&#179;&#231;&#172;&#166;">
<path id="Vector" d="M17.1049 14C19.4825 14 22 15.2354 22 16.8904C22 18.6853 19.9487 19.7809 16.8718 19.7809C14.1212 19.7809 12 18.662 12 16.8904C12 15.1422 14.4942 14 17.1049 14V14ZM19.1795 16.2844C18.5268 15.0023 17.8275 14.4662 16.3823 14.4662C15.007 14.4662 14.3077 15.0256 14.3077 16.1212C14.3077 17.7529 15.7762 19.3147 17.1282 19.3147C18.3636 19.3147 19.4359 19.1748 19.669 17.986C19.6923 17.4965 19.5058 16.9371 19.1795 16.2844V16.2844Z" fill="#333333"/>
</g>
</svg>
