<svg width="34" height="34" viewBox="0 0 34 34" fill="none" xmlns="http://www.w3.org/2000/svg">
<g id="&#230;&#151;&#182;&#229;&#128;&#188;/&#229;&#141;&#129;&#229;&#133;&#173;&#229;&#136;&#134;&#233;&#159;&#179;&#231;&#172;&#166;">
<path id="Vector" d="M23 16.5417C23 15.5208 22.7292 14.4792 22.125 13.6667C21.5 12.8542 20.7917 12.1458 20.2083 11.3542C19.0833 9.95833 18.3333 8.60417 18 7.35417C17.9375 7.125 17.9583 7 17.7917 7H17.7292V7.04167H17.4792V22.5833C17.1042 22.1042 16.3958 21.8125 15.5417 21.8125C13.5208 21.8125 11 23.4792 11 25.2708C11 26.375 11.9792 27 13.2292 27C15.2292 27 17.6667 25.375 17.8125 23.6667H17.8958V15.7708C18.4792 15.7917 18.7083 15.9167 19.6458 16.625C21.75 18.2708 22.1458 18.7083 22.1667 19.6667C22.1667 20.375 21.7708 21.7708 21.7708 22.0833C21.7708 22.1875 21.8333 22.25 21.9375 22.25C22.3333 22.25 22.8958 20.5417 22.8958 19.7917V19.6875C22.875 19.0833 22.8125 18.625 22.6667 18.2917C22.8958 17.8542 23 17.2708 23 16.5417V16.5417ZM22.2917 17.4167C21.9583 16.75 20.3333 15.3125 20.1875 15.1042C19.5 14.25 18.9167 13.25 18.4167 12.125C19.4375 12.4375 21.4375 14.4375 21.5208 14.5417C22.0625 15.2083 22.3125 15.9792 22.3125 16.875C22.3125 17.0417 22.3125 17.2292 22.2917 17.4167V17.4167Z" fill="#333333"/>
</g>
</svg>
