<svg width="34" height="34" viewBox="0 0 34 34" fill="none" xmlns="http://www.w3.org/2000/svg">
<g id="&#230;&#151;&#182;&#229;&#128;&#188;/&#228;&#186;&#140;&#229;&#136;&#134;&#233;&#159;&#179;&#231;&#172;&#166;">
<path id="Vector" d="M21 7H20.5796V22.3874C20.1381 21.8198 19.3183 21.5045 18.2462 21.5045C16.2282 21.5045 14 23.2703 14 25.0991C14 26.1922 15.0931 26.8438 16.4174 26.8438C18.6667 26.8438 20.9369 25.3514 20.9369 23.5015V23.4595H21V7ZM15.5976 26.2763C14.8408 26.2763 14.4835 25.961 14.4835 25.3513C14.4835 24.1321 18.1201 22.1141 19.3814 22.1141C20.1381 22.1141 20.4955 22.4294 20.4955 23.039C20.4955 24.1952 17.006 26.2763 15.5976 26.2763V26.2763Z" fill="#333333"/>
</g>
</svg>
