<svg width="34" height="34" viewBox="0 0 34 34" fill="none" xmlns="http://www.w3.org/2000/svg">
<g id="&#230;&#151;&#182;&#229;&#128;&#188;/&#228;&#184;&#137;&#229;&#141;&#129;&#228;&#186;&#140;&#229;&#136;&#134;&#233;&#159;&#179;&#231;&#172;&#166;">
<path id="Vector" d="M22.7465 16.6408C22.9155 16.0493 23 15.5423 23 15.1197C23 14.0211 22.7254 12.9859 22.1549 12.0141C21.9437 11.6127 21.2887 10.7465 20.1901 9.37324C19.3239 8.27465 18.6056 6.92254 17.993 5.35915C17.9718 5.29577 17.9718 5.23239 17.9718 5.19014C17.9718 5.12676 17.9718 5.06338 17.993 5.02113C18.0141 5 17.9085 5 17.7394 5V5.19014H17.4859V24.2887C17.1056 23.8028 16.4084 23.5282 15.5423 23.5282C13.5352 23.5282 11 25.1972 11 26.993C11 28.0915 11.9718 28.7254 13.2183 28.7254C15.2042 28.7254 17.6549 27.0986 17.7817 25.4085H17.8873V17.4859C18.4789 17.507 18.6901 17.6338 19.6197 18.331C21.7324 19.9789 22.1127 20.4225 22.1549 21.3732C22.1549 22.0915 21.7535 23.4859 21.7535 23.7817C21.7535 23.8873 21.8169 23.9507 21.9014 23.9507C22.3028 23.9507 22.8521 22.2394 22.8521 21.5V21.3944C22.831 20.8028 22.7676 20.338 22.6408 20C22.8521 19.5563 22.9577 18.9859 22.9577 18.2465C23 17.7183 22.9155 17.169 22.7465 16.6408ZM22.3239 15.4366V15.6901C22.2606 15.5845 22.1972 15.5 22.1338 15.3944C21.5211 14.5704 20.8028 13.8732 20.2324 13.0915C19.3662 12.0141 18.7324 10.9789 18.331 9.98592C18.669 10.0282 18.8592 10.1761 19.6831 10.8732C21.6268 12.5211 22.3239 13.7042 22.3239 15.4366V15.4366ZM22.3028 19.1338C21.9648 18.4577 20.3592 17.0211 20.1901 16.831C19.493 15.9859 18.9225 14.9718 18.4155 13.8521C19.4296 14.169 21.4366 16.1549 21.5211 16.2606C22.0493 16.9155 22.3239 17.6972 22.3239 18.5845C22.3239 18.7535 22.3239 18.9437 22.3028 19.1338V19.1338Z" fill="#333333"/>
</g>
</svg>
