<svg width="34" height="34" viewBox="0 0 34 34" fill="none" xmlns="http://www.w3.org/2000/svg">
<g id="&#230;&#151;&#182;&#229;&#128;&#188;/&#229;&#133;&#173;&#229;&#141;&#129;&#229;&#155;&#155;&#229;&#136;&#134;&#233;&#159;&#179;&#231;&#172;&#166;">
<path id="Union" fill-rule="evenodd" clip-rule="evenodd" d="M22.9826 15.1051C22.9826 15.527 22.8982 16.0333 22.7295 16.624C22.8982 17.1514 22.9826 17.6999 22.9404 18.2273C22.9404 18.9657 22.835 19.5353 22.624 19.9783C22.7506 20.3158 22.8139 20.7799 22.835 21.3706V21.4761C22.835 21.9546 22.6046 22.8407 22.3334 23.4051L22.6475 24.21C22.774 24.5475 22.8373 25.0117 22.8584 25.6024V25.7078C22.8584 26.4462 22.3099 28.155 21.9091 28.155C21.8247 28.155 21.7614 28.0917 21.7614 27.9862C21.7614 27.8708 21.8227 27.5877 21.8973 27.2429C22.0135 26.7056 22.1623 26.0182 22.1623 25.5813C22.1201 24.6319 21.7403 24.1889 19.6307 22.5434C18.7025 21.8472 18.4915 21.7207 17.9008 21.6996H17.8774V25.3789H17.7719C17.6453 27.0666 15.1981 28.691 13.2151 28.691C11.9704 28.691 11 28.0581 11 26.9611C11 25.1679 13.5315 23.5013 15.5357 23.5013C16.4006 23.5013 17.0968 23.7756 17.4765 24.2608V5.18987H17.7297V5C17.8984 5 18.0039 5 17.9828 5.0211C17.9617 5.06329 17.9617 5.12658 17.9617 5.18987C17.9617 5.23206 17.9617 5.29535 17.9828 5.35863C18.5946 6.91975 19.3119 8.26991 20.1768 9.36691C21.2738 10.7382 21.9278 11.6031 22.1388 12.0039C22.7084 12.9744 22.9826 14.0081 22.9826 15.1051ZM18.1317 17.4874C18.1721 17.6003 18.2125 17.7168 18.2538 17.8362C18.6137 18.8752 19.0469 20.1259 20.2003 21.0456C20.2376 21.0875 20.345 21.1903 20.4933 21.3323C20.8649 21.6879 21.4933 22.2893 21.9201 22.7963C22.026 22.3004 22.1388 21.73 22.1388 21.3495C22.0966 20.4002 21.7169 19.9572 19.6072 18.3117C18.8247 17.7248 18.552 17.5427 18.1317 17.4874ZM22.3076 15.6747V15.4215C22.3076 13.6916 21.6114 12.5102 19.6705 10.8647C18.8478 10.1686 18.6579 10.0209 18.3204 9.9787C18.7212 10.9702 19.3541 12.0039 20.219 13.0798C20.5073 13.4749 20.8334 13.8483 21.1645 14.2275C21.4876 14.5975 21.8155 14.973 22.1177 15.3793C22.1493 15.4321 22.181 15.4795 22.2126 15.527C22.2443 15.5745 22.2759 15.6219 22.3076 15.6747ZM20.4699 17.1006C20.9925 17.6008 22.0235 18.5875 22.2865 19.1133C22.3075 18.9235 22.3076 18.7336 22.3076 18.5648C22.3076 17.6788 22.0333 16.8982 21.5059 16.2443C21.4215 16.1388 19.4174 14.1557 18.4048 13.8393C18.9111 14.9574 19.4807 15.97 20.1768 16.8139C20.2141 16.8558 20.3215 16.9586 20.4699 17.1006Z" fill="#333333"/>
</g>
</svg>
