<svg width="34" height="34" viewBox="0 0 34 34" fill="none" xmlns="http://www.w3.org/2000/svg">
<g id="&#230;&#151;&#182;&#229;&#128;&#188;/&#229;&#133;&#171;&#229;&#136;&#134;&#233;&#159;&#179;&#231;&#172;&#166;">
<path id="Vector" d="M22.254 13.9698C22.1048 13.7353 21.4867 12.8828 20.357 11.4973C19.4831 10.389 18.7371 9.00355 18.119 7.38366C18.0977 7.31972 18.0977 7.25577 18.0977 7.19183C18.0977 7.12789 18.0977 7.06394 18.119 7.02131C18.1403 7 18.0337 7 17.8632 7V7.04263H17.6075V22.9005C17.2238 22.4103 16.4991 22.1119 15.6252 22.1119C13.579 22.1119 11 23.8171 11 25.6501C11 26.7584 12.0018 27.4192 13.2806 27.4192C15.3268 27.4192 17.8206 25.7567 17.9485 24.0302H18.0551V12.1155C18.9503 12.1581 19.2913 12.5204 19.8455 12.9254C21.4867 14.0764 22.3179 15.3552 22.3179 16.7833V16.8899C22.2753 18.7229 22.254 18.8721 21.7211 20.0444C21.6359 20.2362 21.5933 20.3428 21.5933 20.4281C21.5933 20.5346 21.6572 20.5986 21.7638 20.5986C21.9769 20.5986 23 19.1705 23 16.5702V16.4636C22.9787 15.5897 22.7442 14.7584 22.254 13.9698V13.9698Z" fill="#333333"/>
</g>
</svg>
