<svg width="34" height="34" viewBox="0 0 34 34" fill="none" xmlns="http://www.w3.org/2000/svg">
<g id="&#233;&#159;&#179;&#233;&#171;&#152;/&#228;&#189;&#142;&#233;&#159;&#179;/&#228;&#189;&#142;&#233;&#159;&#179;">
<g id="&#233;&#159;&#179;&#233;&#171;&#152;/&#228;&#189;&#142;&#233;&#159;&#179;/&#228;&#189;&#142;&#233;&#159;&#179;_2">
<g id="Frame 1">
<g id="X">
<g id="&#231;&#188;&#150;&#231;&#187;&#132;">
<g id="X_2">
<path id="Vector" d="M20.7035 20.1323C20.9114 20.1323 21.0979 20.0963 21.2632 20.0243C21.4284 19.9523 21.5564 19.8549 21.647 19.732C21.7376 19.6092 21.7829 19.4736 21.7829 19.3254C21.7829 19.1686 21.7323 19.0024 21.631 18.8266C21.5297 18.6508 21.3671 18.4295 21.1432 18.1626L18.6566 15.1192L20.9673 12.3744C21.3778 11.8872 21.583 11.5018 21.583 11.218C21.583 11.0231 21.4884 10.8548 21.2992 10.7129C21.1099 10.571 20.8661 10.5 20.5676 10.5C20.4023 10.5 20.2571 10.5222 20.1318 10.5667C20.0065 10.6112 19.8933 10.6779 19.792 10.7669C19.6907 10.8558 19.5854 10.9681 19.4762 11.1036C19.3669 11.2392 19.235 11.4022 19.0804 11.5928L17.2014 13.8548L15.4424 11.5928C15.1172 11.1735 14.8627 10.8865 14.6788 10.7319C14.4949 10.5773 14.2377 10.5 13.9072 10.5C13.6194 10.5 13.3755 10.571 13.1756 10.7129C12.9757 10.8548 12.8758 11.0147 12.8758 11.1926C12.8758 11.3662 12.9278 11.5473 13.0317 11.7358C13.1357 11.9243 13.2916 12.1499 13.4995 12.4125L15.7062 15.1192L13.0837 18.1626C12.6946 18.6159 12.5 18.9992 12.5 19.3127C12.5 19.5795 12.5946 19.7828 12.7838 19.9226C12.9731 20.0624 13.2116 20.1323 13.4995 20.1323C13.686 20.1323 13.8486 20.109 13.9872 20.0624C14.1258 20.0158 14.2457 19.9523 14.347 19.8718C14.4483 19.7913 14.5349 19.7087 14.6068 19.624C14.6788 19.5393 14.8001 19.391 14.9706 19.1792L17.1614 16.5234L19.2243 19.103C19.4855 19.4207 19.6641 19.6346 19.76 19.7447C19.856 19.8549 19.9812 19.947 20.1358 20.0211C20.2904 20.0952 20.4796 20.1323 20.7035 20.1323Z" fill="#333333" stroke="#333333"/>
</g>
</g>
</g>
<g id="&#231;&#188;&#150;&#231;&#187;&#132;_2">
<g id="&#230;&#164;&#173;&#229;&#156;&#134;&#229;&#189;&#162;">
<path id="&#230;&#164;&#173;&#229;&#156;&#134;&#229;&#189;&#162;_2" d="M17 24.5C17.8284 24.5 18.5 23.8284 18.5 23C18.5 22.1716 17.8284 21.5 17 21.5C16.1716 21.5 15.5 22.1716 15.5 23C15.5 23.8284 16.1716 24.5 17 24.5Z" fill="#333333"/>
</g>
</g>
</g>
</g>
</g>
</svg>
