<svg width="34" height="34" viewBox="0 0 34 34" fill="none" xmlns="http://www.w3.org/2000/svg">
<g id="&#233;&#159;&#179;&#233;&#171;&#152;/&#228;&#189;&#142;&#233;&#159;&#179;/&#229;&#128;&#141;&#228;&#189;&#142;&#233;&#159;&#179;">
<g id="&#233;&#159;&#179;&#233;&#171;&#152;/&#228;&#189;&#142;&#233;&#159;&#179;/&#229;&#128;&#141;&#228;&#189;&#142;&#233;&#159;&#179;_2">
<g id="Frame 1">
<g id="X">
<g id="&#231;&#188;&#150;&#231;&#187;&#132;">
<g id="X_2">
<path id="Vector" d="M20.7035 18.1323C20.9114 18.1323 21.0979 18.0963 21.2632 18.0243C21.4284 17.9523 21.5564 17.8549 21.647 17.732C21.7376 17.6092 21.7829 17.4736 21.7829 17.3254C21.7829 17.1686 21.7323 17.0024 21.631 16.8266C21.5297 16.6508 21.3671 16.4295 21.1432 16.1626L18.6566 13.1192L20.9673 10.3744C21.3778 9.88724 21.583 9.50178 21.583 9.21797C21.583 9.02313 21.4884 8.85475 21.2992 8.71285C21.1099 8.57095 20.8661 8.5 20.5676 8.5C20.4023 8.5 20.2571 8.52224 20.1318 8.56671C20.0065 8.61119 19.8933 8.67791 19.792 8.76686C19.6907 8.85581 19.5854 8.96806 19.4762 9.10361C19.3669 9.23915 19.235 9.40223 19.0804 9.59285L17.2014 11.8548L15.4424 9.59285C15.1172 9.1735 14.8627 8.88652 14.6788 8.73191C14.4949 8.5773 14.2377 8.5 13.9072 8.5C13.6194 8.5 13.3755 8.57095 13.1756 8.71285C12.9757 8.85475 12.8758 9.01465 12.8758 9.19256C12.8758 9.36623 12.9278 9.54731 13.0317 9.73581C13.1357 9.9243 13.2916 10.1499 13.4995 10.4125L15.7062 13.1192L13.0837 16.1626C12.6946 16.6159 12.5 16.9992 12.5 17.3127C12.5 17.5795 12.5946 17.7828 12.7838 17.9226C12.9731 18.0624 13.2116 18.1323 13.4995 18.1323C13.686 18.1323 13.8486 18.109 13.9872 18.0624C14.1258 18.0158 14.2457 17.9523 14.347 17.8718C14.4483 17.7913 14.5349 17.7087 14.6068 17.624C14.6788 17.5393 14.8001 17.391 14.9706 17.1792L17.1614 14.5234L19.2243 17.103C19.4855 17.4207 19.6641 17.6346 19.76 17.7447C19.856 17.8549 19.9812 17.947 20.1358 18.0211C20.2904 18.0952 20.4796 18.1323 20.7035 18.1323Z" fill="#333333" stroke="#333333"/>
</g>
</g>
</g>
<g id="&#231;&#188;&#150;&#231;&#187;&#132;_2">
<g id="&#230;&#164;&#173;&#229;&#156;&#134;&#229;&#189;&#162;">
<path id="&#230;&#164;&#173;&#229;&#156;&#134;&#229;&#189;&#162;_2" d="M17 22.5C17.8284 22.5 18.5 21.8284 18.5 21C18.5 20.1716 17.8284 19.5 17 19.5C16.1716 19.5 15.5 20.1716 15.5 21C15.5 21.8284 16.1716 22.5 17 22.5Z" fill="#333333"/>
</g>
<g id="&#230;&#164;&#173;&#229;&#156;&#134;&#229;&#189;&#162;_3">
<path id="&#230;&#164;&#173;&#229;&#156;&#134;&#229;&#189;&#162;_4" d="M17 26.5C17.8284 26.5 18.5 25.8284 18.5 25C18.5 24.1716 17.8284 23.5 17 23.5C16.1716 23.5 15.5 24.1716 15.5 25C15.5 25.8284 16.1716 26.5 17 26.5Z" fill="#333333"/>
</g>
</g>
</g>
</g>
</g>
</svg>
