<svg width="34" height="34" viewBox="0 0 34 34" fill="none" xmlns="http://www.w3.org/2000/svg">
<g id="&#233;&#159;&#179;&#233;&#171;&#152;/&#228;&#189;&#142;&#233;&#159;&#179;/&#232;&#182;&#133;&#228;&#189;&#142;&#233;&#159;&#179;">
<g id="&#233;&#159;&#179;&#233;&#171;&#152;/&#228;&#189;&#142;&#233;&#159;&#179;/&#232;&#182;&#133;&#228;&#189;&#142;&#233;&#159;&#179;_2">
<g id="Frame 1">
<g id="X">
<g id="&#231;&#188;&#150;&#231;&#187;&#132;">
<g id="X_2">
<path id="Vector" d="M20.7035 16.1323C20.9114 16.1323 21.0979 16.0963 21.2632 16.0243C21.4284 15.9523 21.5564 15.8549 21.647 15.732C21.7376 15.6092 21.7829 15.4736 21.7829 15.3254C21.7829 15.1686 21.7323 15.0024 21.631 14.8266C21.5297 14.6508 21.3671 14.4295 21.1432 14.1626L18.6566 11.1192L20.9673 8.37436C21.3778 7.88724 21.583 7.50178 21.583 7.21797C21.583 7.02313 21.4884 6.85475 21.2992 6.71285C21.1099 6.57095 20.8661 6.5 20.5676 6.5C20.4023 6.5 20.2571 6.52224 20.1318 6.56671C20.0065 6.61119 19.8933 6.67791 19.792 6.76686C19.6907 6.85581 19.5854 6.96806 19.4762 7.10361C19.3669 7.23915 19.235 7.40223 19.0804 7.59285L17.2014 9.85479L15.4424 7.59285C15.1172 7.1735 14.8627 6.88652 14.6788 6.73191C14.4949 6.5773 14.2377 6.5 13.9072 6.5C13.6194 6.5 13.3755 6.57095 13.1756 6.71285C12.9757 6.85475 12.8758 7.01465 12.8758 7.19256C12.8758 7.36623 12.9278 7.54731 13.0317 7.73581C13.1357 7.9243 13.2916 8.14986 13.4995 8.41248L15.7062 11.1192L13.0837 14.1626C12.6946 14.6159 12.5 14.9992 12.5 15.3127C12.5 15.5795 12.5946 15.7828 12.7838 15.9226C12.9731 16.0624 13.2116 16.1323 13.4995 16.1323C13.686 16.1323 13.8486 16.109 13.9872 16.0624C14.1258 16.0158 14.2457 15.9523 14.347 15.8718C14.4483 15.7913 14.5349 15.7087 14.6068 15.624C14.6788 15.5393 14.8001 15.391 14.9706 15.1792L17.1614 12.5234L19.2243 15.103C19.4855 15.4207 19.6641 15.6346 19.76 15.7447C19.856 15.8549 19.9812 15.947 20.1358 16.0211C20.2904 16.0952 20.4796 16.1323 20.7035 16.1323Z" fill="#333333" stroke="#333333"/>
</g>
</g>
</g>
<g id="&#231;&#188;&#150;&#231;&#187;&#132;_2">
<g id="&#230;&#164;&#173;&#229;&#156;&#134;&#229;&#189;&#162;">
<path id="&#230;&#164;&#173;&#229;&#156;&#134;&#229;&#189;&#162;_2" d="M17 20.5C17.8284 20.5 18.5 19.8284 18.5 19C18.5 18.1716 17.8284 17.5 17 17.5C16.1716 17.5 15.5 18.1716 15.5 19C15.5 19.8284 16.1716 20.5 17 20.5Z" fill="#333333"/>
</g>
<g id="&#230;&#164;&#173;&#229;&#156;&#134;&#229;&#189;&#162;_3">
<path id="&#230;&#164;&#173;&#229;&#156;&#134;&#229;&#189;&#162;_4" d="M17 24.5C17.8284 24.5 18.5 23.8284 18.5 23C18.5 22.1716 17.8284 21.5 17 21.5C16.1716 21.5 15.5 22.1716 15.5 23C15.5 23.8284 16.1716 24.5 17 24.5Z" fill="#333333"/>
</g>
<g id="&#230;&#164;&#173;&#229;&#156;&#134;&#229;&#189;&#162;_5">
<path id="&#230;&#164;&#173;&#229;&#156;&#134;&#229;&#189;&#162;_6" d="M17 28.5C17.8284 28.5 18.5 27.8284 18.5 27C18.5 26.1716 17.8284 25.5 17 25.5C16.1716 25.5 15.5 26.1716 15.5 27C15.5 27.8284 16.1716 28.5 17 28.5Z" fill="#333333"/>
</g>
</g>
</g>
</g>
</g>
</svg>
