<svg width="34" height="34" viewBox="0 0 34 34" fill="none" xmlns="http://www.w3.org/2000/svg">
<g id="&#233;&#159;&#179;&#233;&#171;&#152;/&#228;&#189;&#142;&#233;&#159;&#179;/&#230;&#156;&#128;&#228;&#189;&#142;&#233;&#159;&#179;">
<g id="Frame 1">
<g id="X">
<g id="&#231;&#188;&#150;&#231;&#187;&#132;">
<g id="X_2">
<path id="Vector" d="M20.7035 14.1323C20.9114 14.1323 21.0979 14.0963 21.2632 14.0243C21.4284 13.9523 21.5564 13.8549 21.647 13.732C21.7376 13.6092 21.7829 13.4736 21.7829 13.3254C21.7829 13.1686 21.7323 13.0024 21.631 12.8266C21.5297 12.6508 21.3671 12.4295 21.1432 12.1626L18.6566 9.11918L20.9673 6.37436C21.3778 5.88724 21.583 5.50178 21.583 5.21797C21.583 5.02313 21.4884 4.85475 21.2992 4.71285C21.1099 4.57095 20.8661 4.5 20.5676 4.5C20.4023 4.5 20.2571 4.52224 20.1318 4.56671C20.0065 4.61119 19.8933 4.67791 19.792 4.76686C19.6907 4.85581 19.5854 4.96806 19.4762 5.10361C19.3669 5.23915 19.235 5.40223 19.0804 5.59285L17.2014 7.85479L15.4424 5.59285C15.1172 5.1735 14.8627 4.88652 14.6788 4.73191C14.4949 4.5773 14.2377 4.5 13.9072 4.5C13.6194 4.5 13.3755 4.57095 13.1756 4.71285C12.9757 4.85475 12.8758 5.01465 12.8758 5.19256C12.8758 5.36623 12.9278 5.54731 13.0317 5.73581C13.1357 5.9243 13.2916 6.14986 13.4995 6.41248L15.7062 9.11918L13.0837 12.1626C12.6946 12.6159 12.5 12.9992 12.5 13.3127C12.5 13.5795 12.5946 13.7828 12.7838 13.9226C12.9731 14.0624 13.2116 14.1323 13.4995 14.1323C13.686 14.1323 13.8486 14.109 13.9872 14.0624C14.1258 14.0158 14.2457 13.9523 14.347 13.8718C14.4483 13.7913 14.5349 13.7087 14.6068 13.624C14.6788 13.5393 14.8001 13.391 14.9706 13.1792L17.1614 10.5234L19.2243 13.103C19.4855 13.4207 19.6641 13.6346 19.76 13.7447C19.856 13.8549 19.9812 13.947 20.1358 14.0211C20.2904 14.0952 20.4796 14.1323 20.7035 14.1323Z" fill="#333333" stroke="#333333"/>
</g>
</g>
</g>
<g id="&#231;&#188;&#150;&#231;&#187;&#132;_2">
<g id="&#230;&#164;&#173;&#229;&#156;&#134;&#229;&#189;&#162;">
<path id="&#230;&#164;&#173;&#229;&#156;&#134;&#229;&#189;&#162;_2" d="M17 18.5C17.8284 18.5 18.5 17.8284 18.5 17C18.5 16.1716 17.8284 15.5 17 15.5C16.1716 15.5 15.5 16.1716 15.5 17C15.5 17.8284 16.1716 18.5 17 18.5Z" fill="#333333"/>
</g>
<g id="&#230;&#164;&#173;&#229;&#156;&#134;&#229;&#189;&#162;_3">
<path id="&#230;&#164;&#173;&#229;&#156;&#134;&#229;&#189;&#162;_4" d="M17 22.5C17.8284 22.5 18.5 21.8284 18.5 21C18.5 20.1716 17.8284 19.5 17 19.5C16.1716 19.5 15.5 20.1716 15.5 21C15.5 21.8284 16.1716 22.5 17 22.5Z" fill="#333333"/>
</g>
<g id="&#230;&#164;&#173;&#229;&#156;&#134;&#229;&#189;&#162;_5">
<path id="&#230;&#164;&#173;&#229;&#156;&#134;&#229;&#189;&#162;_6" d="M17 26.5C17.8284 26.5 18.5 25.8284 18.5 25C18.5 24.1716 17.8284 23.5 17 23.5C16.1716 23.5 15.5 24.1716 15.5 25C15.5 25.8284 16.1716 26.5 17 26.5Z" fill="#333333"/>
</g>
<g id="&#230;&#164;&#173;&#229;&#156;&#134;&#229;&#189;&#162;_7">
<path id="&#230;&#164;&#173;&#229;&#156;&#134;&#229;&#189;&#162;_8" d="M17 30.5C17.8284 30.5 18.5 29.8284 18.5 29C18.5 28.1716 17.8284 27.5 17 27.5C16.1716 27.5 15.5 28.1716 15.5 29C15.5 29.8284 16.1716 30.5 17 30.5Z" fill="#333333"/>
</g>
</g>
</g>
</g>
</svg>
