<svg width="34" height="34" viewBox="0 0 34 34" fill="none" xmlns="http://www.w3.org/2000/svg">
<g id="&#233;&#159;&#179;&#233;&#171;&#152;/&#228;&#184;&#173;&#233;&#159;&#179;">
<g id="&#233;&#159;&#179;&#233;&#171;&#152;/&#228;&#184;&#173;&#233;&#159;&#179;_2">
<g id="Frame 1">
<g id="X">
<g id="&#231;&#188;&#150;&#231;&#187;&#132;">
<g id="X_2">
<path id="Vector" d="M20.7035 21.6323C20.9114 21.6323 21.0979 21.5963 21.2632 21.5243C21.4284 21.4523 21.5564 21.3549 21.647 21.232C21.7376 21.1092 21.7829 20.9736 21.7829 20.8254C21.7829 20.6686 21.7323 20.5024 21.631 20.3266C21.5297 20.1508 21.3671 19.9295 21.1432 19.6626L18.6566 16.6192L20.9673 13.8744C21.3778 13.3872 21.583 13.0018 21.583 12.718C21.583 12.5231 21.4884 12.3548 21.2992 12.2129C21.1099 12.071 20.8661 12 20.5676 12C20.4023 12 20.2571 12.0222 20.1318 12.0667C20.0065 12.1112 19.8933 12.1779 19.792 12.2669C19.6907 12.3558 19.5854 12.4681 19.4762 12.6036C19.3669 12.7392 19.235 12.9022 19.0804 13.0928L17.2014 15.3548L15.4424 13.0928C15.1172 12.6735 14.8627 12.3865 14.6788 12.2319C14.4949 12.0773 14.2377 12 13.9072 12C13.6194 12 13.3755 12.071 13.1756 12.2129C12.9757 12.3548 12.8758 12.5147 12.8758 12.6926C12.8758 12.8662 12.9278 13.0473 13.0317 13.2358C13.1357 13.4243 13.2916 13.6499 13.4995 13.9125L15.7062 16.6192L13.0837 19.6626C12.6946 20.1159 12.5 20.4992 12.5 20.8127C12.5 21.0795 12.5946 21.2828 12.7838 21.4226C12.9731 21.5624 13.2116 21.6323 13.4995 21.6323C13.686 21.6323 13.8486 21.609 13.9872 21.5624C14.1258 21.5158 14.2457 21.4523 14.347 21.3718C14.4483 21.2913 14.5349 21.2087 14.6068 21.124C14.6788 21.0393 14.8001 20.891 14.9706 20.6792L17.1614 18.0234L19.2243 20.603C19.4855 20.9207 19.6641 21.1346 19.76 21.2447C19.856 21.3549 19.9812 21.447 20.1358 21.5211C20.2904 21.5952 20.4796 21.6323 20.7035 21.6323Z" fill="#333333" stroke="#333333"/>
</g>
</g>
</g>
</g>
</g>
</g>
</svg>
