<svg width="34" height="34" viewBox="0 0 34 34" fill="none" xmlns="http://www.w3.org/2000/svg">
<g id="&#233;&#159;&#179;&#233;&#171;&#152;/&#233;&#171;&#152;&#233;&#159;&#179;/&#233;&#171;&#152;&#233;&#159;&#179;">
<g id="&#233;&#159;&#179;&#233;&#171;&#152;/&#233;&#171;&#152;&#233;&#159;&#179;/&#233;&#171;&#152;&#233;&#159;&#179;_2">
<g id="Frame 1">
<g id="&#231;&#188;&#150;&#231;&#187;&#132;">
<g id="&#230;&#164;&#173;&#229;&#156;&#134;&#229;&#189;&#162;">
<path id="&#230;&#164;&#173;&#229;&#156;&#134;&#229;&#189;&#162;_2" d="M17 12.5C17.8284 12.5 18.5 11.8284 18.5 11C18.5 10.1716 17.8284 9.5 17 9.5C16.1716 9.5 15.5 10.1716 15.5 11C15.5 11.8284 16.1716 12.5 17 12.5Z" fill="#333333"/>
</g>
</g>
<g id="X">
<g id="&#231;&#188;&#150;&#231;&#187;&#132;_2">
<g id="X_2">
<path id="Vector" d="M20.7035 23.1323C20.9114 23.1323 21.0979 23.0963 21.2632 23.0243C21.4284 22.9523 21.5564 22.8549 21.647 22.732C21.7376 22.6092 21.7829 22.4736 21.7829 22.3254C21.7829 22.1686 21.7323 22.0024 21.631 21.8266C21.5297 21.6508 21.3671 21.4295 21.1432 21.1626L18.6566 18.1192L20.9673 15.3744C21.3778 14.8872 21.583 14.5018 21.583 14.218C21.583 14.0231 21.4884 13.8548 21.2992 13.7129C21.1099 13.571 20.8661 13.5 20.5676 13.5C20.4023 13.5 20.2571 13.5222 20.1318 13.5667C20.0065 13.6112 19.8933 13.6779 19.792 13.7669C19.6907 13.8558 19.5854 13.9681 19.4762 14.1036C19.3669 14.2392 19.235 14.4022 19.0804 14.5928L17.2014 16.8548L15.4424 14.5928C15.1172 14.1735 14.8627 13.8865 14.6788 13.7319C14.4949 13.5773 14.2377 13.5 13.9072 13.5C13.6194 13.5 13.3755 13.571 13.1756 13.7129C12.9757 13.8548 12.8758 14.0147 12.8758 14.1926C12.8758 14.3662 12.9278 14.5473 13.0317 14.7358C13.1357 14.9243 13.2916 15.1499 13.4995 15.4125L15.7062 18.1192L13.0837 21.1626C12.6946 21.6159 12.5 21.9992 12.5 22.3127C12.5 22.5795 12.5946 22.7828 12.7838 22.9226C12.9731 23.0624 13.2116 23.1323 13.4995 23.1323C13.686 23.1323 13.8486 23.109 13.9872 23.0624C14.1258 23.0158 14.2457 22.9523 14.347 22.8718C14.4483 22.7913 14.5349 22.7087 14.6068 22.624C14.6788 22.5393 14.8001 22.391 14.9706 22.1792L17.1614 19.5234L19.2243 22.103C19.4855 22.4207 19.6641 22.6346 19.76 22.7447C19.856 22.8549 19.9812 22.947 20.1358 23.0211C20.2904 23.0952 20.4796 23.1323 20.7035 23.1323Z" fill="#333333" stroke="#333333"/>
</g>
</g>
</g>
</g>
</g>
</g>
</svg>
