<svg width="34" height="34" viewBox="0 0 34 34" fill="none" xmlns="http://www.w3.org/2000/svg">
<g id="&#233;&#159;&#179;&#233;&#171;&#152;/&#233;&#171;&#152;&#233;&#159;&#179;/&#229;&#128;&#141;&#233;&#171;&#152;&#233;&#159;&#179;">
<g id="&#233;&#159;&#179;&#233;&#171;&#152;/&#233;&#171;&#152;&#233;&#159;&#179;/&#229;&#128;&#141;&#233;&#171;&#152;&#233;&#159;&#179;_2">
<g id="Frame 1">
<g id="&#231;&#188;&#150;&#231;&#187;&#132;">
<g id="&#230;&#164;&#173;&#229;&#156;&#134;&#229;&#189;&#162;">
<path id="&#230;&#164;&#173;&#229;&#156;&#134;&#229;&#189;&#162;_2" d="M17 10.5C17.8284 10.5 18.5 9.82843 18.5 9C18.5 8.17157 17.8284 7.5 17 7.5C16.1716 7.5 15.5 8.17157 15.5 9C15.5 9.82843 16.1716 10.5 17 10.5Z" fill="#333333"/>
</g>
<g id="&#230;&#164;&#173;&#229;&#156;&#134;&#229;&#189;&#162;_3">
<path id="&#230;&#164;&#173;&#229;&#156;&#134;&#229;&#189;&#162;_4" d="M17 14.5C17.8284 14.5 18.5 13.8284 18.5 13C18.5 12.1716 17.8284 11.5 17 11.5C16.1716 11.5 15.5 12.1716 15.5 13C15.5 13.8284 16.1716 14.5 17 14.5Z" fill="#333333"/>
</g>
</g>
<g id="X">
<g id="&#231;&#188;&#150;&#231;&#187;&#132;_2">
<g id="X_2">
<path id="Vector" d="M20.7035 25.1323C20.9114 25.1323 21.0979 25.0963 21.2632 25.0243C21.4284 24.9523 21.5564 24.8549 21.647 24.732C21.7376 24.6092 21.7829 24.4736 21.7829 24.3254C21.7829 24.1686 21.7323 24.0024 21.631 23.8266C21.5297 23.6508 21.3671 23.4295 21.1432 23.1626L18.6566 20.1192L20.9673 17.3744C21.3778 16.8872 21.583 16.5018 21.583 16.218C21.583 16.0231 21.4884 15.8548 21.2992 15.7129C21.1099 15.571 20.8661 15.5 20.5676 15.5C20.4023 15.5 20.2571 15.5222 20.1318 15.5667C20.0065 15.6112 19.8933 15.6779 19.792 15.7669C19.6907 15.8558 19.5854 15.9681 19.4762 16.1036C19.3669 16.2392 19.235 16.4022 19.0804 16.5928L17.2014 18.8548L15.4424 16.5928C15.1172 16.1735 14.8627 15.8865 14.6788 15.7319C14.4949 15.5773 14.2377 15.5 13.9072 15.5C13.6194 15.5 13.3755 15.571 13.1756 15.7129C12.9757 15.8548 12.8758 16.0147 12.8758 16.1926C12.8758 16.3662 12.9278 16.5473 13.0317 16.7358C13.1357 16.9243 13.2916 17.1499 13.4995 17.4125L15.7062 20.1192L13.0837 23.1626C12.6946 23.6159 12.5 23.9992 12.5 24.3127C12.5 24.5795 12.5946 24.7828 12.7838 24.9226C12.9731 25.0624 13.2116 25.1323 13.4995 25.1323C13.686 25.1323 13.8486 25.109 13.9872 25.0624C14.1258 25.0158 14.2457 24.9523 14.347 24.8718C14.4483 24.7913 14.5349 24.7087 14.6068 24.624C14.6788 24.5393 14.8001 24.391 14.9706 24.1792L17.1614 21.5234L19.2243 24.103C19.4855 24.4207 19.6641 24.6346 19.76 24.7447C19.856 24.8549 19.9812 24.947 20.1358 25.0211C20.2904 25.0952 20.4796 25.1323 20.7035 25.1323Z" fill="#333333" stroke="#333333"/>
</g>
</g>
</g>
</g>
</g>
</g>
</svg>
