<svg width="34" height="34" viewBox="0 0 34 34" fill="none" xmlns="http://www.w3.org/2000/svg">
<g id="&#233;&#159;&#179;&#233;&#171;&#152;/&#233;&#171;&#152;&#233;&#159;&#179;/&#232;&#182;&#133;&#233;&#171;&#152;&#233;&#159;&#179;">
<g id="&#233;&#159;&#179;&#233;&#171;&#152;/&#233;&#171;&#152;&#233;&#159;&#179;/&#232;&#182;&#133;&#233;&#171;&#152;&#233;&#159;&#179;_2">
<g id="Frame 1">
<g id="&#231;&#188;&#150;&#231;&#187;&#132;">
<g id="&#230;&#164;&#173;&#229;&#156;&#134;&#229;&#189;&#162;">
<path id="&#230;&#164;&#173;&#229;&#156;&#134;&#229;&#189;&#162;_2" d="M17 8.5C17.8284 8.5 18.5 7.82843 18.5 7C18.5 6.17157 17.8284 5.5 17 5.5C16.1716 5.5 15.5 6.17157 15.5 7C15.5 7.82843 16.1716 8.5 17 8.5Z" fill="#333333"/>
</g>
<g id="&#230;&#164;&#173;&#229;&#156;&#134;&#229;&#189;&#162;_3">
<path id="&#230;&#164;&#173;&#229;&#156;&#134;&#229;&#189;&#162;_4" d="M17 12.5C17.8284 12.5 18.5 11.8284 18.5 11C18.5 10.1716 17.8284 9.5 17 9.5C16.1716 9.5 15.5 10.1716 15.5 11C15.5 11.8284 16.1716 12.5 17 12.5Z" fill="#333333"/>
</g>
<g id="&#230;&#164;&#173;&#229;&#156;&#134;&#229;&#189;&#162;_5">
<path id="&#230;&#164;&#173;&#229;&#156;&#134;&#229;&#189;&#162;_6" d="M17 16.5C17.8284 16.5 18.5 15.8284 18.5 15C18.5 14.1716 17.8284 13.5 17 13.5C16.1716 13.5 15.5 14.1716 15.5 15C15.5 15.8284 16.1716 16.5 17 16.5Z" fill="#333333"/>
</g>
</g>
<g id="X">
<g id="&#231;&#188;&#150;&#231;&#187;&#132;_2">
<g id="X_2">
<path id="Vector" d="M20.7035 27.1323C20.9114 27.1323 21.0979 27.0963 21.2632 27.0243C21.4284 26.9523 21.5564 26.8549 21.647 26.732C21.7376 26.6092 21.7829 26.4736 21.7829 26.3254C21.7829 26.1686 21.7323 26.0024 21.631 25.8266C21.5297 25.6508 21.3671 25.4295 21.1432 25.1626L18.6566 22.1192L20.9673 19.3744C21.3778 18.8872 21.583 18.5018 21.583 18.218C21.583 18.0231 21.4884 17.8548 21.2992 17.7129C21.1099 17.571 20.8661 17.5 20.5676 17.5C20.4023 17.5 20.2571 17.5222 20.1318 17.5667C20.0065 17.6112 19.8933 17.6779 19.792 17.7669C19.6907 17.8558 19.5854 17.9681 19.4762 18.1036C19.3669 18.2392 19.235 18.4022 19.0804 18.5928L17.2014 20.8548L15.4424 18.5928C15.1172 18.1735 14.8627 17.8865 14.6788 17.7319C14.4949 17.5773 14.2377 17.5 13.9072 17.5C13.6194 17.5 13.3755 17.571 13.1756 17.7129C12.9757 17.8548 12.8758 18.0147 12.8758 18.1926C12.8758 18.3662 12.9278 18.5473 13.0317 18.7358C13.1357 18.9243 13.2916 19.1499 13.4995 19.4125L15.7062 22.1192L13.0837 25.1626C12.6946 25.6159 12.5 25.9992 12.5 26.3127C12.5 26.5795 12.5946 26.7828 12.7838 26.9226C12.9731 27.0624 13.2116 27.1323 13.4995 27.1323C13.686 27.1323 13.8486 27.109 13.9872 27.0624C14.1258 27.0158 14.2457 26.9523 14.347 26.8718C14.4483 26.7913 14.5349 26.7087 14.6068 26.624C14.6788 26.5393 14.8001 26.391 14.9706 26.1792L17.1614 23.5234L19.2243 26.103C19.4855 26.4207 19.6641 26.6346 19.76 26.7447C19.856 26.8549 19.9812 26.947 20.1358 27.0211C20.2904 27.0952 20.4796 27.1323 20.7035 27.1323Z" fill="#333333" stroke="#333333"/>
</g>
</g>
</g>
</g>
</g>
</g>
</svg>
