<svg width="34" height="34" viewBox="0 0 34 34" fill="none" xmlns="http://www.w3.org/2000/svg">
<g id="&#233;&#159;&#179;&#233;&#171;&#152;/&#233;&#171;&#152;&#233;&#159;&#179;/&#230;&#156;&#128;&#233;&#171;&#152;&#233;&#159;&#179;">
<g id="Frame 1">
<g id="&#231;&#188;&#150;&#231;&#187;&#132;">
<g id="&#230;&#164;&#173;&#229;&#156;&#134;&#229;&#189;&#162;">
<path id="&#230;&#164;&#173;&#229;&#156;&#134;&#229;&#189;&#162;_2" d="M17 6.5C17.8284 6.5 18.5 5.82843 18.5 5C18.5 4.17157 17.8284 3.5 17 3.5C16.1716 3.5 15.5 4.17157 15.5 5C15.5 5.82843 16.1716 6.5 17 6.5Z" fill="#333333"/>
</g>
<g id="&#230;&#164;&#173;&#229;&#156;&#134;&#229;&#189;&#162;_3">
<path id="&#230;&#164;&#173;&#229;&#156;&#134;&#229;&#189;&#162;_4" d="M17 10.5C17.8284 10.5 18.5 9.82843 18.5 9C18.5 8.17157 17.8284 7.5 17 7.5C16.1716 7.5 15.5 8.17157 15.5 9C15.5 9.82843 16.1716 10.5 17 10.5Z" fill="#333333"/>
</g>
<g id="&#230;&#164;&#173;&#229;&#156;&#134;&#229;&#189;&#162;_5">
<path id="&#230;&#164;&#173;&#229;&#156;&#134;&#229;&#189;&#162;_6" d="M17 14.5C17.8284 14.5 18.5 13.8284 18.5 13C18.5 12.1716 17.8284 11.5 17 11.5C16.1716 11.5 15.5 12.1716 15.5 13C15.5 13.8284 16.1716 14.5 17 14.5Z" fill="#333333"/>
</g>
<g id="&#230;&#164;&#173;&#229;&#156;&#134;&#229;&#189;&#162;_7">
<path id="&#230;&#164;&#173;&#229;&#156;&#134;&#229;&#189;&#162;_8" d="M17 18.5C17.8284 18.5 18.5 17.8284 18.5 17C18.5 16.1716 17.8284 15.5 17 15.5C16.1716 15.5 15.5 16.1716 15.5 17C15.5 17.8284 16.1716 18.5 17 18.5Z" fill="#333333"/>
</g>
</g>
<g id="X">
<g id="&#231;&#188;&#150;&#231;&#187;&#132;_2">
<g id="X_2">
<path id="Vector" d="M20.7035 29.1323C20.9114 29.1323 21.0979 29.0963 21.2632 29.0243C21.4284 28.9523 21.5564 28.8549 21.647 28.732C21.7376 28.6092 21.7829 28.4736 21.7829 28.3254C21.7829 28.1686 21.7323 28.0024 21.631 27.8266C21.5297 27.6508 21.3671 27.4295 21.1432 27.1626L18.6566 24.1192L20.9673 21.3744C21.3778 20.8872 21.583 20.5018 21.583 20.218C21.583 20.0231 21.4884 19.8548 21.2992 19.7129C21.1099 19.571 20.8661 19.5 20.5676 19.5C20.4023 19.5 20.2571 19.5222 20.1318 19.5667C20.0065 19.6112 19.8933 19.6779 19.792 19.7669C19.6907 19.8558 19.5854 19.9681 19.4762 20.1036C19.3669 20.2392 19.235 20.4022 19.0804 20.5928L17.2014 22.8548L15.4424 20.5928C15.1172 20.1735 14.8627 19.8865 14.6788 19.7319C14.4949 19.5773 14.2377 19.5 13.9072 19.5C13.6194 19.5 13.3755 19.571 13.1756 19.7129C12.9757 19.8548 12.8758 20.0147 12.8758 20.1926C12.8758 20.3662 12.9278 20.5473 13.0317 20.7358C13.1357 20.9243 13.2916 21.1499 13.4995 21.4125L15.7062 24.1192L13.0837 27.1626C12.6946 27.6159 12.5 27.9992 12.5 28.3127C12.5 28.5795 12.5946 28.7828 12.7838 28.9226C12.9731 29.0624 13.2116 29.1323 13.4995 29.1323C13.686 29.1323 13.8486 29.109 13.9872 29.0624C14.1258 29.0158 14.2457 28.9523 14.347 28.8718C14.4483 28.7913 14.5349 28.7087 14.6068 28.624C14.6788 28.5393 14.8001 28.391 14.9706 28.1792L17.1614 25.5234L19.2243 28.103C19.4855 28.4207 19.6641 28.6346 19.76 28.7447C19.856 28.8549 19.9812 28.947 20.1358 29.0211C20.2904 29.0952 20.4796 29.1323 20.7035 29.1323Z" fill="#333333" stroke="#333333"/>
</g>
</g>
</g>
</g>
</g>
</svg>
