<svg width="12" height="12" viewBox="0 0 12 12" fill="none" xmlns="http://www.w3.org/2000/svg">
<g id="icon">
<path id="Union" fill-rule="evenodd" clip-rule="evenodd" d="M8.99995 0.700195H2.99995C1.7297 0.700195 0.699951 1.72994 0.699951 3.0002V9.0002C0.699951 10.2705 1.7297 11.3002 2.99995 11.3002H8.99995C10.2702 11.3002 11.3 10.2705 11.3 9.0002V3.0002C11.3 1.72994 10.2702 0.700195 8.99995 0.700195ZM1.99995 3.0002C1.99995 2.44791 2.44767 2.0002 2.99995 2.0002H8.99995C9.55224 2.0002 9.99995 2.44791 9.99995 3.0002V9.0002C9.99995 9.55248 9.55224 10.0002 8.99995 10.0002H2.99995C2.44767 10.0002 1.99995 9.55248 1.99995 9.0002V3.0002ZM6.04998 3.5002C6.40896 3.5002 6.69998 3.79121 6.69998 4.1502V5.20015L7.84995 5.20015C8.20894 5.20015 8.49995 5.49116 8.49995 5.85015C8.49995 6.20913 8.20894 6.50015 7.84995 6.50015L6.69998 6.50015V7.85019C6.69998 8.20918 6.40896 8.5002 6.04998 8.5002C5.69099 8.5002 5.39998 8.20918 5.39998 7.85019V6.50015H4.14995C3.79097 6.50015 3.49995 6.20913 3.49995 5.85015C3.49995 5.49116 3.79097 5.20015 4.14995 5.20015H5.39998V4.1502C5.39998 3.79121 5.69099 3.5002 6.04998 3.5002Z" fill="white"/>
</g>
</svg>
