<svg width="14" height="12" viewBox="0 0 14 12" fill="none" xmlns="http://www.w3.org/2000/svg">
<g id="icon/&#228;&#191;&#157;&#229;&#173;&#152;">
<g id="&#230;&#146;&#164;&#233;&#148;&#128;">
<g id="&#228;&#186;&#145;&#229;&#130;&#168;&#229;&#173;&#152;">
<path id="&#229;&#189;&#162;&#231;&#138;&#182;" d="M10.7446 4.37083C10.4706 2.43032 8.84234 0.993564 6.92586 1.00002C5.00937 1.00652 3.39066 2.45624 3.1309 4.39674C1.86222 4.69965 0.97367 5.86913 1.0006 7.20222C1.02911 8.7313 2.29303 9.97533 3.82147 9.97533C3.97827 9.97692 4.12399 9.89269 4.20318 9.75339C4.28238 9.61409 4.28238 9.44239 4.20318 9.30471C4.12399 9.16541 3.97827 9.08118 3.82147 9.0828C2.76661 9.0828 1.89231 8.23241 1.87331 7.18602C1.85272 6.24169 2.50527 5.42207 3.41283 5.24875C3.7201 5.19206 3.95293 4.93452 3.98302 4.61704C4.13983 3.07176 5.41009 1.89741 6.92902 1.89255C8.44796 1.88769 9.72614 3.05556 9.89086 4.59922C9.92571 4.92804 10.176 5.18882 10.4959 5.23256C11.4288 5.367 12.1225 6.18175 12.1273 7.14391C12.1257 7.64928 11.9261 8.1336 11.5729 8.48672C11.2055 8.86413 10.7066 9.07794 10.1839 9.08118C10.0271 9.07956 9.88136 9.16379 9.80217 9.30309C9.72297 9.44239 9.72297 9.61409 9.80217 9.75177C9.88136 9.89107 10.0271 9.97533 10.1839 9.97368C10.9362 9.96882 11.6585 9.66106 12.1906 9.11681C12.7086 8.59524 13 7.88415 13 7.14229C12.9952 5.78491 12.0481 4.62352 10.7446 4.37083ZM9.45213 7.21842L7.60217 5.67962C7.344 5.46581 6.97496 5.46581 6.7152 5.67962L4.86524 7.21842C4.74328 7.31885 4.68468 7.47759 4.70844 7.63633C4.73378 7.79345 4.83831 7.92627 4.98403 7.98296C5.12975 8.03965 5.29447 8.01212 5.41484 7.91169L6.72154 6.82481V10.8403C6.72154 11.0865 6.91635 11.2857 7.1571 11.2857C7.39785 11.2857 7.59267 11.0865 7.59267 10.8403V6.82157L8.89936 7.90845C9.08626 8.06395 9.36027 8.03479 9.51232 7.84366C9.66595 7.65414 9.63903 7.37392 9.45213 7.21842Z" fill="white" stroke="white" stroke-width="0.5"/>
</g>
</g>
</g>
</svg>
