<svg width="12" height="12" viewBox="0 0 12 12" fill="none" xmlns="http://www.w3.org/2000/svg">
<g id="icon/&#230;&#146;&#164;&#233;&#148;&#128;">
<path id="&#232;&#183;&#175;&#229;&#190;&#132;" d="M2.4703 1.99239H7.0106C9.38266 1.99239 11.3063 3.90771 11.3063 6.26996C11.3063 8.63297 9.38266 10.5483 7.0106 10.5483H1.28427C1.09472 10.5487 0.912792 10.4737 0.778551 10.3399C0.64431 10.2061 0.568769 10.0244 0.568569 9.83486C0.568569 9.44152 0.889425 9.12218 1.28427 9.12218H7.0106C7.76858 9.12378 8.49615 8.82416 9.03319 8.28924C9.57023 7.75433 9.87274 7.02795 9.87414 6.26996C9.87254 5.5121 9.56994 4.78592 9.03293 4.25117C8.49591 3.71642 7.76845 3.4169 7.0106 3.4185H2.42047L3.24715 4.24291C3.43369 4.42174 3.50854 4.6877 3.44266 4.93758C3.37678 5.18746 3.18053 5.38193 2.93007 5.44555C2.6799 5.51083 2.41395 5.43642 2.234 5.25077L0.212231 3.23504C0.0781655 3.10146 0.00280762 2.91999 0.00280762 2.73074C0.00280762 2.54148 0.0781655 2.36001 0.212231 2.22643L2.234 0.209187C2.51413 -0.0697291 2.96702 -0.0697291 3.24715 0.209187C3.52648 0.487011 3.52648 0.938473 3.24715 1.21705L2.46954 1.99163L2.4703 1.99239Z" fill="white"/>
</g>
</svg>
