<svg width="12" height="12" viewBox="0 0 12 12" fill="none" xmlns="http://www.w3.org/2000/svg">
<g id="icon/&#233;&#135;&#141;&#229;&#129;&#154;">
<path id="&#232;&#183;&#175;&#229;&#190;&#132;" d="M8.84597 1.99175H4.30568C1.93361 1.99175 0.0107422 3.90631 0.0107422 6.26932C0.0107422 8.63233 1.93361 10.5469 4.30568 10.5469H10.032C10.2214 10.5473 10.4032 10.4724 10.5375 10.3388C10.6717 10.2051 10.7473 10.0236 10.7477 9.83421C10.7473 9.6448 10.6717 9.4633 10.5375 9.32965C10.4032 9.196 10.2214 9.12114 10.032 9.12154H4.30568C3.54769 9.12314 2.82012 8.82352 2.28308 8.2886C1.74604 7.75368 1.44354 7.02731 1.44214 6.26932C1.44354 5.51133 1.74604 4.78496 2.28308 4.25004C2.82012 3.71512 3.54769 3.4155 4.30568 3.4171H8.89656L8.06837 4.24227C7.88183 4.4211 7.80698 4.68705 7.87286 4.93693C7.93874 5.18681 8.13499 5.38129 8.38545 5.44491C8.63562 5.51019 8.90157 5.43577 9.08152 5.25013L11.1056 3.2344C11.2399 3.10079 11.3154 2.91916 11.3154 2.72972C11.3154 2.54027 11.2399 2.35864 11.1056 2.22503L9.08152 0.2093C8.80148 -0.0691156 8.34917 -0.0691156 8.06913 0.2093C7.93511 0.342755 7.85977 0.524098 7.85977 0.713232C7.85977 0.902366 7.93511 1.08371 8.06913 1.21716L8.84673 1.99175H8.84597Z" fill="white"/>
</g>
</svg>
