<svg width="22" height="15" viewBox="0 0 22 15" fill="none" xmlns="http://www.w3.org/2000/svg">
<g id="&#232;&#189;&#172;&#232;&#176;&#131;">
<path id="Vector" d="M21.8988 14.7606V15.0002H0.101196V14.7606H21.8988ZM21.8988 11.7904V12.0299H0.101196V11.7904H21.8988ZM6.06864 6.60502V7.56316L6.4484 7.44339V8.0542L6.06864 8.16199L6.0682 8.8195L21.8988 8.82019V9.05972L6.0682 9.0595L6.06864 9.32373L6.4484 9.21594V9.82675L6.06864 9.94652V11.0005H5.8853V9.99443L5.17816 10.21V11.2161H4.99483V10.2579L4.61507 10.3657V9.75489L4.99483 9.63513L4.9942 9.0595L0.101196 9.05972V8.82019L4.9942 8.8195L4.99483 8.47339L4.61507 8.58118V7.97037L4.99483 7.86258V6.8206H5.17816V7.82664L5.8853 7.61106V6.60502H6.06864ZM5.8852 9.0595H5.1772L5.17816 9.5992L5.8853 9.38362L5.8852 9.0595ZM5.8853 8.22188L5.17816 8.43746L5.1772 8.8195H5.8852L5.8853 8.22188ZM3.24812 3.55887V4.517L3.62789 4.39724V5.00805L3.24812 5.11584L3.2472 5.8375L21.8988 5.83799V6.07752L3.2472 6.0775L3.24812 6.27758L3.62789 6.16979V6.7806L3.24812 6.90037V7.95432H3.06479V6.94827L2.35765 7.16385V8.1699H2.17431V7.21176L1.79455 7.31955V6.70874L2.17431 6.58897L2.1742 6.0775L0.101196 6.07752V5.83799L2.1742 5.8375L2.17431 5.42723L1.79455 5.53502V4.92421L2.17431 4.81642V3.77445H2.35765V4.78049L3.06479 4.56491V3.55887H3.24812ZM3.0642 6.0775H2.3572L2.35765 6.55304L3.06479 6.33746L3.0642 6.0775ZM3.06479 5.17572L2.35765 5.3913L2.3572 5.8375H3.0642L3.06479 5.17572ZM8.88915 0.4375V1.39564L9.26891 1.27587V1.88668L8.88915 1.99447L8.8882 2.8675L21.8988 2.86777V3.1073L9.2682 3.1065L9.26891 3.65923L8.88915 3.779V4.83295H8.70582V3.82691L7.99867 4.04249V5.04853H7.81534V4.09039L7.43558 4.19818V3.58737L7.81534 3.46761L7.8152 3.1065L0.101196 3.1073V2.86777L7.8152 2.8675L7.81534 2.30587L7.43558 2.41366V1.80284L7.81534 1.69505V0.653081H7.99867V1.65912L8.70582 1.44354V0.4375H8.88915ZM8.7052 3.1065H7.9982L7.99867 3.43167L8.70582 3.21609L8.7052 3.1065ZM8.70582 2.05435L7.99867 2.26994L7.9982 2.8675H8.7052L8.70582 2.05435Z" fill="white"/>
</g>
</svg>
