<svg width="22" height="13" viewBox="0 0 22 13" fill="none" xmlns="http://www.w3.org/2000/svg">
<g id="&#232;&#189;&#172;&#230;&#139;&#141;">
<path id="Vector" d="M21.9614 12.7593V13.0001H0.0514426V12.7593H21.9614ZM3.68625 7.03492C3.56587 7.58869 3.13248 8.25081 2.3861 8.99719C2.10609 9.2772 1.8627 9.53608 1.65641 9.77432L2.5296 9.77318L2.53056 9.52688L4.05944 8.16654L4.0586 9.77318L21.9614 9.77381V10.0146L4.0586 10.0142L4.05944 10.9233H4.8299V11.441H4.05944V11.754C4.0474 11.8744 4.0474 11.9466 4.0474 11.9827C4.0474 12.2837 4.15575 12.3559 4.74563 12.392L4.79379 12.7411H1.78418L1.80825 12.4041C2.19348 12.38 2.42221 12.2957 2.49445 12.1633C2.51852 12.1031 2.53056 11.8623 2.53056 11.429H0.0386047V10.9354C0.240679 10.6779 0.440106 10.3622 0.625418 10.0147L0.0514426 10.0146V9.77381L0.749035 9.77407C1.18899 8.8848 1.52724 7.83902 1.59156 7.03492H3.68625ZM2.5296 10.0142L1.45489 10.0151C1.17048 10.3681 0.978649 10.6702 0.881295 10.9233H2.53056L2.5296 10.0142ZM21.9614 6.78828V7.02905H0.0514426V6.78828H21.9614ZM21.9614 0.805176V1.04594L3.66191 1.0449C4.19852 1.29237 4.50486 1.73157 4.50486 2.33994C4.50486 2.91778 4.1076 3.47155 3.52975 3.6762L3.54179 3.68824C3.64813 3.71278 3.74925 3.7467 3.84387 3.78923L21.9614 3.79071V4.03148L4.21575 4.03103C4.46353 4.25714 4.61321 4.57037 4.61321 4.94024C4.61321 6.04777 3.7946 6.61358 2.43425 6.61358C1.25449 6.61358 0.351604 6.14408 0.351604 5.34954C0.351604 4.91616 0.712757 4.6152 1.14614 4.6152C1.54341 4.6152 1.89252 4.89208 1.89252 5.27731C1.89252 5.59031 1.77214 5.83108 1.53137 6.0237C1.68787 6.15612 1.94068 6.22835 2.26572 6.22835C2.86764 6.22835 3.19267 5.74681 3.19267 5.14489C3.19267 4.4587 2.93987 4.12162 2.42221 4.01328L2.4926 4.03118L0.0514426 4.03148V3.79071L1.54348 3.78919C1.54642 3.37741 1.64613 3.44674 2.06106 3.39932C2.83152 3.32709 3.15656 3.09836 3.15656 2.3279C3.15656 1.58151 2.79541 1.20832 2.0731 1.20832C1.78418 1.20832 1.6036 1.26851 1.49526 1.37686C1.71195 1.61763 1.94068 1.84636 1.94068 2.23159C1.94068 2.61682 1.6036 2.85759 1.19429 2.85759C0.760911 2.85759 0.411796 2.54459 0.411796 2.08713C0.411796 1.61624 0.690804 1.26025 1.15779 1.04548L0.0514426 1.04594V0.805176H21.9614Z" fill="white"/>
</g>
</svg>
