<svg width="12" height="12" viewBox="0 0 12 12" fill="none" xmlns="http://www.w3.org/2000/svg">
<g id="icon/&#233;&#162;&#132;&#232;&#167;&#136;">
<path id="&#232;&#183;&#175;&#229;&#190;&#132;" d="M6 12H1.58672C0.711328 12 0 11.2887 0 10.4133V1.58672C0 0.711328 0.711328 0 1.58672 0H10.4133C11.2887 0 12 0.711328 12 1.58672V6C12 6.2918 11.7645 6.52734 11.4727 6.52734C11.1809 6.52734 10.9453 6.2918 10.9453 6V1.58672C10.9453 1.29375 10.7063 1.05469 10.4133 1.05469H1.58672C1.29375 1.05469 1.05469 1.29375 1.05469 1.58672V10.4133C1.05469 10.7063 1.29375 10.9453 1.58672 10.9453H6C6.2918 10.9453 6.52734 11.1809 6.52734 11.4727C6.52734 11.7645 6.2918 12 6 12Z" fill="white"/>
<path id="&#229;&#189;&#162;&#231;&#138;&#182;" d="M6 9.39844C5.0918 9.39844 4.23867 9.04453 3.59648 8.40352C2.95547 7.76133 2.60156 6.9082 2.60156 6C2.60156 5.0918 2.95547 4.23867 3.59648 3.59648C4.2375 2.9543 5.0918 2.60156 6 2.60156C6.9082 2.60156 7.76133 2.95547 8.40352 3.59648C9.04453 4.23867 9.39844 5.0918 9.39844 6C9.39844 6.9082 9.04453 7.76133 8.40352 8.40352C7.76133 9.04453 6.9082 9.39844 6 9.39844ZM6 3.65625C4.70742 3.65625 3.65625 4.70742 3.65625 6C3.65625 7.29258 4.70742 8.34375 6 8.34375C7.29258 8.34375 8.34375 7.29258 8.34375 6C8.34375 4.70742 7.29258 3.65625 6 3.65625Z" fill="white"/>
<path id="&#232;&#183;&#175;&#229;&#190;&#132;_2" d="M11.4668 11.9941C11.332 11.9941 11.1973 11.9426 11.0941 11.8395L7.65469 8.4C7.44844 8.19375 7.44844 7.85977 7.65469 7.65469C7.86094 7.44844 8.19492 7.44844 8.4 7.65469L11.8395 11.0941C12.0457 11.3004 12.0457 11.6344 11.8395 11.8395C11.7363 11.9426 11.6016 11.9941 11.4668 11.9941Z" fill="white"/>
</g>
</svg>
