<svg width="12" height="12" viewBox="0 0 12 12" fill="none" xmlns="http://www.w3.org/2000/svg">
<g id="icon">
<line id="Line 16" x1="0.65" y1="11.35" x2="11.35" y2="11.35" stroke="white" stroke-width="1.3" stroke-linecap="round"/>
<path id="Union" fill-rule="evenodd" clip-rule="evenodd" d="M1.40379 4.67686L5.54037 0.540282C5.79421 0.286442 6.20576 0.286442 6.45961 0.540282L10.5962 4.67686C10.85 4.9307 10.85 5.34226 10.5962 5.5961C10.3423 5.84994 9.93078 5.84994 9.67694 5.5961L6.64999 2.56914L6.64999 9.9999C6.64999 10.3589 6.35897 10.6499 5.99999 10.6499C5.641 10.6499 5.34999 10.3589 5.34999 9.9999L5.34999 2.56914L2.32303 5.5961C2.06919 5.84994 1.65763 5.84994 1.40379 5.5961C1.14995 5.34226 1.14995 4.9307 1.40379 4.67686Z" fill="white"/>
</g>
</svg>
