<svg width="34" height="34" viewBox="0 0 34 34" fill="none" xmlns="http://www.w3.org/2000/svg">
<g id="&#233;&#153;&#132;&#231;&#130;&#185;/&#229;&#141;&#149;&#233;&#153;&#132;&#231;&#130;&#185;">
<g id="&#233;&#153;&#132;&#231;&#130;&#185;/&#229;&#141;&#149;&#233;&#153;&#132;&#231;&#130;&#185;_2">
<g id="Frame 1">
<g id="X">
<g id="&#231;&#188;&#150;&#231;&#187;&#132;">
<g id="X_2">
<path id="Vector" d="M18.2035 21.6323C18.4114 21.6323 18.5979 21.5963 18.7632 21.5243C18.9284 21.4523 19.0564 21.3549 19.147 21.232C19.2376 21.1092 19.2829 20.9736 19.2829 20.8254C19.2829 20.6686 19.2323 20.5024 19.131 20.3266C19.0297 20.1508 18.8671 19.9295 18.6432 19.6626L16.1566 16.6192L18.4673 13.8744C18.8778 13.3872 19.083 13.0018 19.083 12.718C19.083 12.5231 18.9884 12.3548 18.7992 12.2129C18.6099 12.071 18.3661 12 18.0676 12C17.9023 12 17.7571 12.0222 17.6318 12.0667C17.5065 12.1112 17.3933 12.1779 17.292 12.2669C17.1907 12.3558 17.0854 12.4681 16.9762 12.6036C16.8669 12.7392 16.735 12.9022 16.5804 13.0928L14.7014 15.3548L12.9424 13.0928C12.6172 12.6735 12.3627 12.3865 12.1788 12.2319C11.9949 12.0773 11.7377 12 11.4072 12C11.1194 12 10.8755 12.071 10.6756 12.2129C10.4757 12.3548 10.3758 12.5147 10.3758 12.6926C10.3758 12.8662 10.4278 13.0473 10.5317 13.2358C10.6357 13.4243 10.7916 13.6499 10.9995 13.9125L13.2062 16.6192L10.5837 19.6626C10.1946 20.1159 10 20.4992 10 20.8127C10 21.0795 10.0946 21.2828 10.2838 21.4226C10.4731 21.5624 10.7116 21.6323 10.9995 21.6323C11.186 21.6323 11.3486 21.609 11.4872 21.5624C11.6258 21.5158 11.7457 21.4523 11.847 21.3718C11.9483 21.2913 12.0349 21.2087 12.1068 21.124C12.1788 21.0393 12.3001 20.891 12.4706 20.6792L14.6614 18.0234L16.7243 20.603C16.9855 20.9207 17.1641 21.1346 17.26 21.2447C17.356 21.3549 17.4812 21.447 17.6358 21.5211C17.7904 21.5952 17.9796 21.6323 18.2035 21.6323Z" fill="#333333" stroke="#333333"/>
</g>
</g>
</g>
<g id="Frame 2">
<g id="&#230;&#164;&#173;&#229;&#156;&#134;&#229;&#189;&#162;">
<path id="&#230;&#164;&#173;&#229;&#156;&#134;&#229;&#189;&#162;_2" d="M24 18.5C24.8284 18.5 25.5 17.8284 25.5 17C25.5 16.1716 24.8284 15.5 24 15.5C23.1716 15.5 22.5 16.1716 22.5 17C22.5 17.8284 23.1716 18.5 24 18.5Z" fill="#333333"/>
</g>
</g>
</g>
</g>
</g>
</svg>
