<svg width="34" height="34" viewBox="0 0 34 34" fill="none" xmlns="http://www.w3.org/2000/svg">
<g id="&#233;&#153;&#132;&#231;&#130;&#185;/&#229;&#164;&#141;&#233;&#153;&#132;&#231;&#130;&#185;">
<g id="Frame 1">
<g id="X">
<g id="&#231;&#188;&#150;&#231;&#187;&#132;">
<g id="X_2">
<path id="Vector" d="M15.7035 21.6323C15.9114 21.6323 16.0979 21.5963 16.2632 21.5243C16.4284 21.4523 16.5564 21.3549 16.647 21.232C16.7376 21.1092 16.7829 20.9736 16.7829 20.8254C16.7829 20.6686 16.7323 20.5024 16.631 20.3266C16.5297 20.1508 16.3671 19.9295 16.1432 19.6626L13.6566 16.6192L15.9673 13.8744C16.3778 13.3872 16.583 13.0018 16.583 12.718C16.583 12.5231 16.4884 12.3548 16.2992 12.2129C16.1099 12.071 15.8661 12 15.5676 12C15.4023 12 15.2571 12.0222 15.1318 12.0667C15.0065 12.1112 14.8933 12.1779 14.792 12.2669C14.6907 12.3558 14.5854 12.4681 14.4762 12.6036C14.3669 12.7392 14.235 12.9022 14.0804 13.0928L12.2014 15.3548L10.4424 13.0928C10.1172 12.6735 9.8627 12.3865 9.6788 12.2319C9.4949 12.0773 9.23771 12 8.90723 12C8.61938 12 8.37552 12.071 8.17563 12.2129C7.97574 12.3548 7.87579 12.5147 7.87579 12.6926C7.87579 12.8662 7.92776 13.0473 8.03171 13.2358C8.13565 13.4243 8.29156 13.6499 8.49945 13.9125L10.7062 16.6192L8.08368 19.6626C7.69456 20.1159 7.5 20.4992 7.5 20.8127C7.5 21.0795 7.59461 21.2828 7.78384 21.4226C7.97307 21.5624 8.21161 21.6323 8.49945 21.6323C8.68601 21.6323 8.84859 21.609 8.98718 21.5624C9.12577 21.5158 9.24571 21.4523 9.34698 21.3718C9.44826 21.2913 9.53488 21.2087 9.60684 21.124C9.6788 21.0393 9.80007 20.891 9.97064 20.6792L12.1614 18.0234L14.2243 20.603C14.4855 20.9207 14.6641 21.1346 14.76 21.2447C14.856 21.3549 14.9812 21.447 15.1358 21.5211C15.2904 21.5952 15.4796 21.6323 15.7035 21.6323Z" fill="#333333" stroke="#333333"/>
</g>
</g>
</g>
<g id="Frame 2">
<g id="&#230;&#164;&#173;&#229;&#156;&#134;&#229;&#189;&#162;">
<path id="&#230;&#164;&#173;&#229;&#156;&#134;&#229;&#189;&#162;_2" d="M21.5 18.5C22.3284 18.5 23 17.8284 23 17C23 16.1716 22.3284 15.5 21.5 15.5C20.6716 15.5 20 16.1716 20 17C20 17.8284 20.6716 18.5 21.5 18.5Z" fill="#333333"/>
</g>
<g id="&#230;&#164;&#173;&#229;&#156;&#134;&#229;&#189;&#162;_3">
<path id="&#230;&#164;&#173;&#229;&#156;&#134;&#229;&#189;&#162;_4" d="M26.5 18.5C27.3284 18.5 28 17.8284 28 17C28 16.1716 27.3284 15.5 26.5 15.5C25.6716 15.5 25 16.1716 25 17C25 17.8284 25.6716 18.5 26.5 18.5Z" fill="#333333"/>
</g>
</g>
</g>
</g>
</svg>
