<svg width="34" height="34" viewBox="0 0 34 34" fill="none" xmlns="http://www.w3.org/2000/svg">
<g id="&#229;&#128;&#154;&#233;&#159;&#179;/&#229;&#137;&#141;&#229;&#128;&#154;&#233;&#159;&#179;">
<g id="Frame 1">
<g id="X">
<g id="&#231;&#188;&#150;&#231;&#187;&#132;">
<g id="X_2">
<path id="Vector" d="M20.7035 15.6323C20.9114 15.6323 21.0979 15.5963 21.2632 15.5243C21.4284 15.4523 21.5564 15.3549 21.647 15.232C21.7376 15.1092 21.7829 14.9736 21.7829 14.8254C21.7829 14.6686 21.7323 14.5024 21.631 14.3266C21.5297 14.1508 21.3671 13.9295 21.1432 13.6626L18.6566 10.6192L20.9673 7.87436C21.3778 7.38724 21.583 7.00178 21.583 6.71797C21.583 6.52313 21.4884 6.35475 21.2992 6.21285C21.1099 6.07095 20.8661 6 20.5676 6C20.4023 6 20.2571 6.02224 20.1318 6.06671C20.0065 6.11119 19.8933 6.17791 19.792 6.26686C19.6907 6.35581 19.5854 6.46806 19.4762 6.60361C19.3669 6.73915 19.235 6.90223 19.0804 7.09285L17.2014 9.35479L15.4424 7.09285C15.1172 6.6735 14.8627 6.38652 14.6788 6.23191C14.4949 6.0773 14.2377 6 13.9072 6C13.6194 6 13.3755 6.07095 13.1756 6.21285C12.9757 6.35475 12.8758 6.51465 12.8758 6.69256C12.8758 6.86623 12.9278 7.04731 13.0317 7.23581C13.1357 7.4243 13.2916 7.64986 13.4995 7.91248L15.7062 10.6192L13.0837 13.6626C12.6946 14.1159 12.5 14.4992 12.5 14.8127C12.5 15.0795 12.5946 15.2828 12.7838 15.4226C12.9731 15.5624 13.2116 15.6323 13.4995 15.6323C13.686 15.6323 13.8486 15.609 13.9872 15.5624C14.1258 15.5158 14.2457 15.4523 14.347 15.3718C14.4483 15.2913 14.5349 15.2087 14.6068 15.124C14.6788 15.0393 14.8001 14.891 14.9706 14.6792L17.1614 12.0234L19.2243 14.603C19.4855 14.9207 19.6641 15.1346 19.76 15.2447C19.856 15.3549 19.9812 15.447 20.1358 15.5211C20.2904 15.5952 20.4796 15.6323 20.7035 15.6323Z" fill="#333333" stroke="#333333"/>
</g>
</g>
</g>
<g id="&#229;&#128;&#154;&#233;&#159;&#179;">
<g id="Frame 9">
<path id="Union" fill-rule="evenodd" clip-rule="evenodd" d="M12 18H22V19.05H12V18ZM11.1313 27.5C14.3636 27.5 17.0449 25.1406 17.5469 22.05H22V21H17.6313H16.6313H12V22.05H16.5311C16.041 24.5853 13.8097 26.5 11.1313 26.5V27.5Z" fill="#333333"/>
</g>
</g>
</g>
</g>
</svg>
