<svg width="34" height="34" viewBox="0 0 34 34" fill="none" xmlns="http://www.w3.org/2000/svg">
<g id="&#232;&#191;&#158;&#233;&#159;&#179;&#231;&#186;&#191;/&#229;&#187;&#182;&#233;&#159;&#179;&#231;&#186;&#191;">
<g id="yinfuSVG-_14">
<path id="&#232;&#183;&#175;&#229;&#190;&#132;" d="M3 11.5125C8.58405 7.28861 25.416 7.28861 31 11.5125C25.416 5.9125 8.56809 5.9125 3 11.5125Z" fill="#333333"/>
<g id="&#229;&#187;&#182;&#233;&#159;&#179;">
<path d="M7.3258 17.3686V18.0821H9.36469C8.8392 18.9902 8.25066 19.8334 7.59905 20.6118V21.174H9.57488C9.51182 22.2334 9.28061 23.1416 8.90226 23.9199C8.52391 23.401 8.19811 22.7524 7.90384 21.974L7.26274 22.2226C7.59905 23.174 8.00893 23.9632 8.49238 24.5902C8.10352 25.1199 7.60956 25.5632 7 25.9199L7.37835 26.601C8.01944 26.2118 8.56595 25.7253 9.00736 25.1416C9.25959 25.3794 9.55386 25.5848 9.86915 25.7361C10.9201 26.2443 12.6227 26.5037 14.9874 26.5037H16.5638L16.711 25.7253C15.9963 25.7686 15.3132 25.7902 14.6406 25.7902C12.6752 25.7686 11.2354 25.5632 10.3211 25.1632C10.0058 25.0118 9.701 24.7956 9.40673 24.5145C9.93221 23.5524 10.2055 22.3632 10.2475 20.9578V20.5145H8.56595C9.09143 19.8443 9.62743 19.0118 10.195 17.9956V17.3686H7.3258ZM11.288 19.7253V24.4064H16.3116V23.6713H14.1256V21.0551H15.9543V20.3416H14.1256V18.1145C14.8823 17.9848 15.5654 17.801 16.154 17.5632L15.7861 16.9037C14.4829 17.3902 12.8329 17.6389 10.8466 17.6389L11.0778 18.3416C11.908 18.3416 12.6858 18.2983 13.4004 18.2118V23.6713H12.0131V19.7253H11.288Z" fill="#333333"/>
<path d="M25.6442 21.8659H19.1282V26.6875H19.8954V26.1902H24.877V26.6875H25.6442V21.8659ZM19.8954 25.4983V24.374H24.877V25.4983H19.8954ZM19.8954 23.7037V22.5578H24.877V23.7037H19.8954ZM18.2244 17.8334V18.547H19.8639C20.0741 19.0767 20.2738 19.6497 20.4419 20.2767H17.7304V21.001H27V20.2767H24.2044C24.4777 19.7253 24.6879 19.1524 24.8455 18.547H26.5166V17.8334H22.8066C22.6595 17.401 22.5018 17.0226 22.3337 16.6875L21.5349 16.8172C21.7136 17.1199 21.8818 17.4659 22.0394 17.8334H18.2244ZM20.6626 18.547H24.0888C23.9627 19.1524 23.7525 19.7253 23.4687 20.2767H21.1986C21.0305 19.6497 20.8518 19.0659 20.6626 18.547Z" fill="#333333"/>
</g>
</g>
</g>
</svg>
