<svg width="34" height="34" viewBox="0 0 34 34" fill="none" xmlns="http://www.w3.org/2000/svg">
<g id="&#232;&#191;&#158;&#233;&#159;&#179;&#231;&#186;&#191;/&#229;&#156;&#134;&#230;&#187;&#145;&#231;&#186;&#191;">
<g id="yinfuSVG-_14">
<path id="&#232;&#183;&#175;&#229;&#190;&#132;" d="M2.59998 11.32C8.34357 6.97543 25.6564 6.97543 31.4 11.32C25.6564 5.56 8.32715 5.56 2.59998 11.32Z" fill="#333333"/>
<g id="&#229;&#156;&#134;&#230;&#187;&#145;">
<path d="M13.8808 21.1806H8.99238V23.8785H9.75449V21.8049H13.1296V23.8673H13.8808V21.1806ZM9.47142 18.6276V20.5897H13.4453V18.6276H9.47142ZM12.7158 20.0212H10.2009V19.1851H12.7158V20.0212ZM11.9646 23.7001L11.5944 24.2687C12.4328 24.5697 13.2493 24.9822 14.055 25.5173L14.4796 24.8595C13.7175 24.4025 12.8792 24.0123 11.9646 23.7001ZM11.159 22.2174C11.061 22.942 10.8214 23.4994 10.4295 23.9008C10.0267 24.2798 9.37343 24.5808 8.46979 24.7926L8.75286 25.495C9.8307 25.2274 10.5819 24.8484 11.0174 24.3802C11.4856 23.8562 11.7686 23.165 11.8775 22.2954L11.159 22.2174ZM15.9058 17.2676H7V27H7.79477V26.5318H15.1111V27H15.9058V17.2676ZM7.79477 25.796V18.0033H15.1111V25.796H7.79477Z" fill="#333333"/>
<path d="M21.883 19.33H23.4616V20.1773H21.883V19.33ZM24.1257 20.1773V18.7168H21.883V17.8807H25.4867V20.1773H24.1257ZM26.227 20.1773V17.1784H21.1426V20.1773H20.2825V22.0279H21.0337V20.8685H26.2597V22.039H27V20.1773H26.227ZM25.1927 26.9777C25.7588 26.9777 26.0528 26.6878 26.0528 26.1193V21.5931H21.2842V27H22.0354V25.2163H25.3234V25.9632C25.3234 26.175 25.2036 26.2865 24.9641 26.2865L23.8971 26.2642L24.0931 26.9777H25.1927ZM22.0354 24.5808V23.7336H25.3234V24.5808H22.0354ZM22.0354 23.0981V22.2731H25.3234V23.0981H22.0354ZM18.2466 17L17.7131 17.5128C18.5514 18.1371 19.2047 18.7168 19.6837 19.2631L20.2172 18.7168C19.6837 18.1483 19.0305 17.5797 18.2466 17ZM18.1377 19.7202L17.6042 20.233C18.3664 20.835 18.9543 21.3924 19.3898 21.9164L19.9124 21.3701C19.4333 20.8127 18.8454 20.2664 18.1377 19.7202ZM19.1938 22.8974C18.7583 24.1683 18.2466 25.4169 17.6478 26.6433L18.3446 26.9666C18.9107 25.7848 19.4224 24.5139 19.8797 23.165L19.1938 22.8974Z" fill="#333333"/>
</g>
</g>
</g>
</svg>
