<svg width="34" height="34" viewBox="0 0 34 34" fill="none" xmlns="http://www.w3.org/2000/svg">
<g id="&#228;&#184;&#180;&#230;&#151;&#182;&#232;&#174;&#176;&#229;&#143;&#183;/&#233;&#153;&#141;&#229;&#143;&#183;">
<g id="Frame 1">
<g id="&#228;&#184;&#180;&#230;&#151;&#182;&#232;&#174;&#176;&#229;&#143;&#183;">
<g id="Frame 5">
<g id="yinfuSVG-">
<path id="&#229;&#189;&#162;&#231;&#138;&#182;" d="M12.8 7.42871H14.0912L13.8222 17.7469C14.6292 16.6492 15.8667 16.1223 17.5345 16.1223C19.9555 16.1223 22 17.4834 22 19.3275C21.8924 20.5569 20.9778 22.2254 18.4491 23.7182L12.8 27.143V7.42871ZM13.9298 18.8006C13.7684 20.03 13.7146 21.1277 13.7146 22.0059C13.7146 23.6304 13.8222 24.6842 13.9298 25.255C16.0281 24.1573 18.7719 20.9082 18.7719 19.1958C18.7719 18.1859 17.8035 17.4395 16.5123 17.4395C15.3824 17.4395 14.5754 17.8786 13.9298 18.8006Z" fill="#333333"/>
</g>
</g>
</g>
</g>
</g>
</svg>
