<svg width="34" height="34" viewBox="0 0 34 34" fill="none" xmlns="http://www.w3.org/2000/svg">
<g id="&#228;&#184;&#180;&#230;&#151;&#182;&#232;&#174;&#176;&#229;&#143;&#183;/&#233;&#135;&#141;&#229;&#141;&#135;&#232;&#174;&#176;&#229;&#143;&#183;">
<g id="Frame 1">
<g id="&#228;&#184;&#180;&#230;&#151;&#182;&#232;&#174;&#176;&#229;&#143;&#183;">
<g id="Frame 7">
<g id="yinfuSVG-_6">
<path id="&#232;&#183;&#175;&#229;&#190;&#132;" d="M23 11.7998H19.7737C19.7737 13.4728 18.9901 15.1459 17.3769 16.7259C15.8099 15.1459 15.0263 13.5193 15.0263 11.7998H11.8V15.0529C13.5053 15.0529 15.1646 15.843 16.6856 17.423C15.1185 19.0031 13.5053 19.7467 11.8 19.7467V22.9998H15.0263C15.0263 21.2803 15.8099 19.6073 17.3769 18.0737C18.944 19.7002 19.7737 21.3268 19.7737 22.9998H23V19.7467H22.6313C21.1103 19.7467 19.5893 18.9567 18.0683 17.423C19.5432 15.9359 21.1564 15.1459 22.9539 15.0529V11.7998H23Z" fill="#333333"/>
</g>
</g>
</g>
</g>
</g>
</svg>
