<svg width="34" height="34" viewBox="0 0 34 34" fill="none" xmlns="http://www.w3.org/2000/svg">
<g id="&#228;&#184;&#180;&#230;&#151;&#182;&#232;&#174;&#176;&#229;&#143;&#183;/&#233;&#135;&#141;&#233;&#153;&#141;&#232;&#174;&#176;&#229;&#143;&#183;">
<g id="Frame 1">
<g id="&#228;&#184;&#180;&#230;&#151;&#182;&#232;&#174;&#176;&#229;&#143;&#183;">
<g id="Frame 8">
<g id="yinfuSVG-_11">
<path id="&#229;&#189;&#162;&#231;&#138;&#182;" d="M11.0476 6.57129H12.0235L11.8017 16.7413C12.3783 15.6859 13.3098 15.1582 14.5962 15.1582C15.6164 15.1582 16.4592 15.542 17.1246 16.3096V6.57129H18.1004L17.8787 16.7413C18.4553 15.6859 19.3868 15.1582 20.6732 15.1582C22.4475 15.1582 24 16.5014 24 18.3244C23.9556 19.6196 23.1572 21.1067 21.3829 22.6418C20.0078 23.7932 18.5884 24.8485 17.1689 25.9999V20.579C16.1931 22.1141 13.4873 24.1769 11.092 25.9999V6.57129H11.0476ZM11.9348 17.7967C11.8017 19.044 11.7573 20.0993 11.7573 20.9628C11.7573 22.5459 11.8017 23.6013 11.8904 24.1769C13.4429 23.1216 15.4834 19.8595 15.4834 18.1805C15.4834 17.1731 14.7736 16.4535 13.7978 16.4535C12.9993 16.4535 12.3783 16.9332 11.9348 17.7967ZM18.0117 17.7967C17.8787 19.044 17.8343 20.0993 17.8343 20.9628C17.8343 22.5459 17.8787 23.6013 17.9674 24.1769C19.5199 23.1216 21.5603 19.8595 21.5603 18.1805C21.5603 17.1731 20.8506 16.4535 19.8747 16.4535C19.0763 16.4535 18.4553 16.9332 18.0117 17.7967Z" fill="#333333"/>
</g>
</g>
</g>
</g>
</g>
</svg>
