<svg width="20" height="20" viewBox="0 0 20 20" fill="none" xmlns="http://www.w3.org/2000/svg">
<g id="icon/&#229;&#162;&#158;&#229;&#138;&#160;">
<path id="Union" fill-rule="evenodd" clip-rule="evenodd" d="M9.75 3C9.33579 3 9 3.33579 9 3.75V9H3.75C3.33579 9 3 9.33579 3 9.75C3 10.1642 3.33579 10.5 3.75 10.5H9V16.25C9 16.6642 9.33579 17 9.75 17C10.1642 17 10.5 16.6642 10.5 16.25V10.5H16.25C16.6642 10.5 17 10.1642 17 9.75C17 9.33579 16.6642 9 16.25 9H10.5V3.75C10.5 3.33579 10.1642 3 9.75 3Z" fill="#4C9FF4"/>
</g>
</svg>
