<svg width="16" height="16" viewBox="0 0 16 16" fill="none" xmlns="http://www.w3.org/2000/svg">
<g id="icon/&#229;&#162;&#158;&#229;&#138;&#160;">
<path id="Union" fill-rule="evenodd" clip-rule="evenodd" d="M7.80002 2.3999C7.46865 2.3999 7.20002 2.66853 7.20002 2.9999V7.1999H3.00002C2.66865 7.1999 2.40002 7.46853 2.40002 7.7999C2.40002 8.13127 2.66865 8.3999 3.00002 8.3999H7.20002V12.9999C7.20002 13.3313 7.46865 13.5999 7.80002 13.5999C8.1314 13.5999 8.40002 13.3313 8.40002 12.9999V8.3999H13C13.3314 8.3999 13.6 8.13127 13.6 7.7999C13.6 7.46853 13.3314 7.1999 13 7.1999H8.40002V2.9999C8.40002 2.66853 8.1314 2.3999 7.80002 2.3999Z" fill="#4C9FF4"/>
</g>
</svg>
