<svg width="20" height="20" viewBox="0 0 20 20" fill="none" xmlns="http://www.w3.org/2000/svg">
<g id="icon/&#229;&#136;&#160;&#233;&#153;&#164;">
<path id="Union" fill-rule="evenodd" clip-rule="evenodd" d="M12.25 2.5C12.6642 2.5 13 2.83579 13 3.25C13 3.66421 12.6642 4 12.25 4L7.75 4C7.33579 4 7 3.66421 7 3.25C7 2.83579 7.33579 2.5 7.75 2.5H12.25ZM18 5.75C18 5.33579 17.6642 5 17.25 5H2.75C2.33579 5 2 5.33578 2 5.75C2 6.16421 2.33579 6.5 2.75 6.5L17.25 6.5C17.6642 6.5 18 6.16421 18 5.75ZM5.75 8C5.75 7.58579 5.41421 7.25 5 7.25C4.58579 7.25 4.25 7.58579 4.25 8V14C4.25 15.5188 5.48122 16.75 7 16.75H13C14.5188 16.75 15.75 15.5188 15.75 14V8C15.75 7.58579 15.4142 7.25 15 7.25C14.5858 7.25 14.25 7.58579 14.25 8V14C14.25 14.6904 13.6904 15.25 13 15.25H7C6.30964 15.25 5.75 14.6904 5.75 14V8ZM8 12.75C8 13.1642 7.66421 13.5 7.25 13.5C6.83579 13.5 6.5 13.1642 6.5 12.75V9.75C6.5 9.33579 6.83579 9 7.25 9C7.66421 9 8 9.33579 8 9.75L8 12.75ZM10 13.5C10.4142 13.5 10.75 13.1642 10.75 12.75L10.75 9.75C10.75 9.33579 10.4142 9 10 9C9.58579 9 9.25 9.33579 9.25 9.75L9.25 12.75C9.25 13.1642 9.58579 13.5 10 13.5ZM12.75 13.5C13.1642 13.5 13.5 13.1642 13.5 12.75L13.5 9.75C13.5 9.33579 13.1642 9 12.75 9C12.3358 9 12 9.33579 12 9.75L12 12.75C12 13.1642 12.3358 13.5 12.75 13.5Z" fill="#4C9FF4"/>
</g>
</svg>
