<svg width="60" height="60" viewBox="0 0 60 60" fill="none" xmlns="http://www.w3.org/2000/svg">
<g id="&#229;&#143;&#141;&#229;&#164;&#141;&#232;&#174;&#176;&#229;&#143;&#183;/&#229;&#188;&#128;&#229;&#167;&#139;&#229;&#143;&#141;&#229;&#164;&#141;">
<path id="&#229;&#189;&#162;&#231;&#138;&#182;&#231;&#187;&#147;&#229;&#144;&#136;&#229;&#164;&#135;&#228;&#187;&#189;" d="M29.34 12C29.268 12.024 29.244 12.048 29.244 12.12V47.88C29.244 47.952 29.268 48 29.34 48H30.348C30.42 48 30.444 47.952 30.444 47.88V12.12C30.42 12.048 30.396 12 30.348 12H29.34ZM22.836 12C22.764 12.024 22.716 12.048 22.716 12.12V47.88C22.716 47.952 22.764 48 22.836 48H26.748C26.82 48 26.868 47.952 26.868 47.88V12.12C26.844 12.048 26.82 12 26.748 12H22.836ZM35.364 33.48C34.332 33.48 33.444 34.296 33.444 35.4C33.444 36.48 34.284 37.32 35.364 37.32C36.468 37.32 37.284 36.432 37.284 35.4C37.284 34.344 36.396 33.48 35.364 33.48ZM35.364 22.68C34.332 22.68 33.444 23.496 33.444 24.6C33.444 25.68 34.284 26.52 35.364 26.52C36.468 26.52 37.284 25.632 37.284 24.6C37.284 23.544 36.396 22.68 35.364 22.68Z" fill="#333333"/>
</g>
</svg>
