<svg width="60" height="60" viewBox="0 0 60 60" fill="none" xmlns="http://www.w3.org/2000/svg">
<g id="&#229;&#143;&#141;&#229;&#164;&#141;&#232;&#174;&#176;&#229;&#143;&#183;/&#232;&#191;&#148;&#229;&#167;&#139;&#229;&#165;&#143;&#232;&#135;&#179;&#231;&#187;&#147;&#230;&#157;&#159;&#232;&#174;&#176;&#229;&#143;&#183;">
<path id="D.C.alFine" d="M6.29971 33.3733C7.30141 33.3733 8.05449 33.2855 8.55894 33.11C9.30121 32.85 9.86692 32.4373 10.2561 31.8719C10.6308 31.3324 10.8182 30.6922 10.8182 29.9513C10.8182 28.8463 10.3822 27.9884 9.5102 27.3774C8.81117 26.89 7.80587 26.6462 6.49429 26.6462C6.1772 26.6462 5.7304 26.643 5.15389 26.6365C4.75032 26.63 4.33235 26.6267 3.89996 26.6267H3.70538C3.60449 26.6267 3.55405 26.656 3.55405 26.7145C3.55405 26.786 3.63332 26.8185 3.79186 26.812C4.08733 26.8055 4.27109 26.8607 4.34316 26.9777C4.3864 27.0427 4.40802 27.2182 4.40802 27.5042V32.4666C4.40802 32.8176 4.3936 33.0158 4.36478 33.0613C4.29992 33.1653 4.11255 33.214 3.80267 33.2075C3.60089 33.201 3.5 33.2303 3.5 33.2953C3.5 33.3473 3.55405 33.3733 3.66215 33.3733L4.34316 33.3635C4.79716 33.357 5.03138 33.3538 5.04579 33.3538H5.43494C5.70878 33.3538 5.91777 33.357 6.0619 33.3635C6.20603 33.37 6.2853 33.3733 6.29971 33.3733ZM6.69967 33.1978C6.40421 33.1978 6.21324 33.162 6.12676 33.0905C6.06911 33.045 6.04028 32.8078 6.04028 32.3788V27.3872C6.04028 27.1467 6.09793 26.994 6.21324 26.929C6.29971 26.877 6.47988 26.851 6.75372 26.851C7.5104 26.851 8.0653 27.0996 8.41842 27.5968C8.77153 28.094 8.94809 28.8788 8.94809 29.9513C8.94809 32.1156 8.19862 33.1978 6.69967 33.1978ZM12.6774 33.4513C12.9008 33.4513 13.0846 33.3863 13.2287 33.2563C13.3729 33.1263 13.4449 32.9605 13.4449 32.7591C13.4449 32.5576 13.3693 32.3886 13.2179 32.2521C13.0666 32.1156 12.8864 32.0474 12.6774 32.0474C12.454 32.0474 12.2667 32.1156 12.1153 32.2521C11.964 32.3886 11.8883 32.5576 11.8883 32.7591C11.8883 32.954 11.964 33.1182 12.1153 33.2514C12.2667 33.3846 12.454 33.4513 12.6774 33.4513ZM18.1472 33.5C18.7669 33.5 19.347 33.292 19.8875 32.876C20.0677 32.9475 20.237 33.1003 20.3956 33.3343C20.4388 33.3993 20.4784 33.4318 20.5145 33.4318C20.5505 33.4318 20.5685 33.396 20.5685 33.3245C20.5685 33.2595 20.5649 33.2043 20.5577 33.1588C20.5505 33.0288 20.5469 32.8663 20.5469 32.6713C20.5469 32.5153 20.5613 32.2943 20.5901 32.0084C20.6262 31.6314 20.6442 31.4266 20.6442 31.3942L20.655 31.2284C20.6622 31.1439 20.6298 31.1017 20.5577 31.1017C20.4929 31.1017 20.4352 31.2024 20.3848 31.4039C20.0677 32.6258 19.4011 33.2368 18.385 33.2368C17.9165 33.2368 17.5382 33.0873 17.2499 32.7883C16.7023 32.2228 16.4284 31.3324 16.4284 30.117C16.4284 29.2981 16.5437 28.5961 16.7743 28.0111C17.1058 27.1532 17.6391 26.7242 18.3742 26.7242C19.3038 26.7242 19.8983 27.3092 20.1578 28.4791C20.2154 28.7326 20.2731 28.8593 20.3307 28.8593C20.4028 28.8593 20.4388 28.8008 20.4388 28.6838V28.0111C20.4316 27.7772 20.428 27.6439 20.428 27.6114C20.428 27.2864 20.4496 27.0135 20.4929 26.7925C20.5001 26.7535 20.5037 26.7242 20.5037 26.7047C20.5037 26.6592 20.4893 26.6365 20.4604 26.6365C20.4388 26.6365 20.3812 26.682 20.2875 26.773C20.1578 26.8965 20.0172 26.9582 19.8659 26.9582C19.765 26.9582 19.6065 26.903 19.3903 26.7925C19.0155 26.5975 18.5904 26.5 18.1147 26.5C17.0842 26.5 16.2248 26.8331 15.5366 27.4993C14.8484 28.1655 14.5043 28.9958 14.5043 29.9903C14.5043 31.0172 14.8862 31.8686 15.6501 32.5446C16.3708 33.1815 17.2031 33.5 18.1472 33.5ZM22.5575 33.4513C22.7809 33.4513 22.9647 33.3863 23.1088 33.2563C23.2529 33.1263 23.325 32.9605 23.325 32.7591C23.325 32.5576 23.2493 32.3886 23.098 32.2521C22.9467 32.1156 22.7665 32.0474 22.5575 32.0474C22.3341 32.0474 22.1467 32.1156 21.9954 32.2521C21.8441 32.3886 21.7684 32.5576 21.7684 32.7591C21.7684 32.954 21.8441 33.1182 21.9954 33.2514C22.1467 33.3846 22.3341 33.4513 22.5575 33.4513ZM27.13 33.4805C27.6921 33.4805 28.1353 33.214 28.4596 32.6811C28.5029 32.967 28.5911 33.1653 28.7245 33.2758C28.8578 33.3863 29.0722 33.4415 29.3676 33.4415C29.8216 33.4415 30.2036 33.3148 30.5135 33.0613C30.6288 32.9703 30.6864 32.8988 30.6864 32.8468C30.6864 32.8143 30.6684 32.7981 30.6324 32.7981C30.6107 32.7981 30.5819 32.8143 30.5459 32.8468C30.3657 33.0028 30.2144 33.0808 30.0919 33.0808C29.9189 33.0808 29.8144 32.9443 29.7784 32.6713C29.7733 32.6342 29.7699 32.5274 29.7685 32.351L29.7676 30.4387C29.7676 29.9383 29.6487 29.5873 29.4109 29.3858C29.1154 29.1453 28.5929 29.0251 27.8435 29.0251C27.339 29.0251 26.9318 29.1388 26.622 29.3663C26.3121 29.5938 26.1571 29.8473 26.1571 30.1267C26.1571 30.3022 26.2238 30.4468 26.3571 30.5606C26.4904 30.6743 26.6616 30.7312 26.8706 30.7312C27.0363 30.7312 27.1715 30.6841 27.276 30.5898C27.3804 30.4956 27.4327 30.377 27.4327 30.234C27.4327 29.9675 27.303 29.8245 27.0435 29.805C26.8706 29.792 26.7841 29.753 26.7841 29.688C26.7841 29.571 26.8562 29.4508 27.0003 29.3273C27.1444 29.2038 27.3354 29.1421 27.5732 29.1421C27.984 29.1421 28.2398 29.3045 28.3407 29.6295L28.3515 29.6783C28.402 29.8278 28.4272 30.2275 28.4272 30.8774V31.0822C26.8706 31.2317 26.0923 31.7159 26.0923 32.5348C26.0923 32.8143 26.1878 33.0418 26.3787 33.2173C26.5697 33.3928 26.8201 33.4805 27.13 33.4805ZM27.8975 32.9638C27.5516 32.9638 27.3786 32.7363 27.3786 32.2813C27.3786 31.6899 27.7282 31.3324 28.4272 31.2089V31.6866C28.4272 32.1481 28.3875 32.4763 28.3083 32.6713C28.229 32.8663 28.0921 32.9638 27.8975 32.9638ZM30.7305 33.3736L30.8161 33.3733L31.1404 33.3635C31.5728 33.3505 31.8683 33.344 32.0268 33.344C32.1926 33.344 32.3619 33.3473 32.5349 33.3538C32.8736 33.3668 33.0754 33.3733 33.1402 33.3733C33.4141 33.3733 33.551 33.3473 33.551 33.2953C33.551 33.2433 33.5041 33.2173 33.4105 33.2173L33.0862 33.227C32.9348 33.2335 32.8466 33.1994 32.8213 33.1247C32.7961 33.0499 32.7835 32.7916 32.7835 32.3496L32.7844 28.3653C32.7845 28.2917 32.7846 28.2202 32.7847 28.1509L32.7855 27.7606C32.7856 27.6999 32.7858 27.6413 32.7859 27.5848L32.787 27.2718C32.7888 26.8408 32.7912 26.5836 32.7943 26.5C32.2826 26.695 31.6233 26.8055 30.8161 26.8315C30.6288 26.838 30.5351 26.8672 30.5351 26.9192C30.5351 26.9647 30.6252 26.9875 30.8053 26.9875C31.0503 26.9875 31.1981 27.0086 31.2485 27.0508C31.299 27.0931 31.3242 27.2247 31.3242 27.4457V32.5836C31.3242 32.9215 31.3044 33.1165 31.2647 33.1685C31.2251 33.2205 31.0792 33.2433 30.8269 33.2368C30.6612 33.2303 30.5783 33.253 30.5783 33.305C30.5783 33.357 30.6576 33.3798 30.8161 33.3733L30.7305 33.3736ZM41.5664 28.4931C41.5556 28.4383 41.5286 28.4109 41.4853 28.4109C41.4277 28.4109 41.3916 28.4531 41.3772 28.5376C41.2907 29.1291 41.1628 29.4898 40.9935 29.6198C40.8241 29.7498 40.4007 29.8148 39.7233 29.8148H39.4098V26.8315C39.7846 26.812 40.1161 26.8022 40.4043 26.8022C41.0313 26.8022 41.4673 26.8542 41.7123 26.9582C42.1231 27.1337 42.4005 27.4814 42.5447 28.0014C42.5951 28.1899 42.6293 28.3004 42.6474 28.3329C42.6654 28.3654 42.696 28.3816 42.7392 28.3816C42.7897 28.3816 42.8149 28.3556 42.8149 28.3036C42.8149 28.2646 42.8113 28.2256 42.8041 28.1866C42.7464 27.8877 42.6888 27.3482 42.6311 26.5682C42.4005 26.5877 42.2276 26.5975 42.1123 26.5975L41.3664 26.5877C40.9124 26.5812 40.3575 26.5812 39.7017 26.5877C39.2621 26.5877 38.7541 26.5942 38.1775 26.6072C37.774 26.6123 37.5186 26.6154 37.4115 26.6165L37.1506 26.617C37.0065 26.617 36.9344 26.6495 36.9344 26.7145C36.9344 26.76 37.0371 26.7892 37.2425 26.8022C37.4479 26.8152 37.5848 26.838 37.6533 26.8705C37.7217 26.903 37.7632 26.9647 37.7776 27.0557L37.7884 32.7103C37.7884 32.8403 37.774 32.9313 37.7452 32.9833C37.7091 33.1133 37.5218 33.1848 37.183 33.1978C36.9524 33.2043 36.8371 33.2368 36.8371 33.2953C36.8371 33.3538 36.8804 33.383 36.9669 33.383C37.0245 33.383 37.075 33.3798 37.1182 33.3733C37.4209 33.3538 37.7704 33.344 38.1667 33.344C38.7288 33.344 39.2333 33.3505 39.6801 33.3635C39.9035 33.37 40.0945 33.3733 40.253 33.3733C40.3899 33.3733 40.4584 33.344 40.4584 33.2855C40.4584 33.2335 40.3935 33.2075 40.2638 33.2075C39.8386 33.2075 39.59 33.1718 39.5179 33.1003C39.4459 33.0288 39.4098 32.7851 39.4098 32.3691V30.0097C39.6693 30.0032 39.9828 30 40.3503 30C40.6241 30 40.8151 30.0357 40.9232 30.1072C41.1466 30.2502 41.2763 30.559 41.3124 31.0334C41.3268 31.2414 41.3808 31.3454 41.4745 31.3454C41.5394 31.3454 41.5718 31.2934 41.5718 31.1894C41.5718 31.0854 41.5682 30.9603 41.561 30.8141C41.5558 30.7096 41.5525 30.5264 41.5511 30.2644L41.5506 29.1239C41.5518 28.93 41.5552 28.7849 41.561 28.6887C41.5682 28.5685 41.5718 28.5246 41.5718 28.5571L41.5664 28.4931ZM44.5228 27.7869C44.7174 27.7869 44.8832 27.7219 45.0201 27.5919C45.157 27.4619 45.2255 27.3059 45.2255 27.124C45.2255 26.9485 45.1606 26.8022 45.0309 26.6852C44.9012 26.5682 44.739 26.5098 44.5445 26.5098C44.3283 26.5098 44.1517 26.5682 44.0148 26.6852C43.8779 26.8022 43.8094 26.9517 43.8094 27.1337C43.8094 27.3222 43.8779 27.4782 44.0148 27.6017C44.1517 27.7252 44.3211 27.7869 44.5228 27.7869ZM43.2689 33.383C43.3338 33.3765 43.3878 33.3733 43.4311 33.3733L44.4688 33.3538L45.9065 33.3733C45.9713 33.3733 46.0038 33.3505 46.0038 33.305C46.0038 33.2595 45.9641 33.2368 45.8849 33.2368C45.5678 33.2368 45.3822 33.214 45.3282 33.1685C45.2741 33.123 45.2471 32.967 45.2471 32.7006V30.8677L45.2363 29.6295C45.2147 29.2786 45.1966 29.0641 45.1822 28.9861C44.6201 29.2006 43.9427 29.311 43.15 29.3175C43.0419 29.3175 42.9879 29.3403 42.9879 29.3858C42.9879 29.4248 43.0005 29.4475 43.0257 29.454C43.0509 29.4605 43.1392 29.4638 43.2905 29.4638C43.5284 29.4638 43.6707 29.4882 43.7175 29.5369C43.7644 29.5857 43.7878 29.7335 43.7878 29.9805V32.7786C43.7878 32.993 43.7662 33.1214 43.7229 33.1637C43.6797 33.2059 43.5356 33.2303 43.2905 33.2368C43.1248 33.2433 43.0419 33.266 43.0419 33.305C43.0419 33.357 43.0852 33.383 43.1716 33.383H43.2689ZM46.3173 33.3928C46.728 33.3928 47.1316 33.3863 47.5279 33.3733C47.7297 33.3668 47.9856 33.3635 48.2954 33.3635C48.6053 33.3635 48.7855 33.3603 48.8359 33.3538C48.8864 33.3473 48.9116 33.3245 48.9116 33.2855C48.9116 33.2465 48.8828 33.227 48.8251 33.227C48.6377 33.2205 48.5206 33.2059 48.4738 33.1831C48.4269 33.1604 48.3963 33.11 48.3819 33.032L48.3711 30.078C48.3711 29.8895 48.4432 29.7335 48.5873 29.61C48.7314 29.4865 48.9152 29.4248 49.1386 29.4248C49.362 29.4248 49.5169 29.4833 49.6034 29.6003C49.7043 29.7368 49.7547 30.1527 49.7547 30.8482V32.7298C49.7547 32.9768 49.7385 33.1214 49.7061 33.1637C49.6737 33.2059 49.5638 33.227 49.3764 33.227H49.2899C49.2034 33.227 49.1602 33.2498 49.1602 33.2953C49.1602 33.3473 49.2107 33.3733 49.3115 33.3733L50.2412 33.3635H50.5871C50.9186 33.3635 51.1708 33.3668 51.3438 33.3733C51.5167 33.3798 51.6104 33.383 51.6248 33.383C51.805 33.383 51.8951 33.357 51.8951 33.305C51.8951 33.253 51.796 33.227 51.5978 33.227C51.3996 33.227 51.2825 33.2091 51.2465 33.1734C51.2104 33.1377 51.1924 33.019 51.1924 32.8175V31.4039C51.1924 30.7734 51.1834 30.3575 51.1654 30.156C51.1474 29.9545 51.0988 29.7725 51.0195 29.61C50.8321 29.2201 50.4285 29.0251 49.8088 29.0251C49.2107 29.0251 48.7206 29.2493 48.3387 29.6978C48.3459 29.6133 48.3495 29.428 48.3495 29.1421C48.3495 29.0381 48.3207 28.9861 48.263 28.9861C48.2414 28.9861 48.2017 28.9991 48.1441 29.0251C47.6613 29.2981 47.0163 29.4508 46.2092 29.4833C46.1227 29.4898 46.0794 29.5158 46.0794 29.5613C46.0794 29.6068 46.1371 29.6295 46.2524 29.6295H46.3713C46.4434 29.623 46.5262 29.6198 46.6199 29.6198C46.7929 29.6198 46.8902 29.6685 46.9118 29.766C46.9262 29.792 46.9334 30.1202 46.9334 30.7507V32.993L46.901 33.1295C46.8649 33.2075 46.737 33.2465 46.5172 33.2465C46.2974 33.2465 46.1875 33.2725 46.1875 33.3245C46.1875 33.37 46.2308 33.3928 46.3173 33.3928ZM54.6407 33.4903C55.2893 33.4903 55.8154 33.24 56.2189 32.7396C56.4063 32.5056 56.5 32.3171 56.5 32.1741C56.5 32.1351 56.4856 32.1156 56.4568 32.1156C56.4207 32.1156 56.3739 32.1773 56.3162 32.3008C56.1937 32.5478 56.0154 32.7493 55.7812 32.9053C55.5469 33.0613 55.3037 33.1393 55.0515 33.1393C54.7488 33.1393 54.493 33.045 54.284 32.8565C53.9309 32.5381 53.7543 31.9986 53.7543 31.2382C53.7543 31.0757 53.7651 30.8774 53.7868 30.6435C54.0606 30.6305 54.2876 30.624 54.4678 30.624C55.6352 30.6175 56.3018 30.6077 56.4676 30.5947C56.4532 30.4322 56.4315 30.2925 56.4027 30.1755C56.2946 29.7985 56.0604 29.5093 55.7001 29.3078C55.3758 29.1258 54.983 29.0348 54.5218 29.0348C53.8444 29.0348 53.2787 29.2477 52.8247 29.6734C52.3707 30.0991 52.1437 30.6305 52.1437 31.2674C52.1437 31.9174 52.3779 32.4503 52.8463 32.8663C53.3147 33.2823 53.9129 33.4903 54.6407 33.4903ZM55.138 30.4777C55.0299 30.4712 54.9038 30.468 54.7596 30.468C54.2768 30.468 53.9597 30.4712 53.8084 30.4777C53.8732 29.5873 54.1255 29.1421 54.5651 29.1421C54.7813 29.1421 54.9326 29.2396 55.0191 29.4345C55.1055 29.6295 55.1452 29.9773 55.138 30.4777Z" fill="#333333"/>
</g>
</svg>
