<svg width="60" height="60" viewBox="0 0 60 60" fill="none" xmlns="http://www.w3.org/2000/svg">
<g id="&#229;&#143;&#141;&#229;&#164;&#141;&#232;&#174;&#176;&#229;&#143;&#183;/&#232;&#191;&#148;&#229;&#155;&#158;&#232;&#174;&#176;&#229;&#143;&#183;&#229;&#164;&#132;&#229;&#165;&#143;&#232;&#135;&#179;&#229;&#176;&#190;&#229;&#163;&#176;">
<path id="D.S.alCoda" d="M4.86019 33.3546C5.88352 33.3546 6.65286 33.2673 7.16821 33.0928C7.92651 32.8343 8.50444 32.4238 8.90199 31.8615C9.28482 31.325 9.47624 30.6884 9.47624 29.9515C9.47624 28.8527 9.03083 27.9995 8.14001 27.392C7.42589 26.9072 6.39887 26.6648 5.05896 26.6648C4.73503 26.6648 4.27858 26.6616 3.68961 26.6551C3.27733 26.6487 2.85033 26.6454 2.4086 26.6454H2.20982C2.10675 26.6454 2.05522 26.6745 2.05522 26.7327C2.05522 26.8038 2.1362 26.8361 2.29817 26.8296C2.60001 26.8232 2.78775 26.8781 2.86137 26.9945C2.90554 27.0591 2.92763 27.2336 2.92763 27.518V32.4529C2.92763 32.8019 2.9129 32.9991 2.88345 33.0443C2.8172 33.1477 2.62578 33.1962 2.30921 33.1898C2.10307 33.1833 2 33.2124 2 33.277C2 33.3287 2.05522 33.3546 2.16565 33.3546L2.86137 33.3449C3.32518 33.3384 3.56445 33.3352 3.57918 33.3352H3.97673C4.25649 33.3352 4.46999 33.3384 4.61724 33.3449C4.76448 33.3513 4.84546 33.3546 4.86019 33.3546ZM5.26878 33.1801C4.96694 33.1801 4.77184 33.1445 4.68349 33.0734C4.6246 33.0282 4.59515 32.7922 4.59515 32.3657V27.4017C4.59515 27.1625 4.65405 27.0106 4.77184 26.946C4.86019 26.8943 5.04424 26.8684 5.324 26.8684C6.09702 26.8684 6.66391 27.1157 7.02465 27.6101C7.38539 28.1046 7.56577 28.885 7.56577 29.9515C7.56577 32.1039 6.80011 33.1801 5.26878 33.1801ZM11.3757 33.4321C11.6039 33.4321 11.7916 33.3675 11.9389 33.2382C12.0861 33.109 12.1597 32.9441 12.1597 32.7438C12.1597 32.5434 12.0824 32.3753 11.9278 32.2396C11.7732 32.1039 11.5892 32.036 11.3757 32.036C11.1474 32.036 10.956 32.1039 10.8014 32.2396C10.6468 32.3753 10.5695 32.5434 10.5695 32.7438C10.5695 32.9377 10.6468 33.1009 10.8014 33.2334C10.956 33.3659 11.1474 33.4321 11.3757 33.4321ZM13.1757 33.5C13.2125 33.5 13.242 33.4645 13.2641 33.3934C13.3303 33.1607 13.426 33.0443 13.5512 33.0443C13.5953 33.0443 13.6469 33.054 13.7058 33.0734C14.4935 33.3384 15.1119 33.4709 15.561 33.4709C16.2972 33.4709 16.9028 33.2786 17.3776 32.894C17.8525 32.5095 18.0899 32.0231 18.0899 31.4349C18.0899 30.9114 17.9022 30.4783 17.5267 30.1357C17.269 29.903 16.7427 29.5928 15.9475 29.205C15.2997 28.8883 14.8616 28.6281 14.6334 28.4245C14.4052 28.2209 14.2911 27.9866 14.2911 27.7216C14.2911 27.4178 14.4125 27.1787 14.6555 27.0042C14.8984 26.8296 15.2261 26.7424 15.6383 26.7424C15.9328 26.7424 16.1905 26.8006 16.4114 26.9169C16.5807 27.0074 16.7482 27.1544 16.9138 27.358C17.0795 27.5616 17.1954 27.7669 17.2617 27.9737C17.3279 28.1805 17.3942 28.2839 17.4605 28.2839C17.5194 28.2839 17.5488 28.2548 17.5488 28.1967C17.5488 28.1644 17.5451 28.1385 17.5378 28.1191C17.5083 27.8864 17.4936 27.602 17.4936 27.2659C17.4936 27.169 17.501 27.0462 17.5157 26.8975C17.5304 26.7488 17.5378 26.6584 17.5378 26.626C17.5378 26.542 17.501 26.5 17.4273 26.5C17.3758 26.5 17.3427 26.5291 17.3279 26.5873C17.2911 26.7553 17.2175 26.8393 17.1071 26.8393C17.0482 26.8393 16.9488 26.8135 16.8089 26.7618C16.3893 26.6066 15.9954 26.5291 15.6273 26.5291C14.9426 26.5291 14.3757 26.7117 13.9266 27.0769C13.4776 27.4421 13.253 27.9026 13.253 28.4584C13.253 28.9303 13.3855 29.3375 13.6506 29.6801C13.9377 30.0549 14.4825 30.4298 15.285 30.8047C16.0064 31.1473 16.4334 31.3767 16.566 31.4931C16.7427 31.6547 16.831 31.8712 16.831 32.1427C16.831 32.4594 16.6948 32.7276 16.4224 32.9474C16.15 33.1671 15.815 33.277 15.4175 33.277C14.9684 33.277 14.5487 33.1348 14.1585 32.8504C13.7978 32.5854 13.5659 32.2138 13.4628 31.7355C13.4039 31.4575 13.3377 31.3186 13.2641 31.3186C13.1904 31.3186 13.1536 31.3703 13.1536 31.4737C13.1536 31.5125 13.161 31.6417 13.1757 31.8615C13.1831 31.9714 13.1867 32.12 13.1867 32.3075C13.1867 32.5402 13.172 32.7438 13.1426 32.9183C13.1058 33.1316 13.0874 33.2802 13.0874 33.3643C13.0874 33.4548 13.1168 33.5 13.1757 33.5ZM19.9231 33.4321C20.1513 33.4321 20.3391 33.3675 20.4863 33.2382C20.6335 33.109 20.7072 32.9441 20.7072 32.7438C20.7072 32.5434 20.6299 32.3753 20.4753 32.2396C20.3206 32.1039 20.1366 32.036 19.9231 32.036C19.6949 32.036 19.5035 32.1039 19.3488 32.2396C19.1942 32.3753 19.1169 32.5434 19.1169 32.7438C19.1169 32.9377 19.1942 33.1009 19.3488 33.2334C19.5035 33.3659 19.6949 33.4321 19.9231 33.4321ZM24.5944 33.4612C25.1686 33.4612 25.6214 33.1962 25.9527 32.6662C25.9968 32.9506 26.087 33.1477 26.2232 33.2576C26.3594 33.3675 26.5785 33.4224 26.8803 33.4224C27.3441 33.4224 27.7343 33.2964 28.0509 33.0443C28.1687 32.9538 28.2276 32.8827 28.2276 32.831C28.2276 32.7987 28.2092 32.7825 28.1724 32.7825C28.1503 32.7825 28.1208 32.7987 28.084 32.831C27.9 32.9862 27.7453 33.0637 27.6202 33.0637C27.4435 33.0637 27.3368 32.928 27.2999 32.6565C27.2947 32.6196 27.2913 32.5134 27.2898 32.338L27.2889 30.4363C27.2889 29.9386 27.1674 29.5896 26.9245 29.3892C26.6226 29.15 26.0889 29.0305 25.3232 29.0305C24.8079 29.0305 24.3919 29.1436 24.0753 29.3698C23.7588 29.596 23.6005 29.8481 23.6005 30.126C23.6005 30.3006 23.6686 30.4444 23.8048 30.5575C23.941 30.6706 24.1158 30.7271 24.3293 30.7271C24.4987 30.7271 24.6367 30.6803 24.7434 30.5866C24.8502 30.4928 24.9036 30.3749 24.9036 30.2327C24.9036 29.9677 24.771 29.8255 24.506 29.8061C24.3293 29.7932 24.241 29.7544 24.241 29.6898C24.241 29.5734 24.3146 29.4538 24.4618 29.331C24.6091 29.2082 24.8042 29.1468 25.0471 29.1468C25.4668 29.1468 25.7281 29.3084 25.8312 29.6316L25.8422 29.6801C25.8938 29.8287 25.9195 30.2262 25.9195 30.8726V31.0762C24.3293 31.2248 23.5342 31.7064 23.5342 32.5208C23.5342 32.7987 23.6318 33.0249 23.8269 33.1994C24.022 33.374 24.2778 33.4612 24.5944 33.4612ZM25.3784 32.9474C25.025 32.9474 24.8484 32.7211 24.8484 32.2687C24.8484 31.6805 25.2054 31.325 25.9195 31.2022V31.6773C25.9195 32.1362 25.879 32.4626 25.7981 32.6565C25.7171 32.8504 25.5772 32.9474 25.3784 32.9474ZM28.2726 33.355L28.3601 33.3546L28.6914 33.3449C29.1331 33.3319 29.435 33.3255 29.5969 33.3255C29.7663 33.3255 29.9393 33.3287 30.116 33.3352C30.462 33.3481 30.6681 33.3546 30.7344 33.3546C31.0141 33.3546 31.154 33.3287 31.154 33.277C31.154 33.2253 31.1062 33.1994 31.0105 33.1994L30.6792 33.2091C30.5246 33.2156 30.4344 33.1817 30.4086 33.1073C30.3828 33.033 30.3699 32.7761 30.3699 32.3366L30.3708 28.3744C30.3709 28.3011 30.3711 28.2301 30.3712 28.1611L30.372 27.7731C30.3721 27.7126 30.3723 27.6544 30.3725 27.5982L30.3736 27.2869C30.3754 26.8583 30.3778 26.6025 30.381 26.5194C29.8583 26.7133 29.1846 26.8232 28.3601 26.849C28.1687 26.8555 28.073 26.8846 28.073 26.9363C28.073 26.9815 28.165 27.0042 28.349 27.0042C28.5994 27.0042 28.7503 27.0252 28.8018 27.0672C28.8533 27.1092 28.8791 27.2401 28.8791 27.4598V32.5693C28.8791 32.9054 28.8589 33.0993 28.8184 33.151C28.7779 33.2027 28.6288 33.2253 28.3711 33.2188C28.2018 33.2124 28.1171 33.235 28.1171 33.2867C28.1171 33.3384 28.1981 33.361 28.3601 33.3546L28.2726 33.355ZM38.5419 33.4806C39.175 33.4806 39.7677 33.2738 40.3199 32.8601C40.5039 32.9312 40.6769 33.0831 40.8389 33.3158C40.8831 33.3804 40.9236 33.4127 40.9604 33.4127C40.9972 33.4127 41.0156 33.3772 41.0156 33.3061C41.0156 33.2415 41.0119 33.1865 41.0045 33.1413C40.9972 33.012 40.9935 32.8504 40.9935 32.6565C40.9935 32.5014 41.0082 32.2816 41.0377 31.9972C41.0745 31.6223 41.0929 31.4187 41.0929 31.3864L41.1039 31.2216C41.1113 31.1376 41.0782 31.0956 41.0045 31.0956C40.9383 31.0956 40.8794 31.1958 40.8278 31.3961C40.5039 32.6113 39.8229 33.2188 38.7849 33.2188C38.3063 33.2188 37.9198 33.0702 37.6253 32.7729C37.0658 32.2105 36.786 31.325 36.786 30.1163C36.786 29.3019 36.9038 28.6039 37.1394 28.0222C37.4781 27.169 38.0229 26.7424 38.7738 26.7424C39.7235 26.7424 40.3309 27.3241 40.5959 28.4875C40.6548 28.7396 40.7137 28.8657 40.7726 28.8657C40.8463 28.8657 40.8831 28.8075 40.8831 28.6911V28.0222C40.8757 27.7895 40.872 27.657 40.872 27.6247C40.872 27.3015 40.8941 27.03 40.9383 26.8102C40.9456 26.7715 40.9493 26.7424 40.9493 26.723C40.9493 26.6777 40.9346 26.6551 40.9051 26.6551C40.8831 26.6551 40.8242 26.7004 40.7285 26.7909C40.5959 26.9137 40.4524 26.9751 40.2978 26.9751C40.1947 26.9751 40.0327 26.9201 39.8119 26.8102C39.429 26.6163 38.9947 26.5194 38.5088 26.5194C37.456 26.5194 36.5781 26.8506 35.875 27.5132C35.1719 28.1757 34.8203 29.0014 34.8203 29.9903C34.8203 31.0115 35.2105 31.8583 35.9909 32.5305C36.7271 33.1639 37.5775 33.4806 38.5419 33.4806ZM44.3064 33.4709C44.8881 33.4709 45.4218 33.3029 45.9077 32.9668C46.5261 32.5402 46.8353 31.9811 46.8353 31.2895C46.8353 30.669 46.5905 30.1374 46.101 29.6946C45.6114 29.2518 45.0243 29.0305 44.3396 29.0305C43.6255 29.0305 43.0162 29.2486 42.5119 29.6849C42.0076 30.1212 41.7555 30.6496 41.7555 31.2701C41.7555 31.8647 42.0076 32.3802 42.5119 32.8165C43.0162 33.2528 43.6144 33.4709 44.3064 33.4709ZM44.3285 33.3352C44.0488 33.3352 43.8316 33.193 43.677 32.9086C43.4856 32.5531 43.3899 31.952 43.3899 31.1053C43.3899 30.4977 43.4708 30.021 43.6328 29.6752C43.7948 29.3294 44.0193 29.1565 44.3064 29.1565C44.6157 29.1565 44.8402 29.3213 44.9801 29.651C45.1052 29.9483 45.1678 30.4977 45.1678 31.2992C45.1678 31.952 45.1163 32.4497 45.0132 32.7922C44.9028 33.1542 44.6746 33.3352 44.3285 33.3352ZM50.9103 33.4709C50.9176 33.4709 50.9434 33.4645 50.9876 33.4515C51.3851 33.2899 51.7643 33.2124 52.125 33.2188L52.622 33.2285C52.7692 33.2285 52.8428 33.2059 52.8428 33.1607C52.8428 33.1025 52.7876 33.0766 52.6772 33.0831H52.5628C52.4226 33.0779 52.3319 33.0521 52.2907 33.0055C52.2539 32.9668 52.2355 32.8924 52.2355 32.7825V28.1579L52.2244 27.2271L52.2134 26.7424C52.2134 26.5873 52.1729 26.5097 52.0919 26.5097C52.0551 26.5097 51.9925 26.5226 51.9042 26.5485C51.2931 26.723 50.6526 26.8102 49.9826 26.8102C49.8943 26.8102 49.8501 26.8329 49.8501 26.8781C49.8501 26.9234 49.9458 26.946 50.1373 26.946C50.4685 26.9395 50.6636 26.9896 50.7225 27.0963C50.7814 27.2029 50.8109 27.5471 50.8109 28.1288V29.4861C50.5238 29.1888 50.152 29.0402 49.6955 29.0402C48.9961 29.0402 48.4329 29.2422 48.0059 29.6461C47.5789 30.0501 47.3654 30.5817 47.3654 31.241C47.3654 31.8874 47.5752 32.4206 47.9949 32.8407C48.4145 33.2608 48.9483 33.4709 49.5961 33.4709C50.082 33.4709 50.4722 33.3319 50.7667 33.054C50.7888 33.1574 50.7998 33.2382 50.7998 33.2964C50.8072 33.4127 50.844 33.4709 50.9103 33.4709ZM50.0158 33.2479C49.6918 33.2479 49.4397 33.0799 49.2593 32.7438C49.0789 32.4077 48.9888 31.9326 48.9888 31.3186C48.9888 29.9418 49.3421 29.2535 50.0489 29.2535C50.2992 29.2535 50.4943 29.344 50.6342 29.5249C50.7446 29.6671 50.7998 29.8837 50.7998 30.1745V32.2881C50.7998 32.6242 50.717 32.8682 50.5514 33.0201C50.3857 33.172 50.2072 33.2479 50.0158 33.2479ZM54.3668 33.4612C54.941 33.4612 55.3938 33.1962 55.7251 32.6662C55.7693 32.9506 55.8595 33.1477 55.9957 33.2576C56.1319 33.3675 56.3509 33.4224 56.6527 33.4224C57.1165 33.4224 57.5067 33.2964 57.8233 33.0443C57.9411 32.9538 58 32.8827 58 32.831C58 32.7987 57.9816 32.7825 57.9448 32.7825C57.9227 32.7825 57.8933 32.7987 57.8564 32.831C57.6724 32.9862 57.5178 33.0637 57.3926 33.0637C57.2159 33.0637 57.1092 32.928 57.0724 32.6565C57.0671 32.6196 57.0637 32.5134 57.0622 32.338L57.0613 30.4363C57.0613 29.9386 56.9399 29.5896 56.6969 29.3892C56.3951 29.15 55.8613 29.0305 55.0956 29.0305C54.5803 29.0305 54.1643 29.1436 53.8478 29.3698C53.5312 29.596 53.3729 29.8481 53.3729 30.126C53.3729 30.3006 53.441 30.4444 53.5772 30.5575C53.7134 30.6706 53.8883 30.7271 54.1018 30.7271C54.2711 30.7271 54.4091 30.6803 54.5159 30.5866C54.6226 30.4928 54.676 30.3749 54.676 30.2327C54.676 29.9677 54.5435 29.8255 54.2784 29.8061C54.1018 29.7932 54.0134 29.7544 54.0134 29.6898C54.0134 29.5734 54.087 29.4538 54.2343 29.331C54.3815 29.2082 54.5766 29.1468 54.8196 29.1468C55.2392 29.1468 55.5006 29.3084 55.6036 29.6316L55.6147 29.6801C55.6662 29.8287 55.692 30.2262 55.692 30.8726V31.0762C54.1018 31.2248 53.3066 31.7064 53.3066 32.5208C53.3066 32.7987 53.4042 33.0249 53.5993 33.1994C53.7944 33.374 54.0502 33.4612 54.3668 33.4612ZM55.1509 32.9474C54.7975 32.9474 54.6208 32.7211 54.6208 32.2687C54.6208 31.6805 54.9779 31.325 55.692 31.2022V31.6773C55.692 32.1362 55.6515 32.4626 55.5705 32.6565C55.4895 32.8504 55.3496 32.9474 55.1509 32.9474Z" fill="#333333"/>
</g>
</svg>
