<svg width="60" height="60" viewBox="0 0 60 60" fill="none" xmlns="http://www.w3.org/2000/svg">
<g id="&#229;&#143;&#141;&#229;&#164;&#141;&#232;&#174;&#176;&#229;&#143;&#183;/&#232;&#191;&#148;&#229;&#155;&#158;&#232;&#174;&#176;&#229;&#143;&#183;&#229;&#164;&#132;&#229;&#165;&#143;&#232;&#135;&#179;&#231;&#187;&#147;&#230;&#157;&#159;&#232;&#174;&#176;&#229;&#143;&#183;">
<path id="D.S.alFine" d="M6.38201 33.3546C7.41315 33.3546 8.18836 33.2673 8.70764 33.0928C9.47173 32.8343 10.0541 32.4238 10.4546 31.8615C10.8404 31.325 11.0333 30.6884 11.0333 29.9515C11.0333 28.8527 10.5845 27.9995 9.68686 27.392C8.96728 26.9072 7.93243 26.6648 6.5823 26.6648C6.2559 26.6648 5.79596 26.6616 5.2025 26.6551C4.78707 26.6487 4.35681 26.6454 3.91172 26.6454H3.71142C3.60757 26.6454 3.55564 26.6745 3.55564 26.7327C3.55564 26.8038 3.63724 26.8361 3.80044 26.8296C4.10459 26.8232 4.29376 26.8781 4.36794 26.9945C4.41245 27.0591 4.43471 27.2336 4.43471 27.518V32.4529C4.43471 32.8019 4.41987 32.9991 4.3902 33.0443C4.32343 33.1477 4.13055 33.1962 3.81157 33.1898C3.60386 33.1833 3.5 33.2124 3.5 33.277C3.5 33.3287 3.55564 33.3546 3.66691 33.3546L4.36794 33.3449C4.83529 33.3384 5.07639 33.3352 5.09122 33.3352H5.49181C5.77371 33.3352 5.98884 33.3384 6.1372 33.3449C6.28557 33.3513 6.36717 33.3546 6.38201 33.3546ZM6.79372 33.1801C6.48957 33.1801 6.29299 33.1445 6.20397 33.0734C6.14462 33.0282 6.11495 32.7922 6.11495 32.3657V27.4017C6.11495 27.1625 6.17429 27.0106 6.29299 26.946C6.38201 26.8943 6.56746 26.8684 6.84936 26.8684C7.62828 26.8684 8.19949 27.1157 8.56299 27.6101C8.92648 28.1046 9.10823 28.885 9.10823 29.9515C9.10823 32.1039 8.33673 33.1801 6.79372 33.1801ZM12.9472 33.4321C13.1772 33.4321 13.3663 33.3675 13.5147 33.2382C13.6631 33.109 13.7372 32.9441 13.7372 32.7438C13.7372 32.5434 13.6594 32.3753 13.5036 32.2396C13.3478 32.1039 13.1623 32.036 12.9472 32.036C12.7172 32.036 12.5244 32.1039 12.3686 32.2396C12.2128 32.3753 12.1349 32.5434 12.1349 32.7438C12.1349 32.9377 12.2128 33.1009 12.3686 33.2334C12.5244 33.3659 12.7172 33.4321 12.9472 33.4321ZM14.761 33.5C14.7981 33.5 14.8277 33.4645 14.85 33.3934C14.9168 33.1607 15.0132 33.0443 15.1393 33.0443C15.1838 33.0443 15.2357 33.054 15.2951 33.0734C16.0888 33.3384 16.712 33.4709 17.1645 33.4709C17.9063 33.4709 18.5165 33.2786 18.995 32.894C19.4734 32.5095 19.7127 32.0231 19.7127 31.4349C19.7127 30.9114 19.5235 30.4783 19.1452 30.1357C18.8855 29.903 18.3551 29.5928 17.554 29.205C16.9011 28.8883 16.4598 28.6281 16.2298 28.4245C15.9998 28.2209 15.8848 27.9866 15.8848 27.7216C15.8848 27.4178 16.0072 27.1787 16.252 27.0042C16.4968 26.8296 16.827 26.7424 17.2424 26.7424C17.5391 26.7424 17.7988 26.8006 18.0213 26.9169C18.1919 27.0074 18.3607 27.1544 18.5276 27.358C18.6945 27.5616 18.8114 27.7669 18.8781 27.9737C18.9449 28.1805 19.0117 28.2839 19.0784 28.2839C19.1378 28.2839 19.1674 28.2548 19.1674 28.1967C19.1674 28.1644 19.1637 28.1385 19.1563 28.1191C19.1266 27.8864 19.1118 27.602 19.1118 27.2659C19.1118 27.169 19.1192 27.0462 19.1341 26.8975C19.1489 26.7488 19.1563 26.6584 19.1563 26.626C19.1563 26.542 19.1192 26.5 19.045 26.5C18.9931 26.5 18.9597 26.5291 18.9449 26.5873C18.9078 26.7553 18.8336 26.8393 18.7223 26.8393C18.663 26.8393 18.5628 26.8135 18.4219 26.7618C17.9991 26.6066 17.6022 26.5291 17.2313 26.5291C16.5414 26.5291 15.9702 26.7117 15.5176 27.0769C15.0651 27.4421 14.8389 27.9026 14.8389 28.4584C14.8389 28.9303 14.9724 29.3375 15.2395 29.6801C15.5288 30.0549 16.0777 30.4298 16.8863 30.8047C17.6133 31.1473 18.0436 31.3767 18.1771 31.4931C18.3551 31.6547 18.4442 31.8712 18.4442 32.1427C18.4442 32.4594 18.3069 32.7276 18.0324 32.9474C17.758 33.1671 17.4204 33.277 17.0198 33.277C16.5673 33.277 16.1445 33.1348 15.7513 32.8504C15.3878 32.5854 15.1541 32.2138 15.0503 31.7355C14.9909 31.4575 14.9242 31.3186 14.85 31.3186C14.7758 31.3186 14.7387 31.3703 14.7387 31.4737C14.7387 31.5125 14.7461 31.6417 14.761 31.8615C14.7684 31.9714 14.7721 32.12 14.7721 32.3075C14.7721 32.5402 14.7573 32.7438 14.7276 32.9183C14.6905 33.1316 14.6719 33.2802 14.6719 33.3643C14.6719 33.4548 14.7016 33.5 14.761 33.5ZM21.5598 33.4321C21.7898 33.4321 21.979 33.3675 22.1273 33.2382C22.2757 33.109 22.3499 32.9441 22.3499 32.7438C22.3499 32.5434 22.272 32.3753 22.1162 32.2396C21.9604 32.1039 21.775 32.036 21.5598 32.036C21.3299 32.036 21.137 32.1039 20.9812 32.2396C20.8254 32.3753 20.7475 32.5434 20.7475 32.7438C20.7475 32.9377 20.8254 33.1009 20.9812 33.2334C21.137 33.3659 21.3299 33.4321 21.5598 33.4321ZM26.2667 33.4612C26.8454 33.4612 27.3016 33.1962 27.6354 32.6662C27.6799 32.9506 27.7708 33.1477 27.908 33.2576C28.0453 33.3675 28.266 33.4224 28.5701 33.4224C29.0375 33.4224 29.4306 33.2964 29.7496 33.0443C29.8683 32.9538 29.9277 32.8827 29.9277 32.831C29.9277 32.7987 29.9091 32.7825 29.872 32.7825C29.8498 32.7825 29.8201 32.7987 29.783 32.831C29.5976 32.9862 29.4418 33.0637 29.3157 33.0637C29.1376 33.0637 29.0301 32.928 28.993 32.6565C28.9877 32.6196 28.9843 32.5134 28.9827 32.338L28.9818 30.4363C28.9818 29.9386 28.8594 29.5896 28.6146 29.3892C28.3105 29.15 27.7727 29.0305 27.0012 29.0305C26.4819 29.0305 26.0627 29.1436 25.7438 29.3698C25.4248 29.596 25.2653 29.8481 25.2653 30.126C25.2653 30.3006 25.3339 30.4444 25.4711 30.5575C25.6084 30.6706 25.7846 30.7271 25.9997 30.7271C26.1703 30.7271 26.3094 30.6803 26.417 30.5866C26.5245 30.4928 26.5783 30.3749 26.5783 30.2327C26.5783 29.9677 26.4448 29.8255 26.1777 29.8061C25.9997 29.7932 25.9107 29.7544 25.9107 29.6898C25.9107 29.5734 25.9848 29.4538 26.1332 29.331C26.2816 29.2082 26.4782 29.1468 26.723 29.1468C27.1458 29.1468 27.4092 29.3084 27.513 29.6316L27.5241 29.6801C27.5761 29.8287 27.602 30.2262 27.602 30.8726V31.0762C25.9997 31.2248 25.1985 31.7064 25.1985 32.5208C25.1985 32.7987 25.2968 33.0249 25.4934 33.1994C25.69 33.374 25.9478 33.4612 26.2667 33.4612ZM27.0568 32.9474C26.7007 32.9474 26.5227 32.7211 26.5227 32.2687C26.5227 31.6805 26.8825 31.325 27.602 31.2022V31.6773C27.602 32.1362 27.5612 32.4626 27.4796 32.6565C27.398 32.8504 27.2571 32.9474 27.0568 32.9474ZM29.9731 33.355L30.0612 33.3546L30.395 33.3449C30.8401 33.3319 31.1443 33.3255 31.3075 33.3255C31.4781 33.3255 31.6524 33.3287 31.8305 33.3352C32.1791 33.3481 32.3868 33.3546 32.4536 33.3546C32.7355 33.3546 32.8764 33.3287 32.8764 33.277C32.8764 33.2253 32.8282 33.1994 32.7318 33.1994L32.398 33.2091C32.2422 33.2156 32.1513 33.1817 32.1253 33.1073C32.0994 33.033 32.0864 32.7761 32.0864 32.3366L32.0873 28.3744C32.0874 28.3011 32.0875 28.2301 32.0876 28.1611L32.0884 27.7731C32.0886 27.7126 32.0887 27.6544 32.0889 27.5982L32.09 27.2869C32.0918 26.8583 32.0943 26.6025 32.0975 26.5194C31.5708 26.7133 30.892 26.8232 30.0612 26.849C29.8683 26.8555 29.7719 26.8846 29.7719 26.9363C29.7719 26.9815 29.8646 27.0042 30.0501 27.0042C30.3023 27.0042 30.4544 27.0252 30.5063 27.0672C30.5582 27.1092 30.5842 27.2401 30.5842 27.4598V32.5693C30.5842 32.9054 30.5638 33.0993 30.523 33.151C30.4822 33.2027 30.332 33.2253 30.0723 33.2188C29.9017 33.2124 29.8164 33.235 29.8164 33.2867C29.8164 33.3384 29.898 33.361 30.0612 33.3546L29.9731 33.355ZM41.1274 28.5015C41.1163 28.4469 41.0885 28.4197 41.044 28.4197C40.9846 28.4197 40.9475 28.4617 40.9327 28.5457C40.8437 29.1339 40.712 29.4926 40.5377 29.6219C40.3634 29.7512 39.9275 29.8158 39.2302 29.8158H38.9075V26.849C39.2933 26.8296 39.6345 26.8199 39.9312 26.8199C40.5766 26.8199 41.0254 26.8717 41.2777 26.9751C41.7005 27.1496 41.9861 27.4954 42.1345 28.0125C42.1864 28.1999 42.2216 28.3098 42.2402 28.3421C42.2587 28.3744 42.2903 28.3906 42.3348 28.3906C42.3867 28.3906 42.4127 28.3647 42.4127 28.313C42.4127 28.2742 42.4089 28.2355 42.4015 28.1967C42.3422 27.8994 42.2828 27.3629 42.2235 26.5873C41.9861 26.6066 41.8081 26.6163 41.6894 26.6163L40.9216 26.6066C40.4542 26.6002 39.883 26.6002 39.208 26.6066C38.7554 26.6066 38.2324 26.6131 37.639 26.626C37.2236 26.6311 36.9607 26.6341 36.8504 26.6353L36.5819 26.6357C36.4335 26.6357 36.3593 26.6681 36.3593 26.7327C36.3593 26.7779 36.465 26.807 36.6765 26.8199C36.8879 26.8329 37.0288 26.8555 37.0993 26.8878C37.1698 26.9201 37.2124 26.9815 37.2273 27.072L37.2384 32.6953C37.2384 32.8246 37.2236 32.9151 37.1939 32.9668C37.1568 33.096 36.9639 33.1671 36.6153 33.1801C36.3779 33.1865 36.2592 33.2188 36.2592 33.277C36.2592 33.3352 36.3037 33.3643 36.3927 33.3643C36.4521 33.3643 36.504 33.361 36.5485 33.3546C36.8601 33.3352 37.2199 33.3255 37.6279 33.3255C38.2065 33.3255 38.7258 33.3319 39.1857 33.3449C39.4157 33.3513 39.6123 33.3546 39.7755 33.3546C39.9164 33.3546 39.9869 33.3255 39.9869 33.2673C39.9869 33.2156 39.9201 33.1898 39.7866 33.1898C39.3489 33.1898 39.093 33.1542 39.0188 33.0831C38.9446 33.012 38.9075 32.7696 38.9075 32.356V30.0097C39.1746 30.0032 39.4973 30 39.8756 30C40.1575 30 40.3541 30.0355 40.4654 30.1066C40.6953 30.2488 40.8289 30.5559 40.8659 31.0277C40.8808 31.2345 40.9364 31.3379 41.0329 31.3379C41.0996 31.3379 41.133 31.2862 41.133 31.1828C41.133 31.0794 41.1293 30.955 41.1219 30.8096C41.1166 30.7057 41.1132 30.5235 41.1117 30.263L41.1112 29.1288C41.1124 28.9359 41.1159 28.7916 41.1219 28.696C41.1293 28.5764 41.133 28.5328 41.133 28.5651L41.1274 28.5015ZM44.1708 27.7992C44.3711 27.7992 44.5417 27.7345 44.6827 27.6053C44.8236 27.476 44.8941 27.3209 44.8941 27.1399C44.8941 26.9654 44.8273 26.8199 44.6938 26.7036C44.5603 26.5873 44.3933 26.5291 44.1931 26.5291C43.9705 26.5291 43.7888 26.5873 43.6478 26.7036C43.5069 26.8199 43.4364 26.9686 43.4364 27.1496C43.4364 27.337 43.5069 27.4922 43.6478 27.615C43.7888 27.7378 43.9631 27.7992 44.1708 27.7992ZM42.88 33.3643C42.9468 33.3578 43.0024 33.3546 43.0469 33.3546L44.1152 33.3352L45.5951 33.3546C45.6619 33.3546 45.6953 33.3319 45.6953 33.2867C45.6953 33.2415 45.6545 33.2188 45.5729 33.2188C45.2465 33.2188 45.0554 33.1962 44.9998 33.151C44.9442 33.1057 44.9163 32.9506 44.9163 32.6856V30.8629L44.9052 29.6316C44.883 29.2825 44.8644 29.0693 44.8496 28.9917C44.2709 29.205 43.5736 29.3149 42.7576 29.3213C42.6463 29.3213 42.5907 29.344 42.5907 29.3892C42.5907 29.428 42.6037 29.4506 42.6296 29.4571C42.6556 29.4635 42.7465 29.4668 42.9023 29.4668C43.1471 29.4668 43.2936 29.491 43.3418 29.5395C43.39 29.588 43.4141 29.735 43.4141 29.9806V32.7632C43.4141 32.9765 43.3919 33.1041 43.3474 33.1461C43.3029 33.1881 43.1545 33.2124 42.9023 33.2188C42.7316 33.2253 42.6463 33.2479 42.6463 33.2867C42.6463 33.3384 42.6908 33.3643 42.7799 33.3643H42.88ZM46.0179 33.374C46.4408 33.374 46.8562 33.3675 47.2642 33.3546C47.4719 33.3481 47.7353 33.3449 48.0543 33.3449C48.3733 33.3449 48.5587 33.3416 48.6106 33.3352C48.6626 33.3287 48.6885 33.3061 48.6885 33.2673C48.6885 33.2285 48.6589 33.2091 48.5995 33.2091C48.4066 33.2027 48.2861 33.1881 48.2379 33.1655C48.1897 33.1429 48.1581 33.0928 48.1433 33.0152L48.1322 30.0776C48.1322 29.8901 48.2063 29.735 48.3547 29.6122C48.5031 29.4894 48.6922 29.428 48.9222 29.428C49.1522 29.428 49.3117 29.4861 49.4007 29.6025C49.5045 29.7382 49.5565 30.1519 49.5565 30.8435V32.7147C49.5565 32.9603 49.5398 33.1041 49.5064 33.1461C49.473 33.1881 49.3599 33.2091 49.167 33.2091H49.078C48.989 33.2091 48.9445 33.2318 48.9445 33.277C48.9445 33.3287 48.9964 33.3546 49.1002 33.3546L50.0572 33.3449H50.4133C50.7545 33.3449 51.0142 33.3481 51.1922 33.3546C51.3702 33.361 51.4667 33.3643 51.4815 33.3643C51.667 33.3643 51.7597 33.3384 51.7597 33.2867C51.7597 33.235 51.6577 33.2091 51.4537 33.2091C51.2497 33.2091 51.1292 33.1914 51.0921 33.1558C51.055 33.1203 51.0364 33.0023 51.0364 32.8019V31.3961C51.0364 30.7692 51.0272 30.3555 51.0086 30.1551C50.9901 29.9548 50.94 29.7738 50.8584 29.6122C50.6655 29.2244 50.2501 29.0305 49.6121 29.0305C48.9964 29.0305 48.492 29.2535 48.0988 29.6994C48.1062 29.6154 48.1099 29.4312 48.1099 29.1468C48.1099 29.0434 48.0802 28.9917 48.0209 28.9917C47.9986 28.9917 47.9578 29.0046 47.8985 29.0305C47.4015 29.3019 46.7375 29.4538 45.9067 29.4861C45.8177 29.4926 45.7731 29.5185 45.7731 29.5637C45.7731 29.609 45.8325 29.6316 45.9512 29.6316H46.0736C46.1478 29.6251 46.2331 29.6219 46.3295 29.6219C46.5076 29.6219 46.6077 29.6704 46.63 29.7673C46.6448 29.7932 46.6522 30.1196 46.6522 30.7465V32.9765L46.6188 33.1122C46.5817 33.1898 46.4501 33.2285 46.2238 33.2285C45.9975 33.2285 45.8844 33.2544 45.8844 33.3061C45.8844 33.3513 45.9289 33.374 46.0179 33.374ZM54.5861 33.4709C55.2537 33.4709 55.7953 33.2221 56.2107 32.7244C56.4036 32.4917 56.5 32.3042 56.5 32.1621C56.5 32.1233 56.4852 32.1039 56.4555 32.1039C56.4184 32.1039 56.3702 32.1653 56.3108 32.2881C56.1847 32.5337 56.0011 32.7341 55.76 32.8892C55.5189 33.0443 55.2686 33.1219 55.0089 33.1219C54.6974 33.1219 54.434 33.0282 54.2189 32.8407C53.8554 32.524 53.6736 31.9875 53.6736 31.2313C53.6736 31.0697 53.6848 30.8726 53.707 30.6399C53.9889 30.627 54.2226 30.6205 54.408 30.6205C55.6098 30.614 56.296 30.6043 56.4666 30.5914C56.4518 30.4298 56.4295 30.2909 56.3999 30.1745C56.2886 29.7996 56.0475 29.512 55.6766 29.3116C55.3427 29.1307 54.9384 29.0402 54.4637 29.0402C53.7664 29.0402 53.184 29.2518 52.7167 29.6752C52.2493 30.0986 52.0156 30.627 52.0156 31.2604C52.0156 31.9067 52.2567 32.4368 52.7389 32.8504C53.2211 33.2641 53.8368 33.4709 54.5861 33.4709ZM55.0979 30.4751C54.9867 30.4686 54.8568 30.4654 54.7085 30.4654C54.2115 30.4654 53.8851 30.4686 53.7293 30.4751C53.796 29.5896 54.0557 29.1468 54.5082 29.1468C54.7307 29.1468 54.8865 29.2438 54.9755 29.4377C55.0646 29.6316 55.1054 29.9774 55.0979 30.4751Z" fill="#333333"/>
</g>
</svg>
