<svg width="60" height="60" viewBox="0 0 60 60" fill="none" xmlns="http://www.w3.org/2000/svg">
<g id="&#229;&#143;&#141;&#229;&#164;&#141;&#232;&#174;&#176;&#229;&#143;&#183;/&#232;&#183;&#179;&#230;&#136;&#191;&#229;&#173;&#144;&#232;&#174;&#176;&#229;&#143;&#183;">
<g id="Frame 14">
<path id="&#231;&#159;&#169;&#229;&#189;&#162;" d="M10.5 23H9.5V31H10.5V23Z" fill="black"/>
<path id="&#231;&#159;&#169;&#229;&#189;&#162;_2" d="M50.5 23H10.5V24H50.5V23Z" fill="black"/>
<path id="1." d="M15.8755 27.574C15.6595 27.817 15.4075 28.033 15.1015 28.231C14.7955 28.411 14.4895 28.537 14.2015 28.618V29.356C14.8045 29.176 15.3085 28.888 15.7135 28.474V34H16.4515V27.574H15.8755ZM18.6058 32.929C18.4438 32.929 18.3178 32.983 18.2188 33.091C18.1108 33.199 18.0568 33.325 18.0568 33.487C18.0568 33.64 18.1108 33.766 18.2188 33.874C18.3178 33.982 18.4438 34.036 18.6058 34.036C18.7498 34.036 18.8848 33.982 18.9928 33.874C19.1008 33.766 19.1548 33.64 19.1548 33.487C19.1548 33.325 19.1008 33.199 18.9928 33.091C18.8848 32.983 18.7498 32.929 18.6058 32.929Z" fill="#333333"/>
</g>
</g>
</svg>
