<svg width="60" height="60" viewBox="0 0 60 60" fill="none" xmlns="http://www.w3.org/2000/svg">
<g id="&#229;&#143;&#141;&#229;&#164;&#141;&#232;&#174;&#176;&#229;&#143;&#183;/&#231;&#187;&#147;&#230;&#157;&#159;&#229;&#143;&#141;&#229;&#164;&#141;">
<path id="&#229;&#189;&#162;&#231;&#138;&#182;&#231;&#187;&#147;&#229;&#144;&#136;" d="M30.66 12C30.732 12.024 30.756 12.048 30.756 12.12V47.88C30.756 47.952 30.732 48 30.66 48H29.652C29.58 48 29.556 47.952 29.556 47.88V12.12C29.58 12.048 29.604 12 29.652 12H30.66ZM37.164 12C37.236 12.024 37.284 12.048 37.284 12.12V47.88C37.284 47.952 37.236 48 37.164 48H33.252C33.18 48 33.132 47.952 33.132 47.88V12.12C33.156 12.048 33.18 12 33.252 12H37.164ZM24.636 33.48C25.668 33.48 26.556 34.296 26.556 35.4C26.556 36.48 25.716 37.32 24.636 37.32C23.532 37.32 22.716 36.432 22.716 35.4C22.716 34.344 23.604 33.48 24.636 33.48ZM24.636 22.68C25.668 22.68 26.556 23.496 26.556 24.6C26.556 25.68 25.716 26.52 24.636 26.52C23.532 26.52 22.716 25.632 22.716 24.6C22.716 23.544 23.604 22.68 24.636 22.68Z" fill="#333333"/>
</g>
</svg>
