<svg width="60" height="60" viewBox="0 0 60 60" fill="none" xmlns="http://www.w3.org/2000/svg">
<g id="&#229;&#143;&#141;&#229;&#164;&#141;&#232;&#174;&#176;&#229;&#143;&#183;/&#231;&#187;&#136;&#230;&#173;&#162;&#231;&#186;&#191;">
<path id="&#229;&#189;&#162;&#231;&#138;&#182;&#231;&#187;&#147;&#229;&#144;&#136;" d="M27.24 12C27.312 12.024 27.336 12.048 27.336 12.12V47.88C27.336 47.952 27.312 48 27.24 48H26.232C26.16 48 26.136 47.952 26.136 47.88V12.12C26.16 12.048 26.184 12 26.232 12H27.24ZM33.744 12C33.816 12.024 33.864 12.048 33.864 12.12V47.88C33.864 47.952 33.816 48 33.744 48H29.832C29.76 48 29.712 47.952 29.712 47.88V12.12C29.736 12.048 29.76 12 29.832 12H33.744Z" fill="#333333"/>
</g>
</svg>
