<svg width="60" height="60" viewBox="0 0 60 60" fill="none" xmlns="http://www.w3.org/2000/svg">
<g id="&#229;&#143;&#141;&#229;&#164;&#141;&#232;&#174;&#176;&#229;&#143;&#183;/&#229;&#143;&#140;&#229;&#176;&#143;&#232;&#138;&#130;&#231;&#186;&#191;">
<path id="&#229;&#189;&#162;&#231;&#138;&#182;&#231;&#187;&#147;&#229;&#144;&#136;" d="M29.004 12C29.076 12.024 29.1 12.048 29.1 12.12V47.88C29.1 47.952 29.076 48 29.004 48H27.996C27.924 48 27.9 47.952 27.9 47.88V12.12C27.924 12.048 27.948 12 27.996 12H29.004ZM32.004 12C32.076 12.024 32.1 12.048 32.1 12.12V47.88C32.1 47.952 32.076 48 32.004 48H30.996C30.924 48 30.9 47.952 30.9 47.88V12.12C30.924 12.048 30.948 12 30.996 12H32.004Z" fill="#333333"/>
</g>
</svg>
