<svg width="60" height="60" viewBox="0 0 60 60" fill="none" xmlns="http://www.w3.org/2000/svg">
<g id="&#229;&#143;&#141;&#229;&#164;&#141;&#232;&#174;&#176;&#229;&#143;&#183;/&#232;&#189;&#172;&#232;&#135;&#179;&#229;&#176;&#190;&#229;&#163;&#176;">
<path id="toCoda" d="M9.60051 33.2313C10.1187 33.2313 10.5254 33.0897 10.8207 32.8065C10.9351 32.698 10.9924 32.6107 10.9924 32.5444C10.9924 32.5143 10.9833 32.4992 10.9653 32.4992C10.9412 32.4992 10.8809 32.5414 10.7845 32.6257C10.5857 32.8065 10.423 32.8969 10.2964 32.8969C10.0132 32.8969 9.84454 32.7221 9.79031 32.3727C9.75375 32.1325 9.73304 31.3899 9.72817 30.145L9.72704 29.3449C9.7873 29.3509 9.82947 29.3539 9.85357 29.3539L10.1458 29.3529C10.3346 29.3516 10.5113 29.3489 10.676 29.3449C10.7544 29.3449 10.7935 29.3027 10.7935 29.2184C10.7935 29.1822 10.7815 29.1641 10.7574 29.1641C10.7453 29.1641 10.7333 29.1672 10.7212 29.1732C10.6188 29.1973 10.4411 29.2093 10.188 29.2093C9.94094 29.2093 9.79332 29.1852 9.74512 29.137C9.69691 29.0888 9.67583 28.8056 9.68185 28.2875C9.68185 28.2031 9.66377 28.1609 9.62762 28.1609C9.5975 28.1609 9.55532 28.2031 9.50109 28.2875C9.09136 28.884 8.60331 29.1913 8.03692 29.2093C7.97064 29.2214 7.9375 29.2455 7.9375 29.2816C7.9375 29.3298 8.02788 29.3539 8.20864 29.3539C8.35928 29.3539 8.44966 29.363 8.47979 29.3811C8.50991 29.3991 8.52498 29.4624 8.52498 29.5709L8.53401 30.2216L8.53458 31.0469C8.53571 31.0706 8.53853 31.1299 8.54305 31.2248L8.54343 32.1726C8.54468 32.4094 8.54908 32.5605 8.55661 32.6257C8.56565 32.7041 8.60029 32.7884 8.66055 32.8788C8.81118 33.1138 9.1245 33.2313 9.60051 33.2313ZM13.0259 33.2403C13.502 33.2403 13.9388 33.0837 14.3365 32.7703C14.8426 32.3727 15.0957 31.8515 15.0957 31.2068C15.0957 30.6283 14.8953 30.1327 14.4946 29.72C14.0939 29.3073 13.6134 29.1009 13.0531 29.1009C12.4686 29.1009 11.97 29.3042 11.5573 29.711C11.1445 30.1177 10.9381 30.6102 10.9381 31.1887C10.9381 31.743 11.1445 32.2235 11.5573 32.6303C11.97 33.037 12.4596 33.2403 13.0259 33.2403ZM13.044 33.1138C12.8151 33.1138 12.6373 32.9812 12.5108 32.7161C12.3541 32.3847 12.2758 31.8244 12.2758 31.035C12.2758 30.4686 12.3421 30.0243 12.4746 29.7019C12.6072 29.3796 12.791 29.2184 13.0259 29.2184C13.279 29.2184 13.4628 29.372 13.5773 29.6793C13.6797 29.9565 13.7309 30.4686 13.7309 31.2158C13.7309 31.8244 13.6887 32.2883 13.6044 32.6077C13.514 32.9451 13.3272 33.1138 13.044 33.1138ZM20.0124 33.2494C20.5306 33.2494 21.0156 33.0566 21.4675 32.6709C21.6182 32.7372 21.7598 32.8788 21.8923 33.0957C21.9285 33.156 21.9616 33.1861 21.9917 33.1861C22.0219 33.1861 22.0369 33.153 22.0369 33.0867C22.0369 33.0264 22.0339 32.9752 22.0279 32.933C22.0219 32.8125 22.0188 32.6619 22.0188 32.4811C22.0188 32.3365 22.0309 32.1317 22.055 31.8665C22.0851 31.5171 22.1002 31.3273 22.1002 31.2971L22.1092 31.1435C22.1152 31.0652 22.0881 31.026 22.0279 31.026C21.9737 31.026 21.9254 31.1194 21.8833 31.3062C21.6182 32.4389 21.0608 33.0053 20.2112 33.0053C19.8196 33.0053 19.5032 32.8668 19.2622 32.5896C18.8043 32.0654 18.5753 31.2399 18.5753 30.1131C18.5753 29.3539 18.6717 28.7032 18.8645 28.1609C19.1417 27.3656 19.5876 26.9679 20.2022 26.9679C20.9795 26.9679 21.4766 27.5102 21.6935 28.5947C21.7417 28.8297 21.7899 28.9472 21.8381 28.9472C21.8983 28.9472 21.9285 28.893 21.9285 28.7845V28.1609C21.9224 27.944 21.9194 27.8205 21.9194 27.7904C21.9194 27.4891 21.9375 27.236 21.9737 27.0312C21.9797 26.995 21.9827 26.9679 21.9827 26.9498C21.9827 26.9076 21.9706 26.8865 21.9465 26.8865C21.9285 26.8865 21.8803 26.9287 21.8019 27.0131C21.6935 27.1276 21.576 27.1848 21.4494 27.1848C21.3651 27.1848 21.2325 27.1336 21.0518 27.0312C20.7384 26.8504 20.3829 26.76 19.9853 26.76C19.1236 26.76 18.4051 27.0688 17.8297 27.6864C17.2543 28.304 16.9666 29.0738 16.9666 29.9957C16.9666 30.9477 17.2859 31.737 17.9246 32.3636C18.5271 32.9541 19.2231 33.2494 20.0124 33.2494ZM24.7303 33.2403C25.2063 33.2403 25.6431 33.0837 26.0408 32.7703C26.5469 32.3727 26.8 31.8515 26.8 31.2068C26.8 30.6283 26.5996 30.1327 26.199 29.72C25.7983 29.3073 25.3177 29.1009 24.7574 29.1009C24.1729 29.1009 23.6743 29.3042 23.2616 29.711C22.8488 30.1177 22.6425 30.6102 22.6425 31.1887C22.6425 31.743 22.8488 32.2235 23.2616 32.6303C23.6743 33.037 24.1639 33.2403 24.7303 33.2403ZM24.7483 33.1138C24.5194 33.1138 24.3416 32.9812 24.2151 32.7161C24.0584 32.3847 23.9801 31.8244 23.9801 31.035C23.9801 30.4686 24.0464 30.0243 24.1789 29.7019C24.3115 29.3796 24.4953 29.2184 24.7303 29.2184C24.9833 29.2184 25.1671 29.372 25.2816 29.6793C25.384 29.9565 25.4352 30.4686 25.4352 31.2158C25.4352 31.8244 25.3931 32.2883 25.3087 32.6077C25.2183 32.9451 25.0315 33.1138 24.7483 33.1138ZM30.135 33.2403C30.1411 33.2403 30.1622 33.2343 30.1983 33.2222C30.5237 33.0716 30.834 32.9993 31.1292 33.0053L31.5359 33.0144C31.6565 33.0144 31.7167 32.9933 31.7167 32.9511C31.7167 32.8969 31.6715 32.8728 31.5811 32.8788C31.4124 32.8848 31.307 32.8607 31.2648 32.8065C31.2347 32.7703 31.2196 32.7011 31.2196 32.5986V28.2875L31.2106 27.4198L31.2015 26.9679C31.2015 26.8233 31.1684 26.751 31.1021 26.751C31.072 26.751 31.0208 26.763 30.9485 26.7871C30.4484 26.9498 29.9242 27.0312 29.3758 27.0312C29.3035 27.0312 29.2674 27.0522 29.2674 27.0944C29.2674 27.1366 29.3457 27.1577 29.5024 27.1577C29.7735 27.1517 29.9332 27.1984 29.9814 27.2978C30.0296 27.3972 30.0537 27.7181 30.0537 28.2603V29.5257C29.8187 29.2485 29.5144 29.1099 29.1409 29.1099C28.5684 29.1099 28.1075 29.2982 27.758 29.6748C27.4086 30.0514 27.2338 30.547 27.2338 31.1616C27.2338 31.7641 27.4055 32.2612 27.749 32.6528C28.0924 33.0445 28.5293 33.2403 29.0595 33.2403C29.4572 33.2403 29.7765 33.1108 30.0176 32.8517C30.0356 32.9481 30.0447 33.0234 30.0447 33.0776C30.0507 33.1861 30.0808 33.2403 30.135 33.2403ZM29.403 33.0324C29.1378 33.0324 28.9315 32.8758 28.7839 32.5625C28.6362 32.2491 28.5624 31.8063 28.5624 31.2339C28.5624 29.9505 28.8516 29.3088 29.4301 29.3088C29.6349 29.3088 29.7946 29.3931 29.9091 29.5618C29.9995 29.6944 30.0447 29.8962 30.0447 30.1674V32.1377C30.0447 32.451 29.9769 32.6785 29.8413 32.8201C29.7057 32.9616 29.5596 33.0324 29.403 33.0324ZM32.964 33.2313C33.4339 33.2313 33.8045 32.9842 34.0757 32.4902C34.1118 32.7553 34.1856 32.9391 34.2971 33.0415C34.4086 33.1439 34.5878 33.1951 34.8349 33.1951C35.2145 33.1951 35.5338 33.0776 35.7929 32.8426C35.8893 32.7583 35.9375 32.692 35.9375 32.6438C35.9375 32.6137 35.9224 32.5986 35.8923 32.5986C35.8742 32.5986 35.8501 32.6137 35.82 32.6438C35.6694 32.7884 35.5428 32.8607 35.4404 32.8607C35.2958 32.8607 35.2084 32.7342 35.1783 32.4811C35.1743 32.449 35.1716 32.3606 35.1703 32.216L35.1693 30.4114C35.1693 29.9474 35.0698 29.6221 34.871 29.4353C34.624 29.2123 34.1871 29.1009 33.5605 29.1009C33.1387 29.1009 32.7983 29.2063 32.5392 29.4172C32.2801 29.6281 32.1505 29.8631 32.1505 30.1222C32.1505 30.2849 32.2063 30.4189 32.3177 30.5244C32.4292 30.6298 32.5723 30.6825 32.7471 30.6825C32.8856 30.6825 32.9986 30.6389 33.086 30.5515C33.1734 30.4641 33.217 30.3542 33.217 30.2216C33.217 29.9746 33.1086 29.842 32.8917 29.8239C32.7471 29.8119 32.6747 29.7757 32.6747 29.7155C32.6747 29.607 32.735 29.4955 32.8555 29.3811C32.976 29.2666 33.1357 29.2093 33.3345 29.2093C33.678 29.2093 33.8919 29.36 33.9762 29.6612L33.9853 29.7064C34.0275 29.845 34.0485 30.2156 34.0485 30.8181V31.0079C32.7471 31.1465 32.0963 31.5954 32.0963 32.3546C32.0963 32.6137 32.1761 32.8246 32.3358 32.9873C32.4955 33.1499 32.7049 33.2313 32.964 33.2313ZM33.6057 32.7523C33.3165 32.7523 33.1718 32.5414 33.1718 32.1196C33.1718 31.5713 33.4641 31.2399 34.0485 31.1254V31.5683C34.0485 31.9961 34.0154 32.3004 33.9491 32.4811C33.8828 32.6619 33.7684 32.7523 33.6057 32.7523Z" fill="#333333"/>
<g id="yinfuSVG-_15">
<path id="&#229;&#189;&#162;&#231;&#138;&#182;" d="M51.8612 29.7987H49.9689C49.8884 27.1817 48.0364 25.0882 45.7013 24.9674V23.6388C45.7013 23.518 45.6208 23.4375 45.5 23.4375C45.3792 23.4375 45.2987 23.518 45.2987 23.6388V24.9674C42.9636 25.0882 41.1116 27.1817 41.0311 29.7987H39.1388C39.018 29.7987 38.9375 29.8792 38.9375 30C38.9375 30.1208 39.018 30.2013 39.1388 30.2013H41.0311C41.1116 32.8183 42.9636 34.9118 45.2987 35.0326V36.3612C45.2987 36.482 45.3792 36.5625 45.5 36.5625C45.6208 36.5625 45.7013 36.482 45.7013 36.3612V35.0326C48.0364 34.9118 49.8884 32.8183 49.9689 30.2013H51.8612C51.982 30.2013 52.0625 30.1208 52.0625 30C52.0625 29.8792 51.982 29.7987 51.8612 29.7987ZM48.2377 29.7987H45.7013V25.5311C47.0702 25.6518 48.1572 27.5038 48.2377 29.7987ZM45.2987 25.5311V29.7987H42.8428C42.8831 27.5441 43.9701 25.6921 45.2987 25.5311ZM42.8428 30.2013H45.2987V34.4287C43.9701 34.2676 42.9233 32.4559 42.8428 30.2013ZM45.7013 34.4689V30.2416H48.1975C48.1572 32.4962 47.0702 34.3079 45.7013 34.4689Z" fill="#333333"/>
</g>
</g>
</svg>
