<svg width="60" height="60" viewBox="0 0 60 60" fill="none" xmlns="http://www.w3.org/2000/svg">
<g id="&#229;&#143;&#141;&#229;&#164;&#141;&#232;&#174;&#176;&#229;&#143;&#183;/&#229;&#176;&#190;&#229;&#163;&#176;&#232;&#174;&#176;&#229;&#143;&#183;">
<g id="yinfuSVG-_15">
<path id="&#229;&#189;&#162;&#231;&#138;&#182;" d="M27.2478 29.7086H24.3643C24.2416 25.9202 21.4195 22.8896 17.8613 22.7147V20.7914C17.8613 20.6166 17.7386 20.5 17.5545 20.5C17.3705 20.5 17.2478 20.6166 17.2478 20.7914V22.7147C13.6895 22.8896 10.8674 25.9202 10.7447 29.7086H7.86125C7.6772 29.7086 7.5545 29.8252 7.5545 30C7.5545 30.1748 7.6772 30.2914 7.86125 30.2914H10.7447C10.8674 34.0798 13.6895 37.1104 17.2478 37.2853V39.2086C17.2478 39.3834 17.3705 39.5 17.5545 39.5C17.7386 39.5 17.8613 39.3834 17.8613 39.2086V37.2853C21.4195 37.1104 24.2416 34.0798 24.3643 30.2914H27.2478C27.4318 30.2914 27.5545 30.1748 27.5545 30C27.5545 29.8252 27.4318 29.7086 27.2478 29.7086ZM21.7263 29.7086H17.8613V23.5307C19.9471 23.7055 21.6036 26.3865 21.7263 29.7086ZM17.2478 23.5307V29.7086H13.5054C13.5668 26.4448 15.2232 23.7638 17.2478 23.5307ZM13.5054 30.2914H17.2478V36.411C15.2232 36.1779 13.6281 33.5552 13.5054 30.2914ZM17.8613 36.4693V30.3497H21.6649C21.6036 33.6135 19.9471 36.2362 17.8613 36.4693Z" fill="#333333"/>
</g>
<path id="Coda" d="M33.2297 33.9208C33.855 33.9208 34.4402 33.6881 34.9855 33.2228C35.1673 33.3028 35.3381 33.4736 35.4981 33.7354C35.5417 33.8081 35.5817 33.8444 35.6181 33.8444C35.6544 33.8444 35.6726 33.8044 35.6726 33.7245C35.6726 33.6518 35.6689 33.59 35.6617 33.5391C35.6544 33.3937 35.6508 33.2119 35.6508 32.9938C35.6508 32.8193 35.6653 32.5721 35.6944 32.2522C35.7307 31.8305 35.7489 31.6015 35.7489 31.5651L35.7598 31.3797C35.7671 31.2852 35.7344 31.238 35.6617 31.238C35.5962 31.238 35.5381 31.3507 35.4872 31.576C35.1673 32.9429 34.4948 33.6263 33.4696 33.6263C32.9971 33.6263 32.6154 33.4591 32.3245 33.1247C31.772 32.4921 31.4957 31.4961 31.4957 30.1365C31.4957 29.2204 31.612 28.4352 31.8447 27.7809C32.1791 26.8212 32.7171 26.3413 33.4587 26.3413C34.3966 26.3413 34.9964 26.9957 35.2582 28.3043C35.3163 28.5879 35.3745 28.7297 35.4327 28.7297C35.5054 28.7297 35.5417 28.6642 35.5417 28.5334V27.7809C35.5344 27.5191 35.5308 27.3701 35.5308 27.3337C35.5308 26.9702 35.5526 26.6649 35.5962 26.4177C35.6035 26.374 35.6072 26.3413 35.6072 26.3195C35.6072 26.2686 35.5926 26.2432 35.5635 26.2432C35.5417 26.2432 35.4836 26.2941 35.389 26.3959C35.2582 26.534 35.1164 26.6031 34.9637 26.6031C34.8619 26.6031 34.702 26.5413 34.4839 26.4177C34.1058 26.1996 33.6768 26.0905 33.197 26.0905C32.1573 26.0905 31.2903 26.4631 30.596 27.2083C29.9017 27.9535 29.5545 28.8823 29.5545 29.9947C29.5545 31.1435 29.9398 32.0959 30.7105 32.852C31.4375 33.5645 32.2773 33.9208 33.2297 33.9208ZM38.9225 33.9099C39.4968 33.9099 40.0239 33.7208 40.5038 33.3428C41.1145 32.8629 41.4199 32.234 41.4199 31.4561C41.4199 30.7581 41.1781 30.1601 40.6946 29.6621C40.2112 29.1641 39.6313 28.9151 38.9552 28.9151C38.25 28.9151 37.6483 29.1604 37.1503 29.6512C36.6523 30.142 36.4033 30.7363 36.4033 31.4343C36.4033 32.1032 36.6523 32.683 37.1503 33.1737C37.6483 33.6645 38.2391 33.9099 38.9225 33.9099ZM38.9443 33.7572C38.668 33.7572 38.4535 33.5972 38.3009 33.2773C38.1118 32.8775 38.0173 32.2013 38.0173 31.2489C38.0173 30.5655 38.0973 30.0293 38.2572 29.6403C38.4172 29.2513 38.6389 29.0568 38.9225 29.0568C39.2278 29.0568 39.4496 29.2422 39.5877 29.613C39.7113 29.9475 39.7731 30.5655 39.7731 31.467C39.7731 32.2013 39.7222 32.7611 39.6204 33.1465C39.5114 33.5536 39.286 33.7572 38.9443 33.7572ZM45.4441 33.9099C45.4513 33.9099 45.4768 33.9026 45.5204 33.888C45.913 33.7063 46.2874 33.619 46.6437 33.6263L47.1344 33.6372C47.2799 33.6372 47.3526 33.6118 47.3526 33.5609C47.3526 33.4954 47.298 33.4664 47.189 33.4736H47.076C46.9376 33.4678 46.848 33.4387 46.8073 33.3864C46.7709 33.3428 46.7527 33.2592 46.7527 33.1356V27.9336L46.7418 26.8866L46.7309 26.3413C46.7309 26.1668 46.6909 26.0796 46.611 26.0796C46.5746 26.0796 46.5128 26.0941 46.4256 26.1232C45.8221 26.3195 45.1896 26.4177 44.528 26.4177C44.4407 26.4177 44.3971 26.4431 44.3971 26.494C44.3971 26.5449 44.4916 26.5703 44.6807 26.5703C45.0078 26.5631 45.2005 26.6194 45.2587 26.7394C45.3168 26.8593 45.3459 27.2465 45.3459 27.9008V29.4276C45.0624 29.0932 44.6952 28.926 44.2444 28.926C43.5537 28.926 42.9976 29.1532 42.5759 29.6076C42.1542 30.062 41.9433 30.66 41.9433 31.4016C41.9433 32.1286 42.1506 32.7284 42.565 33.201C42.9794 33.6736 43.5065 33.9099 44.1463 33.9099C44.6261 33.9099 45.0115 33.7535 45.3023 33.4409C45.3241 33.5572 45.335 33.6481 45.335 33.7136C45.3423 33.8444 45.3786 33.9099 45.4441 33.9099ZM44.5607 33.659C44.2408 33.659 43.9918 33.47 43.8137 33.0919C43.6355 32.7139 43.5465 32.1795 43.5465 31.4888C43.5465 29.9402 43.8955 29.1659 44.5934 29.1659C44.8406 29.1659 45.0333 29.2677 45.1714 29.4713C45.2805 29.6312 45.335 29.8748 45.335 30.2019V32.5794C45.335 32.9574 45.2532 33.2319 45.0896 33.4027C44.926 33.5736 44.7497 33.659 44.5607 33.659ZM48.8575 33.899C49.4246 33.899 49.8718 33.6009 50.1989 33.0047C50.2426 33.3246 50.3316 33.5463 50.4661 33.6699C50.6006 33.7935 50.8169 33.8553 51.115 33.8553C51.573 33.8553 51.9584 33.7136 52.271 33.43C52.3873 33.3282 52.4455 33.2482 52.4455 33.1901C52.4455 33.1537 52.4273 33.1356 52.391 33.1356C52.3692 33.1356 52.3401 33.1537 52.3037 33.1901C52.122 33.3646 51.9693 33.4518 51.8457 33.4518C51.6712 33.4518 51.5658 33.2991 51.5294 32.9938C51.5242 32.9522 51.5209 32.8328 51.5194 32.6355L51.5185 30.4964C51.5185 29.9366 51.3986 29.544 51.1586 29.3186C50.8605 29.0496 50.3334 28.9151 49.5773 28.9151C49.0684 28.9151 48.6576 29.0423 48.345 29.2968C48.0323 29.5512 47.876 29.8348 47.876 30.1474C47.876 30.3437 47.9433 30.5055 48.0778 30.6327C48.2123 30.7599 48.385 30.8236 48.5958 30.8236C48.763 30.8236 48.8993 30.7708 49.0048 30.6654C49.1102 30.56 49.1629 30.4273 49.1629 30.2674C49.1629 29.9693 49.032 29.8093 48.7703 29.7875C48.5958 29.773 48.5086 29.7294 48.5086 29.6566C48.5086 29.5258 48.5813 29.3913 48.7267 29.2531C48.8721 29.115 49.0647 29.0459 49.3047 29.0459C49.7191 29.0459 49.9772 29.2277 50.079 29.5912L50.0899 29.6457C50.1408 29.813 50.1662 30.2601 50.1662 30.9871V31.2162C48.5958 31.3834 47.8106 31.925 47.8106 32.8411C47.8106 33.1537 47.9069 33.4082 48.0996 33.6045C48.2923 33.8008 48.5449 33.899 48.8575 33.899ZM49.6318 33.321C49.2829 33.321 49.1084 33.0665 49.1084 32.5576C49.1084 31.8959 49.461 31.4961 50.1662 31.3579V31.8923C50.1662 32.4085 50.1262 32.7757 50.0463 32.9938C49.9663 33.2119 49.8281 33.321 49.6318 33.321Z" fill="#333333"/>
</g>
</svg>
