<svg width="60" height="60" viewBox="0 0 60 60" fill="none" xmlns="http://www.w3.org/2000/svg">
<g id="&#229;&#143;&#141;&#229;&#164;&#141;&#232;&#174;&#176;&#229;&#143;&#183;/&#232;&#191;&#148;&#229;&#155;&#158;&#232;&#174;&#176;&#229;&#143;&#183;">
<g id="yinfuSVG-_4">
<path id="&#229;&#189;&#162;&#231;&#138;&#182;" d="M24.2634 32.1759C24.8439 32.1759 25.3561 31.7178 25.3561 31.1288C25.3561 30.5726 24.8439 30.0818 24.2634 30.0818C23.6488 30.0818 23.1707 30.5726 23.1707 31.1288C23.1707 31.6524 23.6829 32.1759 24.2634 32.1759ZM35.7366 27.7587C35.122 27.7587 34.6439 28.2495 34.6439 28.8057C34.6439 29.362 35.1561 29.8528 35.7366 29.8528C36.3171 29.8528 36.8293 29.3947 36.8293 28.8057C36.8293 28.2168 36.3171 27.7587 35.7366 27.7587ZM31.8098 28.8057L37 22.8834L36.1805 22.2945L30.922 28.1186C29.4878 27.2025 28.6683 26.6789 28.4293 26.5153C27.3707 25.6973 26.8585 24.9775 26.8585 24.3231C26.8585 23.4724 27.6098 22.9816 28.6 22.9816C29.2146 22.9816 29.4537 23.2434 29.4878 24.0286C29.6244 25.1084 30.1024 25.501 30.7854 25.501C31.6049 25.501 32.1171 24.9121 32.1171 24.1268C32.1171 22.8834 30.4439 22 28.6683 22C26.6878 22 24.5707 23.7342 24.5707 25.6973C24.5707 27.4969 25.8683 29.2311 28.4634 30.9652L23 37.182L23.8195 37.7382L29.2829 31.5215C32.6293 33.7464 33.3805 34.499 33.3805 35.6769C33.3805 36.593 32.561 37.1493 31.6049 37.1493H31.5707C30.7171 37.1493 30.3073 36.9202 30.3073 36.4622C30.3073 36.2658 30.478 35.6115 30.478 35.4151C30.478 34.9243 30 34.3681 29.4878 34.3681C28.7707 34.3681 28.1561 35.0879 28.1561 35.8078C28.1561 37.1493 29.8293 38 31.9122 38C33.8927 38 35.5659 36.1022 35.5659 34.2699C35.6 32.4703 34.6098 30.9652 31.8098 28.8057Z" fill="#333330"/>
</g>
</g>
</svg>
