<svg width="60" height="60" viewBox="0 0 60 60" fill="none" xmlns="http://www.w3.org/2000/svg">
<g id="&#229;&#143;&#141;&#229;&#164;&#141;&#232;&#174;&#176;&#229;&#143;&#183;/&#231;&#187;&#147;&#230;&#157;&#159;&#232;&#174;&#176;&#229;&#143;&#183;">
<path id="Fine" d="M17.6649 34.769C17.7382 34.769 17.8024 34.7644 17.8573 34.7552C18.2422 34.7277 18.6865 34.714 19.1905 34.714C19.9052 34.714 20.5465 34.7232 21.1146 34.7415C21.3987 34.7507 21.6415 34.7552 21.843 34.7552C22.0171 34.7552 22.1042 34.714 22.1042 34.6315C22.1042 34.5582 22.0217 34.5216 21.8568 34.5216C21.3162 34.5216 21.0001 34.4712 20.9085 34.3704C20.8168 34.2696 20.771 33.926 20.771 33.3396V30.0136C21.1009 30.0045 21.4994 29.9999 21.9667 29.9999C22.3149 29.9999 22.5577 30.0503 22.6952 30.1511C22.9792 30.3526 23.1441 30.7879 23.1899 31.4567C23.2083 31.7499 23.277 31.8965 23.3961 31.8965C23.4786 31.8965 23.5198 31.8232 23.5198 31.6766C23.5198 31.53 23.5152 31.3536 23.506 31.1475C23.4969 30.9413 23.4923 30.5176 23.4923 29.8762V28.9828C23.4923 28.598 23.4969 28.3208 23.506 28.1513C23.5115 28.0496 23.5154 27.9867 23.5176 27.9625L23.5183 27.9566L23.5129 27.8756C23.5038 27.8241 23.4854 27.7897 23.4579 27.7725L23.4098 27.7596C23.3365 27.7596 23.2907 27.8192 23.2724 27.9383C23.1625 28.7721 22.9998 29.2806 22.7845 29.4639C22.5692 29.6471 22.0309 29.7387 21.1696 29.7387H20.771V25.5331C21.2475 25.5056 21.669 25.4919 22.0355 25.4919C22.8326 25.4919 23.3869 25.5652 23.6985 25.7118C24.2207 25.9592 24.5735 26.4494 24.7567 27.1824C24.8209 27.4481 24.8644 27.6039 24.8873 27.6497C24.9102 27.6955 24.9491 27.7184 25.0041 27.7184C25.0683 27.7184 25.1003 27.6818 25.1003 27.6085C25.1003 27.5535 25.0957 27.4985 25.0866 27.4435C25.0133 27.022 24.94 26.2616 24.8667 25.1621C24.5735 25.1895 24.3536 25.2033 24.207 25.2033L23.2587 25.1895C22.6814 25.1804 21.9759 25.1804 21.1421 25.1895C20.5832 25.1895 19.9372 25.1987 19.2042 25.217C18.6911 25.2242 18.3665 25.2285 18.2303 25.2301L17.8986 25.2308C17.7153 25.2308 17.6237 25.2766 17.6237 25.3682C17.6237 25.4323 17.7543 25.4736 18.0154 25.4919C18.2765 25.5102 18.4506 25.5423 18.5377 25.5881C18.6247 25.6339 18.6774 25.721 18.6957 25.8492L18.7095 33.8207C18.7095 34.0039 18.6911 34.1322 18.6545 34.2055C18.6087 34.3887 18.3704 34.4895 17.9398 34.5078C17.6466 34.517 17.5 34.5628 17.5 34.6453C17.5 34.7277 17.555 34.769 17.6649 34.769ZM27.2719 26.88C27.5192 26.88 27.73 26.7884 27.9041 26.6052C28.0782 26.4219 28.1652 26.202 28.1652 25.9454C28.1652 25.6981 28.0827 25.4919 27.9178 25.327C27.7529 25.1621 27.5467 25.0796 27.2993 25.0796C27.0245 25.0796 26.8 25.1621 26.6259 25.327C26.4518 25.4919 26.3648 25.7026 26.3648 25.9592C26.3648 26.2249 26.4518 26.4448 26.6259 26.6189C26.8 26.793 27.0153 26.88 27.2719 26.88ZM25.6776 34.769C25.76 34.7598 25.8288 34.7552 25.8837 34.7552L27.2031 34.7277L29.0311 34.7552C29.1135 34.7552 29.1548 34.7232 29.1548 34.659C29.1548 34.5949 29.1044 34.5628 29.0036 34.5628C28.6004 34.5628 28.3645 34.5308 28.2958 34.4666C28.227 34.4025 28.1927 34.1826 28.1927 33.8069V31.2231L28.1789 29.4776C28.1515 28.9828 28.1286 28.6805 28.1102 28.5705C27.3955 28.8729 26.5343 29.0286 25.5264 29.0378C25.389 29.0378 25.3202 29.0699 25.3202 29.134C25.3202 29.189 25.3363 29.2211 25.3683 29.2302C25.4004 29.2394 25.5126 29.244 25.7051 29.244C26.0074 29.244 26.1884 29.2783 26.2479 29.347C26.3075 29.4158 26.3373 29.6242 26.3373 29.9724V33.9169C26.3373 34.2192 26.3098 34.4002 26.2548 34.4597C26.1998 34.5193 26.0166 34.5537 25.7051 34.5628C25.4943 34.572 25.389 34.6041 25.389 34.659C25.389 34.7323 25.4439 34.769 25.5539 34.769H25.6776ZM29.5533 34.7827C30.0756 34.7827 30.5887 34.7736 31.0926 34.7552C31.3492 34.7461 31.6745 34.7415 32.0684 34.7415C32.4624 34.7415 32.6915 34.7369 32.7556 34.7277C32.8198 34.7186 32.8518 34.6865 32.8518 34.6315C32.8518 34.5766 32.8152 34.5491 32.7419 34.5491C32.5037 34.5399 32.3548 34.5193 32.2952 34.4872C32.2357 34.4552 32.1967 34.3842 32.1784 34.2742L32.1646 30.1098C32.1646 29.8441 32.2563 29.6242 32.4395 29.4501C32.6228 29.276 32.8564 29.189 33.1405 29.189C33.4245 29.189 33.6215 29.2715 33.7314 29.4364C33.8597 29.6288 33.9239 30.2152 33.9239 31.1956V33.8481C33.9239 34.1963 33.9032 34.4002 33.862 34.4597C33.8208 34.5193 33.6811 34.5491 33.4428 34.5491H33.3329C33.2229 34.5491 33.1679 34.5811 33.1679 34.6453C33.1679 34.7186 33.2321 34.7552 33.3604 34.7552L34.5423 34.7415H34.9821C35.4036 34.7415 35.7243 34.7461 35.9442 34.7552C36.1641 34.7644 36.2832 34.769 36.3015 34.769C36.5306 34.769 36.6451 34.7323 36.6451 34.659C36.6451 34.5857 36.5191 34.5491 36.2672 34.5491C36.0152 34.5491 35.8663 34.5239 35.8205 34.4735C35.7747 34.4231 35.7518 34.2559 35.7518 33.9718V31.979C35.7518 31.0902 35.7403 30.5038 35.7174 30.2198C35.6945 29.9357 35.6327 29.6792 35.5319 29.4501C35.2937 28.9004 34.7806 28.6255 33.9926 28.6255C33.2321 28.6255 32.609 28.9416 32.1234 29.5738C32.1326 29.4547 32.1372 29.1936 32.1372 28.7904C32.1372 28.6438 32.1005 28.5705 32.0272 28.5705C31.9997 28.5705 31.9493 28.5888 31.876 28.6255C31.2621 29.0103 30.4421 29.2256 29.4159 29.2715C29.3059 29.2806 29.251 29.3173 29.251 29.3814C29.251 29.4455 29.3243 29.4776 29.4709 29.4776H29.622C29.7137 29.4684 29.819 29.4639 29.9382 29.4639C30.1581 29.4639 30.2817 29.5326 30.3092 29.67C30.3276 29.7067 30.3367 30.1694 30.3367 31.0581V34.2192L30.2955 34.4116C30.2497 34.5216 30.087 34.5766 29.8076 34.5766C29.5281 34.5766 29.3884 34.6132 29.3884 34.6865C29.3884 34.7507 29.4434 34.7827 29.5533 34.7827ZM40.1361 34.9202C40.9607 34.9202 41.6296 34.5674 42.1427 33.8619C42.3809 33.532 42.5 33.2663 42.5 33.0647C42.5 33.0098 42.4817 32.9823 42.445 32.9823C42.3992 32.9823 42.3397 33.0693 42.2664 33.2434C42.1106 33.5916 41.8838 33.8756 41.586 34.0955C41.2883 34.3154 40.979 34.4254 40.6583 34.4254C40.2735 34.4254 39.9482 34.2925 39.6825 34.0268C39.2336 33.5778 39.0091 32.8174 39.0091 31.7453C39.0091 31.5163 39.0228 31.2368 39.0503 30.907C39.3985 30.8886 39.6871 30.8795 39.9162 30.8795C41.4005 30.8703 42.248 30.8566 42.4588 30.8382C42.4404 30.6092 42.413 30.4122 42.3763 30.2473C42.2389 29.7158 41.9411 29.3081 41.483 29.0241C41.0706 28.7675 40.5713 28.6392 39.9849 28.6392C39.1236 28.6392 38.4043 28.9393 37.8271 29.5395C37.2499 30.1396 36.9612 30.8886 36.9612 31.7866C36.9612 32.7028 37.259 33.4542 37.8546 34.0406C38.4502 34.627 39.2106 34.9202 40.1361 34.9202ZM40.7683 30.6733C40.6308 30.6642 40.4705 30.6596 40.2872 30.6596C39.6734 30.6596 39.2702 30.6642 39.0778 30.6733C39.1603 29.4181 39.4809 28.7904 40.0399 28.7904C40.3147 28.7904 40.5071 28.9279 40.6171 29.2027C40.727 29.4776 40.7774 29.9678 40.7683 30.6733Z" fill="#333333"/>
</g>
</svg>
