<svg width="60" height="60" viewBox="0 0 60 60" fill="none" xmlns="http://www.w3.org/2000/svg">
<g id="&#229;&#143;&#141;&#229;&#164;&#141;&#232;&#174;&#176;&#229;&#143;&#183;/&#232;&#191;&#148;&#229;&#167;&#139;&#229;&#165;&#143;&#232;&#135;&#179;&#229;&#176;&#190;&#229;&#163;&#176;">
<path id="D.C.alCoda" d="M3.88275 33.3734C4.91416 33.3734 5.68957 33.2858 6.20898 33.1106C6.97326 32.851 7.55575 32.4388 7.95644 31.8741C8.34229 31.3354 8.53521 30.6961 8.53521 29.9562C8.53521 28.8528 8.08629 27.9961 7.18845 27.386C6.46869 26.8992 5.43357 26.6558 4.08309 26.6558C3.7566 26.6558 3.29655 26.6525 2.70294 26.646C2.2874 26.6395 1.85703 26.6363 1.41182 26.6363H1.21148C1.10759 26.6363 1.05565 26.6655 1.05565 26.7239C1.05565 26.7953 1.13727 26.8278 1.30052 26.8213C1.60475 26.8148 1.79396 26.87 1.86816 26.9868C1.91268 27.0517 1.93495 27.2269 1.93495 27.5125V32.468C1.93495 32.8185 1.9201 33.0165 1.89042 33.0619C1.82364 33.1657 1.63072 33.2144 1.31165 33.2079C1.10388 33.2014 1 33.2306 1 33.2956C1 33.3475 1.05565 33.3734 1.16695 33.3734L1.86816 33.3637C2.33564 33.3572 2.57679 33.354 2.59163 33.354H2.99232C3.27429 33.354 3.48948 33.3572 3.63788 33.3637C3.78629 33.3702 3.86791 33.3734 3.88275 33.3734ZM4.29457 33.1982C3.99034 33.1982 3.79371 33.1625 3.70466 33.0911C3.6453 33.0457 3.61562 32.8088 3.61562 32.3804V27.3957C3.61562 27.1555 3.67498 27.003 3.79371 26.9381C3.88275 26.8862 4.06825 26.8602 4.35022 26.8602C5.12934 26.8602 5.7007 27.1085 6.06429 27.605C6.42788 28.1015 6.60967 28.8853 6.60967 29.9562C6.60967 32.1175 5.83797 33.1982 4.29457 33.1982ZM10.4496 33.4513C10.6797 33.4513 10.8689 33.3864 11.0173 33.2566C11.1657 33.1268 11.2399 32.9613 11.2399 32.7601C11.2399 32.5589 11.162 32.3901 11.0061 32.2538C10.8503 32.1175 10.6648 32.0494 10.4496 32.0494C10.2196 32.0494 10.0267 32.1175 9.87085 32.2538C9.71503 32.3901 9.63711 32.5589 9.63711 32.7601C9.63711 32.9548 9.71503 33.1187 9.87085 33.2517C10.0267 33.3848 10.2196 33.4513 10.4496 33.4513ZM16.0816 33.5C16.7197 33.5 17.317 33.2923 17.8735 32.8769C18.059 32.9483 18.2334 33.1008 18.3967 33.3345C18.4412 33.3994 18.482 33.4319 18.5191 33.4319C18.5562 33.4319 18.5747 33.3962 18.5747 33.3248C18.5747 33.2599 18.571 33.2047 18.5636 33.1593C18.5562 33.0294 18.5525 32.8672 18.5525 32.6725C18.5525 32.5167 18.5673 32.296 18.597 32.0104C18.6341 31.634 18.6527 31.4295 18.6527 31.3971L18.6638 31.2316C18.6712 31.1472 18.6378 31.105 18.5636 31.105C18.4968 31.105 18.4375 31.2056 18.3855 31.4068C18.059 32.627 17.3727 33.2371 16.3264 33.2371C15.8441 33.2371 15.4546 33.0879 15.1577 32.7893C14.5938 32.2246 14.3118 31.3354 14.3118 30.1217C14.3118 29.3039 14.4306 28.6029 14.668 28.0188C15.0093 27.162 15.5584 26.7337 16.3153 26.7337C17.2725 26.7337 17.8847 27.3178 18.1518 28.4861C18.2112 28.7392 18.2705 28.8658 18.3299 28.8658C18.4041 28.8658 18.4412 28.8074 18.4412 28.6905V28.0188C18.4338 27.7851 18.4301 27.6521 18.4301 27.6196C18.4301 27.2951 18.4523 27.0225 18.4968 26.8018C18.5043 26.7629 18.508 26.7337 18.508 26.7142C18.508 26.6688 18.4931 26.646 18.4634 26.646C18.4412 26.646 18.3818 26.6915 18.2854 26.7823C18.1518 26.9057 18.0071 26.9673 17.8513 26.9673C17.7474 26.9673 17.5841 26.9121 17.3615 26.8018C16.9757 26.6071 16.5379 26.5097 16.0482 26.5097C14.9871 26.5097 14.1022 26.8424 13.3936 27.5076C12.685 28.1729 12.3306 29.0021 12.3306 29.9951C12.3306 31.0206 12.7239 31.8709 13.5105 32.5459C14.2525 33.182 15.1095 33.5 16.0816 33.5ZM20.6227 33.4513C20.8527 33.4513 21.042 33.3864 21.1904 33.2566C21.3388 33.1268 21.413 32.9613 21.413 32.7601C21.413 32.5589 21.3351 32.3901 21.1792 32.2538C21.0234 32.1175 20.8379 32.0494 20.6227 32.0494C20.3927 32.0494 20.1998 32.1175 20.0439 32.2538C19.8881 32.3901 19.8102 32.5589 19.8102 32.7601C19.8102 32.9548 19.8881 33.1187 20.0439 33.2517C20.1998 33.3848 20.3927 33.4513 20.6227 33.4513ZM25.3308 33.4805C25.9096 33.4805 26.366 33.2144 26.6999 32.6822C26.7444 32.9678 26.8353 33.1657 26.9726 33.2761C27.1098 33.3864 27.3306 33.4416 27.6348 33.4416C28.1023 33.4416 28.4956 33.315 28.8146 33.0619C28.9333 32.971 28.9927 32.8996 28.9927 32.8477C28.9927 32.8153 28.9742 32.799 28.9371 32.799C28.9148 32.799 28.8851 32.8153 28.848 32.8477C28.6625 33.0035 28.5067 33.0814 28.3805 33.0814C28.2025 33.0814 28.0949 32.9451 28.0578 32.6725C28.0525 32.6354 28.0491 32.5287 28.0475 32.3526L28.0466 30.443C28.0466 29.9432 27.9242 29.5927 27.6793 29.3915C27.3751 29.1514 26.8371 29.0313 26.0654 29.0313C25.546 29.0313 25.1268 29.1449 24.8077 29.372C24.4886 29.5992 24.3291 29.8523 24.3291 30.1314C24.3291 30.3067 24.3977 30.4511 24.535 30.5647C24.6723 30.6783 24.8485 30.735 25.0637 30.735C25.2344 30.735 25.3735 30.688 25.4811 30.5939C25.5887 30.4998 25.6425 30.3813 25.6425 30.2385C25.6425 29.9724 25.5089 29.8296 25.2418 29.8102C25.0637 29.7972 24.9747 29.7582 24.9747 29.6933C24.9747 29.5765 25.0489 29.4564 25.1973 29.3331C25.3457 29.2098 25.5423 29.1481 25.7872 29.1481C26.2101 29.1481 26.4735 29.3104 26.5774 29.6349L26.5886 29.6836C26.6405 29.8329 26.6665 30.232 26.6665 30.8811V31.0855C25.0637 31.2348 24.2623 31.7184 24.2623 32.5362C24.2623 32.8153 24.3606 33.0424 24.5573 33.2177C24.7539 33.3929 25.0118 33.4805 25.3308 33.4805ZM26.1211 32.9645C25.7649 32.9645 25.5868 32.7374 25.5868 32.283C25.5868 31.6924 25.9467 31.3354 26.6665 31.2121V31.6892C26.6665 32.15 26.6257 32.4777 26.544 32.6725C26.4624 32.8672 26.3214 32.9645 26.1211 32.9645ZM29.0381 33.3738L29.1263 33.3734L29.4602 33.3637C29.9054 33.3507 30.2096 33.3442 30.3729 33.3442C30.5435 33.3442 30.7179 33.3475 30.896 33.354C31.2447 33.3669 31.4525 33.3734 31.5193 33.3734C31.8013 33.3734 31.9422 33.3475 31.9422 33.2956C31.9422 33.2436 31.894 33.2177 31.7975 33.2177L31.4636 33.2274C31.3078 33.2339 31.2169 33.1998 31.1909 33.1252C31.165 33.0505 31.152 32.7925 31.152 32.3512L31.1529 28.3724C31.153 28.2989 31.1531 28.2276 31.1532 28.1583L31.154 27.7686C31.1542 27.708 31.1543 27.6494 31.1545 27.5931L31.1556 27.2804C31.1574 26.8501 31.1599 26.5932 31.1631 26.5097C30.6363 26.7044 29.9573 26.8148 29.1263 26.8407C28.9333 26.8472 28.8369 26.8764 28.8369 26.9284C28.8369 26.9738 28.9296 26.9965 29.1151 26.9965C29.3674 26.9965 29.5195 27.0176 29.5715 27.0598C29.6234 27.102 29.6494 27.2334 29.6494 27.4541V32.5848C29.6494 32.9223 29.629 33.1171 29.5882 33.169C29.5474 33.2209 29.3971 33.2436 29.1374 33.2371C28.9667 33.2306 28.8814 33.2534 28.8814 33.3053C28.8814 33.3572 28.963 33.3799 29.1263 33.3734L29.0381 33.3738ZM39.3884 33.5C40.0265 33.5 40.6239 33.2923 41.1804 32.8769C41.3659 32.9483 41.5403 33.1008 41.7035 33.3345C41.748 33.3994 41.7888 33.4319 41.8259 33.4319C41.863 33.4319 41.8816 33.3962 41.8816 33.3248C41.8816 33.2599 41.8779 33.2047 41.8705 33.1593C41.863 33.0294 41.8593 32.8672 41.8593 32.6725C41.8593 32.5167 41.8742 32.296 41.9039 32.0104C41.941 31.634 41.9595 31.4295 41.9595 31.3971L41.9706 31.2316C41.9781 31.1472 41.9447 31.105 41.8705 31.105C41.8037 31.105 41.7443 31.2056 41.6924 31.4068C41.3659 32.627 40.6795 33.2371 39.6333 33.2371C39.151 33.2371 38.7614 33.0879 38.4646 32.7893C37.9007 32.2246 37.6187 31.3354 37.6187 30.1217C37.6187 29.3039 37.7374 28.6029 37.9749 28.0188C38.3162 27.162 38.8653 26.7337 39.6221 26.7337C40.5793 26.7337 41.1915 27.3178 41.4586 28.4861C41.518 28.7392 41.5774 28.8658 41.6367 28.8658C41.7109 28.8658 41.748 28.8074 41.748 28.6905V28.0188C41.7406 27.7851 41.7369 27.6521 41.7369 27.6196C41.7369 27.2951 41.7592 27.0225 41.8037 26.8018C41.8111 26.7629 41.8148 26.7337 41.8148 26.7142C41.8148 26.6688 41.8 26.646 41.7703 26.646C41.748 26.646 41.6887 26.6915 41.5922 26.7823C41.4586 26.9057 41.3139 26.9673 41.1581 26.9673C41.0542 26.9673 40.891 26.9121 40.6684 26.8018C40.2825 26.6071 39.8447 26.5097 39.355 26.5097C38.2939 26.5097 37.4091 26.8424 36.7004 27.5076C35.9918 28.1729 35.6375 29.0021 35.6375 29.9951C35.6375 31.0206 36.0308 31.8709 36.8173 32.5459C37.5593 33.182 38.4164 33.5 39.3884 33.5ZM45.1984 33.4903C45.7846 33.4903 46.3226 33.3215 46.8123 32.984C47.4356 32.5556 47.7473 31.9942 47.7473 31.2997C47.7473 30.6766 47.5005 30.1428 47.0071 29.6982C46.5137 29.2536 45.9219 29.0313 45.2318 29.0313C44.5121 29.0313 43.898 29.2503 43.3898 29.6885C42.8815 30.1266 42.6273 30.6572 42.6273 31.2802C42.6273 31.8774 42.8815 32.395 43.3898 32.8331C43.898 33.2712 44.5009 33.4903 45.1984 33.4903ZM45.2207 33.354C44.9387 33.354 44.7198 33.2112 44.564 32.9256C44.3711 32.5686 44.2746 31.965 44.2746 31.1147C44.2746 30.5046 44.3562 30.026 44.5195 29.6787C44.6827 29.3315 44.909 29.1579 45.1984 29.1579C45.5101 29.1579 45.7364 29.3234 45.8774 29.6544C46.0035 29.9529 46.0666 30.5046 46.0666 31.3095C46.0666 31.965 46.0146 32.4648 45.9108 32.8088C45.7995 33.1722 45.5694 33.354 45.2207 33.354ZM51.8543 33.4903C51.8618 33.4903 51.8877 33.4838 51.9323 33.4708C52.3329 33.3085 52.7151 33.2306 53.0787 33.2371L53.5795 33.2469C53.7279 33.2469 53.8021 33.2242 53.8021 33.1787C53.8021 33.1203 53.7465 33.0943 53.6352 33.1008H53.5199C53.3786 33.0956 53.2872 33.0697 53.2456 33.0229C53.2085 32.984 53.19 32.9094 53.19 32.799V28.1551L53.1789 27.2204L53.1677 26.7337C53.1677 26.5779 53.1269 26.5 53.0453 26.5C53.0082 26.5 52.9451 26.513 52.8561 26.5389C52.2402 26.7142 51.5946 26.8018 50.9194 26.8018C50.8304 26.8018 50.7858 26.8245 50.7858 26.87C50.7858 26.9154 50.8823 26.9381 51.0752 26.9381C51.4091 26.9316 51.6058 26.9819 51.6651 27.089C51.7245 27.1961 51.7542 27.5417 51.7542 28.1259V29.4889C51.4648 29.1903 51.0901 29.041 50.63 29.041C49.9251 29.041 49.3574 29.2439 48.9271 29.6495C48.4967 30.0552 48.2815 30.589 48.2815 31.251C48.2815 31.9001 48.493 32.4356 48.9159 32.8574C49.3389 33.2793 49.8769 33.4903 50.5298 33.4903C51.0196 33.4903 51.4128 33.3507 51.7097 33.0716C51.7319 33.1755 51.743 33.2566 51.743 33.315C51.7505 33.4319 51.7876 33.4903 51.8543 33.4903ZM50.9528 33.2663C50.6263 33.2663 50.3722 33.0976 50.1904 32.7601C50.0086 32.4226 49.9177 31.9455 49.9177 31.3289C49.9177 29.9465 50.2738 29.2552 50.9862 29.2552C51.2385 29.2552 51.4351 29.3461 51.5761 29.5278C51.6874 29.6706 51.743 29.888 51.743 30.1801V32.3025C51.743 32.64 51.6596 32.885 51.4926 33.0376C51.3257 33.1901 51.1457 33.2663 50.9528 33.2663ZM55.3381 33.4805C55.9169 33.4805 56.3732 33.2144 56.7072 32.6822C56.7517 32.9678 56.8426 33.1657 56.9799 33.2761C57.1171 33.3864 57.3379 33.4416 57.6421 33.4416C58.1096 33.4416 58.5028 33.315 58.8219 33.0619C58.9406 32.971 59 32.8996 59 32.8477C59 32.8153 58.9814 32.799 58.9443 32.799C58.9221 32.799 58.8924 32.8153 58.8553 32.8477C58.6698 33.0035 58.514 33.0814 58.3878 33.0814C58.2097 33.0814 58.1022 32.9451 58.0651 32.6725C58.0598 32.6354 58.0563 32.5287 58.0548 32.3526L58.0539 30.443C58.0539 29.9432 57.9315 29.5927 57.6866 29.3915C57.3824 29.1514 56.8444 29.0313 56.0727 29.0313C55.5533 29.0313 55.1341 29.1449 54.815 29.372C54.4959 29.5992 54.3364 29.8523 54.3364 30.1314C54.3364 30.3067 54.405 30.4511 54.5423 30.5647C54.6796 30.6783 54.8558 30.735 55.071 30.735C55.2417 30.735 55.3808 30.688 55.4884 30.5939C55.596 30.4998 55.6498 30.3813 55.6498 30.2385C55.6498 29.9724 55.5162 29.8296 55.2491 29.8102C55.071 29.7972 54.982 29.7582 54.982 29.6933C54.982 29.5765 55.0562 29.4564 55.2046 29.3331C55.353 29.2098 55.5496 29.1481 55.7945 29.1481C56.2174 29.1481 56.4808 29.3104 56.5847 29.6349L56.5959 29.6836C56.6478 29.8329 56.6738 30.232 56.6738 30.8811V31.0855C55.071 31.2348 54.2696 31.7184 54.2696 32.5362C54.2696 32.8153 54.3679 33.0424 54.5646 33.2177C54.7612 33.3929 55.0191 33.4805 55.3381 33.4805ZM56.1284 32.9645C55.7722 32.9645 55.5941 32.7374 55.5941 32.283C55.5941 31.6924 55.954 31.3354 56.6738 31.2121V31.6892C56.6738 32.15 56.633 32.4777 56.5513 32.6725C56.4697 32.8672 56.3287 32.9645 56.1284 32.9645Z" fill="#333333"/>
</g>
</svg>
