<svg width="16" height="16" viewBox="0 0 16 16" fill="none" xmlns="http://www.w3.org/2000/svg">
<g id="Property 1=&#229;&#133;&#179;&#233;&#151;&#173;, Property 2=pressed">
<path id="&#229;&#189;&#162;&#231;&#138;&#182;" d="M8 1C11.85 1 15 4.15 15 8C15 11.85 11.85 15 8 15C4.15 15 1 11.85 1 8C1 4.15 4.15 1 8 1ZM7.9125 7.3875L5.725 5.2C5.55 5.025 5.2875 5.025 5.1125 5.2C4.9375 5.375 4.9375 5.6375 5.1125 5.8125L7.3 8L5.1125 10.1875C4.9375 10.3625 4.9375 10.625 5.1125 10.8C5.2875 10.975 5.55 10.975 5.725 10.8L7.9125 8.6125L10.1 10.8C10.275 10.975 10.5375 10.975 10.7125 10.8C10.8875 10.625 10.8875 10.3625 10.7125 10.1875L8.525 8L10.625 5.8125C10.8 5.6375 10.8 5.375 10.625 5.2C10.45 5.025 10.1875 5.025 10.0125 5.2L7.9125 7.3875Z" fill="#2C2C2C"/>
</g>
</svg>
